<svg width="200" height="200" viewBox="0 0 200 200" fill="none" xmlns="http://www.w3.org/2000/svg">
<path fill-rule="evenodd" clip-rule="evenodd" d="M170.597 68.5927C169.607 69.0192 168.773 69.7402 168.207 70.6578C167.641 71.5754 167.372 72.6449 167.436 73.721L109.774 98.8671C108.649 96.9996 107.059 95.4561 105.159 94.3876L122.836 50.2184C124.072 50.2834 125.291 49.909 126.277 49.1613C127.263 48.4137 127.953 47.3411 128.225 46.1335C128.496 44.926 128.331 43.6613 127.759 42.5636C127.188 41.4659 126.246 40.6059 125.101 40.136C123.956 39.6661 122.682 39.6166 121.503 39.9962C120.325 40.3758 119.32 41.1601 118.665 42.2101C118.009 43.2602 117.747 44.5082 117.924 45.7332C118.1 46.9582 118.705 48.0811 119.63 48.903L101.938 93.1004C99.8444 92.5805 97.6524 92.6061 95.5715 93.1748L78.8022 54.0363C79.7034 53.1949 80.2781 52.0619 80.4246 50.8377C80.5711 49.6134 80.28 48.3768 79.6027 47.3465C78.9255 46.3162 77.9058 45.5585 76.7238 45.2074C75.5419 44.8564 74.2739 44.9345 73.144 45.4281C72.0142 45.9217 71.0952 46.7989 70.5497 47.9046C70.0041 49.0103 69.8671 50.2733 70.1629 51.4703C70.4586 52.6672 71.1681 53.7211 72.1658 54.4455C73.1636 55.1698 74.3853 55.5181 75.615 55.4287L92.374 94.544C90.507 95.6678 88.9567 97.2482 87.8689 99.1363L31.2022 76.4594C31.2433 75.2286 30.8478 74.0229 30.0856 73.0556C29.3233 72.0883 28.2435 71.4218 27.0372 71.174C25.8309 70.9262 24.5758 71.113 23.494 71.7014C22.4121 72.2898 21.5733 73.242 21.1258 74.3893C20.6784 75.5367 20.6512 76.8053 21.049 77.9708C21.4468 79.1363 22.244 80.1235 23.2996 80.7578C24.3552 81.3921 25.6012 81.6326 26.817 81.4367C28.0328 81.2409 29.1402 80.6213 29.9432 79.6876L86.5766 102.352C86.0497 104.465 86.0753 106.677 86.6509 108.777L34.3714 131.762C33.5336 130.84 32.3963 130.244 31.1612 130.08C29.926 129.916 28.6727 130.195 27.6233 130.867C26.574 131.539 25.7964 132.56 25.4284 133.751C25.0604 134.941 25.1257 136.223 25.6127 137.37C26.0998 138.517 26.9771 139.454 28.0893 140.016C29.2015 140.578 30.4766 140.728 31.6887 140.439C32.9009 140.151 33.9717 139.443 34.7115 138.44C35.4513 137.437 35.8123 136.205 35.7304 134.962L87.9689 111.99C89.0861 113.863 90.669 115.415 92.5638 116.495L79.5176 149.167C78.2875 149.128 77.083 149.524 76.1172 150.287C75.1515 151.05 74.4866 152.13 74.2403 153.336C73.9939 154.542 74.182 155.796 74.7712 156.877C75.3604 157.957 76.3128 158.794 77.4598 159.241C78.6069 159.687 79.8748 159.713 81.0392 159.314C82.2036 158.915 83.1896 158.118 83.8227 157.062C84.4557 156.007 84.6951 154.762 84.4985 153.547C84.3019 152.332 83.682 151.225 82.7484 150.423L95.7817 117.782C97.9142 118.327 100.153 118.301 102.271 117.706L107.497 129.9C106.581 130.73 105.987 131.858 105.822 133.083C105.656 134.308 105.93 135.553 106.594 136.596C107.258 137.639 108.269 138.414 109.449 138.783C110.629 139.152 111.902 139.092 113.042 138.613C114.182 138.134 115.116 137.268 115.678 136.167C116.241 135.066 116.396 133.801 116.116 132.597C115.835 131.392 115.138 130.326 114.148 129.586C113.157 128.846 111.937 128.481 110.702 128.554L105.466 116.339C107.333 115.214 108.876 113.624 109.943 111.724L168.71 130.954C168.645 132.191 169.019 133.411 169.767 134.398C170.515 135.385 171.588 136.075 172.796 136.347C174.005 136.618 175.27 136.453 176.368 135.881C177.467 135.309 178.327 134.367 178.797 133.222C179.267 132.076 179.317 130.801 178.937 129.622C178.557 128.444 177.772 127.437 176.722 126.782C175.671 126.126 174.422 125.864 173.197 126.041C171.971 126.218 170.848 126.823 170.025 127.749L111.233 108.498C111.763 106.381 111.734 104.162 111.148 102.059L168.789 76.9312C169.436 77.6423 170.265 78.1617 171.187 78.4325C172.109 78.7033 173.088 78.7151 174.016 78.4664C174.944 78.2178 175.786 77.7184 176.449 77.023C177.113 76.3276 177.571 75.463 177.776 74.5241C177.98 73.5851 177.922 72.608 177.608 71.7C177.294 70.7919 176.735 69.9878 175.994 69.376C175.253 68.7641 174.358 68.3681 173.407 68.2313C172.456 68.0945 171.486 68.2222 170.602 68.6004L170.597 68.5927ZM121.32 44.2953C121.46 43.9481 121.699 43.6499 122.008 43.4387C122.317 43.2274 122.681 43.1125 123.056 43.1085C123.43 43.1044 123.797 43.2114 124.11 43.4159C124.424 43.6204 124.669 43.9133 124.816 44.2574C124.963 44.6016 125.005 44.9816 124.936 45.3494C124.867 45.7172 124.691 46.0563 124.429 46.3239C124.167 46.5914 123.832 46.7753 123.466 46.8524C123.1 46.9295 122.719 46.8962 122.371 46.7569C122.141 46.6646 121.93 46.5276 121.752 46.3539C121.574 46.1801 121.433 45.973 121.335 45.7443C121.237 45.5156 121.186 45.2699 121.183 45.0213C121.181 44.7726 121.227 44.5259 121.32 44.2953V44.2953ZM27.7048 76.9722C27.5653 77.3201 27.3258 77.6187 27.0166 77.8305C26.7074 78.0422 26.3423 78.1575 25.9676 78.1618C25.5929 78.166 25.2253 78.0591 24.9113 77.8545C24.5974 77.6498 24.3512 77.3567 24.2038 77.0121C24.0564 76.6676 24.0146 76.287 24.0835 75.9187C24.1523 75.5503 24.3289 75.2106 24.5909 74.9426C24.8528 74.6746 25.1883 74.4903 25.555 74.4129C25.9217 74.3356 26.3031 74.3687 26.6509 74.5081C26.8819 74.6007 27.0924 74.7379 27.2704 74.9118C27.4484 75.0858 27.5904 75.2931 27.6883 75.5219C27.7861 75.7507 27.8379 75.9966 27.8408 76.2454C27.8436 76.4943 27.7974 76.7412 27.7048 76.9722V76.9722ZM31.2561 137.08C30.9121 137.227 30.5322 137.269 30.1645 137.2C29.7967 137.131 29.4577 136.955 29.19 136.693C28.9224 136.432 28.7383 136.097 28.661 135.731C28.5836 135.365 28.6165 134.984 28.7554 134.637C28.8943 134.29 29.1331 133.991 29.4416 133.78C29.75 133.568 30.1143 133.452 30.4884 133.448C30.8624 133.443 31.2295 133.549 31.5432 133.753C31.857 133.957 32.1032 134.249 32.2509 134.593C32.3492 134.821 32.4014 135.067 32.4045 135.316C32.4077 135.565 32.3617 135.812 32.2693 136.043C32.1769 136.274 32.0399 136.484 31.866 136.662C31.6921 136.84 31.4849 136.982 31.2561 137.08V137.08ZM81.0894 155.09C80.9505 155.438 80.7115 155.737 80.4025 155.95C80.0936 156.162 79.7287 156.278 79.3539 156.283C78.979 156.288 78.6112 156.181 78.2969 155.977C77.9826 155.773 77.7359 155.48 77.5881 155.135C77.4403 154.791 77.3979 154.41 77.4664 154.042C77.5349 153.673 77.7112 153.333 77.9729 153.065C78.2346 152.797 78.57 152.612 78.9367 152.534C79.3034 152.457 79.6849 152.489 80.033 152.629C80.2646 152.72 80.4757 152.857 80.6543 153.03C80.8329 153.204 80.9754 153.411 81.0736 153.639C81.1718 153.868 81.2238 154.114 81.2265 154.363C81.2292 154.612 81.1826 154.859 81.0894 155.09ZM73.474 50.9492C73.3267 50.6051 73.2848 50.2251 73.3535 49.8572C73.4222 49.4893 73.5984 49.1501 73.8599 48.8823C74.1214 48.6146 74.4564 48.4304 74.8226 48.3531C75.1888 48.2757 75.5696 48.3087 75.9171 48.4478C76.2645 48.5869 76.5629 48.826 76.7745 49.1346C76.9861 49.4433 77.1014 49.8078 77.1058 50.182C77.1103 50.5563 77.0037 50.9234 76.7995 51.237C76.5953 51.5507 76.3027 51.7967 75.9586 51.944C75.7303 52.0426 75.4847 52.095 75.236 52.0983C74.9873 52.1016 74.7404 52.0557 74.5095 51.9632C74.2786 51.8708 74.0682 51.7336 73.8905 51.5596C73.7128 51.3855 73.5713 51.1781 73.474 50.9492V50.9492ZM112.759 133.041C112.908 133.384 112.952 133.764 112.885 134.132C112.818 134.5 112.644 134.84 112.384 135.108C112.124 135.377 111.79 135.563 111.424 135.642C111.059 135.721 110.678 135.689 110.33 135.552C109.982 135.414 109.683 135.176 109.471 134.869C109.258 134.561 109.142 134.197 109.136 133.823C109.13 133.45 109.235 133.082 109.439 132.768C109.642 132.454 109.933 132.208 110.277 132.059C110.505 131.961 110.75 131.909 110.999 131.905C111.247 131.902 111.494 131.948 111.725 132.04C111.955 132.133 112.165 132.27 112.343 132.444C112.52 132.618 112.662 132.825 112.759 133.054V133.041ZM172.174 130.521C172.313 130.174 172.552 129.875 172.861 129.664C173.17 129.453 173.534 129.338 173.908 129.333C174.283 129.329 174.65 129.436 174.963 129.64C175.277 129.844 175.523 130.137 175.67 130.481C175.817 130.825 175.859 131.204 175.791 131.572C175.722 131.94 175.546 132.279 175.284 132.547C175.023 132.815 174.688 132.999 174.322 133.077C173.956 133.154 173.575 133.121 173.228 132.982C172.997 132.891 172.786 132.754 172.607 132.581C172.429 132.407 172.287 132.2 172.189 131.971C172.091 131.742 172.039 131.496 172.037 131.247C172.034 130.999 172.081 130.752 172.174 130.521V130.521ZM173.402 75.1363C173.058 75.2834 172.678 75.3251 172.311 75.2564C171.943 75.1876 171.604 75.0113 171.336 74.7499C171.069 74.4885 170.884 74.1536 170.807 73.7876C170.73 73.4216 170.763 73.0409 170.902 72.6935C171.04 72.3462 171.279 72.0478 171.588 71.8361C171.896 71.6244 172.26 71.5089 172.635 71.5041C173.009 71.4994 173.376 71.6056 173.689 71.8094C174.003 72.0132 174.249 72.3055 174.397 72.6492C174.496 72.8777 174.548 73.1235 174.551 73.3724C174.555 73.6213 174.509 73.8684 174.416 74.0995C174.324 74.3306 174.187 74.5412 174.013 74.7191C173.839 74.897 173.631 75.0388 173.402 75.1363Z" fill="#E6E7E8"/>
<path fill-rule="evenodd" clip-rule="evenodd" d="M154.107 100.239C153.03 100.241 151.979 100.575 151.097 101.195C150.216 101.815 149.547 102.692 149.182 103.706H111.489C111.19 101.545 110.335 99.4982 109.007 97.7671L142.648 64.1286C143.759 64.676 145.028 64.8127 146.229 64.5144C147.431 64.2162 148.489 63.5022 149.215 62.499C149.94 61.4958 150.288 60.2681 150.195 59.0333C150.103 57.7985 149.576 56.6363 148.709 55.7525C147.842 54.8687 146.69 54.3204 145.457 54.2046C144.224 54.0888 142.99 54.4131 141.973 55.1199C140.956 55.8268 140.223 56.8706 139.902 58.0666C139.581 59.2626 139.694 60.5335 140.22 61.6543L106.546 95.3158C104.826 94.0149 102.802 93.1755 100.666 92.8774V50.2979C101.825 49.8791 102.799 49.0641 103.415 47.9968C104.031 46.9295 104.25 45.6788 104.033 44.4657C103.816 43.2527 103.177 42.1554 102.229 41.3679C101.281 40.5805 100.085 40.1536 98.853 40.1626C97.6207 40.1717 96.4313 40.6163 95.4951 41.4176C94.5589 42.219 93.9362 43.3255 93.7371 44.5417C93.538 45.7578 93.7753 47.0052 94.407 48.0632C95.0388 49.1213 96.0243 49.9219 97.1894 50.3235V92.8876C95.0304 93.1858 92.983 94.0294 91.2407 95.3389L48.0714 52.1645C48.5938 51.0493 48.7049 49.7853 48.3851 48.596C48.0652 47.4067 47.3351 46.3689 46.3237 45.6662C45.3124 44.9635 44.0851 44.6411 42.859 44.7561C41.6328 44.871 40.4869 45.416 39.6239 46.2945C38.7608 47.1731 38.2363 48.3285 38.1432 49.5565C38.05 50.7845 38.3942 52.0058 39.1148 53.0045C39.8355 54.0032 40.8861 54.7148 42.0808 55.0134C43.2756 55.312 44.5375 55.1785 45.6432 54.6363L88.7791 97.7671C87.4613 99.5021 86.6127 101.547 86.315 103.706H59.9048C59.4941 102.529 58.6802 101.536 57.6074 100.903C56.5345 100.269 55.272 100.036 54.0435 100.244C52.8151 100.452 51.7 101.089 50.896 102.04C50.0919 102.992 49.6508 104.198 49.6508 105.444C49.6508 106.69 50.0919 107.896 50.896 108.848C51.7 109.799 52.8151 110.436 54.0435 110.644C55.272 110.852 56.5345 110.619 57.6074 109.985C58.6802 109.352 59.4941 108.359 59.9048 107.182H86.2766C86.5649 109.344 87.4086 111.395 88.7253 113.134L51.8022 150.057C50.6862 149.533 49.4209 149.421 48.2302 149.74C47.0395 150.06 46.0001 150.79 45.296 151.802C44.5919 152.814 44.2685 154.042 44.3829 155.27C44.4973 156.497 45.0422 157.645 45.9212 158.509C46.8002 159.374 47.9566 159.899 49.1858 159.993C50.415 160.087 51.6378 159.743 52.6378 159.022C53.6379 158.301 54.3507 157.25 54.6501 156.054C54.9495 154.858 54.8163 153.595 54.274 152.488L91.1714 115.58C92.917 116.92 94.9845 117.778 97.1663 118.067V142.516C95.9997 142.919 95.0133 143.722 94.3817 144.783C93.75 145.843 93.5137 147.093 93.7147 148.311C93.9156 149.529 94.5408 150.636 95.4796 151.438C96.4184 152.239 97.6105 152.683 98.8448 152.69C100.079 152.697 101.276 152.268 102.225 151.478C103.173 150.687 103.811 149.587 104.026 148.372C104.242 147.156 104.02 145.904 103.401 144.836C102.782 143.768 101.805 142.953 100.643 142.536V118.067C102.805 117.766 104.851 116.909 106.582 115.58L126.72 135.724C126.173 136.834 126.037 138.103 126.336 139.305C126.634 140.507 127.349 141.564 128.352 142.289C129.356 143.015 130.584 143.362 131.819 143.269C133.054 143.176 134.216 142.648 135.099 141.781C135.982 140.913 136.53 139.76 136.645 138.527C136.76 137.294 136.435 136.06 135.728 135.044C135.02 134.028 133.976 133.295 132.78 132.975C131.583 132.654 130.312 132.768 129.192 133.295L109.033 113.134C110.348 111.396 111.191 109.348 111.479 107.188H149.156C149.47 108.096 150.028 108.9 150.769 109.512C151.509 110.124 152.404 110.52 153.355 110.657C154.306 110.794 155.276 110.667 156.159 110.289C157.043 109.912 157.805 109.298 158.363 108.516C158.921 107.733 159.253 106.813 159.322 105.855C159.391 104.896 159.195 103.937 158.756 103.083C158.316 102.229 157.65 101.512 156.83 101.011C156.01 100.51 155.068 100.245 154.107 100.244V100.239ZM143.595 58.0876C143.859 57.8231 144.196 57.643 144.563 57.5701C144.93 57.4971 145.311 57.5347 145.657 57.6779C146.002 57.8212 146.298 58.0637 146.506 58.3749C146.714 58.6861 146.824 59.0519 146.824 59.4261C146.824 59.8003 146.714 60.1661 146.506 60.4773C146.298 60.7884 146.002 61.031 145.657 61.1742C145.311 61.3175 144.93 61.355 144.563 61.2821C144.196 61.2092 143.859 61.0291 143.595 60.7645C143.418 60.589 143.279 60.3804 143.183 60.1507C143.088 59.921 143.039 59.6748 143.039 59.4261C143.039 59.1774 143.088 58.9311 143.183 58.7015C143.279 58.4718 143.418 58.2632 143.595 58.0876V58.0876ZM44.6638 51.262C44.3988 51.527 44.0611 51.7075 43.6936 51.7807C43.326 51.8538 42.945 51.8163 42.5987 51.6729C42.2524 51.5295 41.9565 51.2866 41.7482 50.975C41.54 50.6634 41.4289 50.297 41.4289 49.9222C41.4289 49.5475 41.54 49.1811 41.7482 48.8695C41.9565 48.5578 42.2524 48.315 42.5987 48.1716C42.945 48.0282 43.326 47.9907 43.6936 48.0638C44.0611 48.137 44.3988 48.3175 44.6638 48.5825C44.8403 48.7581 44.9804 48.9669 45.076 49.1968C45.1715 49.4267 45.2208 49.6732 45.2208 49.9222C45.2208 50.1712 45.1715 50.4178 45.076 50.6477C44.9804 50.8776 44.8403 51.0864 44.6638 51.262ZM54.9509 107.365C54.5767 107.365 54.2108 107.254 53.8996 107.046C53.5884 106.838 53.3459 106.542 53.2027 106.196C53.0594 105.851 53.022 105.47 53.095 105.103C53.168 104.736 53.3482 104.399 53.6129 104.134C53.8775 103.87 54.2147 103.689 54.5818 103.616C54.9488 103.543 55.3293 103.581 55.6751 103.724C56.0209 103.867 56.3164 104.11 56.5243 104.421C56.7323 104.732 56.8432 105.098 56.8432 105.472C56.8439 105.721 56.7954 105.967 56.7006 106.197C56.6057 106.427 56.4664 106.636 56.2905 106.812C56.1147 106.988 55.9058 107.127 55.6759 107.222C55.446 107.317 55.1996 107.365 54.9509 107.365ZM50.9099 156.118C50.6449 156.383 50.3073 156.564 49.9397 156.637C49.5721 156.71 49.1911 156.673 48.8449 156.529C48.4986 156.386 48.2026 156.143 47.9944 155.831C47.7862 155.52 47.675 155.153 47.675 154.779C47.675 154.404 47.7862 154.037 47.9944 153.726C48.2026 153.414 48.4986 153.171 48.8449 153.028C49.1911 152.885 49.5721 152.847 49.9397 152.92C50.3073 152.993 50.6449 153.174 50.9099 153.439C51.0861 153.615 51.2259 153.823 51.3213 154.053C51.4167 154.283 51.4658 154.53 51.4658 154.779C51.4658 155.028 51.4167 155.274 51.3213 155.504C51.2259 155.734 51.0861 155.943 50.9099 156.118ZM96.9843 45.3645C96.9843 44.9903 97.0952 44.6244 97.3032 44.3132C97.5111 44.0021 97.8066 43.7595 98.1524 43.6163C98.4982 43.4731 98.8787 43.4356 99.2457 43.5086C99.6128 43.5816 99.95 43.7618 100.215 44.0265C100.479 44.2911 100.66 44.6283 100.733 44.9954C100.806 45.3624 100.768 45.7429 100.625 46.0887C100.482 46.4345 100.239 46.73 99.9279 46.9379C99.6167 47.1459 99.2508 47.2569 98.8766 47.2569C98.6279 47.2575 98.3815 47.209 98.1516 47.1142C97.9217 47.0193 97.7129 46.88 97.537 46.7041C97.3611 46.5283 97.2218 46.3194 97.1269 46.0895C97.0321 45.8596 96.9836 45.6132 96.9843 45.3645V45.3645ZM100.769 147.472C100.769 147.847 100.659 148.213 100.451 148.524C100.244 148.836 99.9482 149.079 99.6025 149.222C99.2568 149.366 98.8762 149.404 98.509 149.331C98.1417 149.258 97.8043 149.078 97.5394 148.814C97.2745 148.549 97.094 148.212 97.0208 147.845C96.9476 147.478 96.9849 147.097 97.1281 146.751C97.2712 146.405 97.5137 146.11 97.825 145.902C98.1362 145.694 98.5022 145.582 98.8766 145.582C99.125 145.582 99.3712 145.63 99.6009 145.725C99.8307 145.82 100.039 145.959 100.215 146.134C100.391 146.31 100.53 146.518 100.625 146.748C100.72 146.978 100.769 147.224 100.769 147.472V147.472ZM130.082 136.675C130.347 136.409 130.684 136.229 131.052 136.155C131.42 136.082 131.801 136.119 132.147 136.262C132.494 136.406 132.79 136.648 132.998 136.96C133.207 137.272 133.318 137.638 133.318 138.013C133.318 138.388 133.207 138.755 132.998 139.066C132.79 139.378 132.494 139.621 132.147 139.764C131.801 139.908 131.42 139.945 131.052 139.871C130.684 139.798 130.347 139.617 130.082 139.352C129.906 139.176 129.766 138.967 129.671 138.738C129.576 138.508 129.527 138.262 129.527 138.013C129.527 137.765 129.576 137.518 129.671 137.289C129.766 137.059 129.906 136.851 130.082 136.675V136.675ZM154.107 107.359C153.733 107.36 153.366 107.25 153.055 107.043C152.743 106.836 152.499 106.54 152.355 106.195C152.211 105.849 152.173 105.468 152.246 105.101C152.318 104.734 152.498 104.396 152.762 104.131C153.027 103.866 153.364 103.685 153.731 103.612C154.098 103.538 154.479 103.575 154.825 103.718C155.171 103.861 155.467 104.104 155.675 104.415C155.883 104.727 155.995 105.093 155.995 105.467C155.995 105.715 155.947 105.961 155.852 106.191C155.758 106.42 155.619 106.629 155.444 106.805C155.268 106.981 155.06 107.12 154.831 107.215C154.601 107.31 154.356 107.359 154.107 107.359V107.359Z" fill="#BE0316"/>
<path fill-rule="evenodd" clip-rule="evenodd" d="M98.8253 100.447C99.5279 98.6979 101.133 97.9646 102.989 97.9287C106.295 97.862 108.077 101.006 107.382 104.098C106.538 107.829 101.551 112.359 98.8202 114.959C96.1381 112.47 91.2022 108.09 90.374 104.447C89.6792 101.37 91.4253 98.1671 94.7689 98.1004C96.6304 98.0645 98.1253 98.7338 98.8253 100.454V100.447Z" fill="white"/>
</svg>
