<svg width="59" height="59" viewBox="0 0 59 59" fill="none" xmlns="http://www.w3.org/2000/svg">
<path d="M44.4833 3.50501C46.45 6.32101 44.1441 10.8852 47.0625 13.0029C49.9031 15.0641 53.393 11.6855 56.0705 13.4596C60.042 16.0919 59.3166 28.1357 53.5105 35.6189C51.7642 37.8695 50.3054 38.745 49.659 41.2903C48.2714 46.7553 53.147 50.0061 52.219 52.7092C50.1294 58.7953 17.9918 63.9021 5.09672 45.6116C-0.925999 37.0676 -1.82712 24.7338 3.554 15.3652C13.2778 -1.56411 40.0702 -2.81243 44.4833 3.50501Z" fill="#F9EFE4"/>
<path d="M12.4074 39.1633C12.3939 39.1634 12.3803 39.1626 12.3668 39.1611C12.2766 39.1498 12.1927 39.1088 12.1283 39.0446C12.0639 38.9805 12.0226 38.8967 12.011 38.8065L9.7524 23.4212L7.4164 34.5412C7.39896 34.6292 7.35326 34.7091 7.28626 34.7687C7.21925 34.8283 7.1346 34.8644 7.0452 34.8715C6.95459 34.8772 6.86453 34.8538 6.78822 34.8046C6.71191 34.7554 6.65337 34.6831 6.6212 34.5982L4.56584 29.3822L3.36264 31.7844C3.32718 31.8554 3.27219 31.9147 3.20416 31.9554C3.13613 31.9961 3.05788 32.0165 2.97864 32.0142L0.498317 31.9457C0.381115 31.9415 0.270052 31.8923 0.188265 31.8082C0.106478 31.7242 0.0602732 31.6118 0.059277 31.4945C0.0588488 31.4372 0.0700343 31.3804 0.0921588 31.3276C0.114283 31.2747 0.146888 31.2268 0.188006 31.1869C0.229125 31.147 0.277904 31.1158 0.331402 31.0953C0.384899 31.0747 0.442006 31.0652 0.499277 31.0673L2.71272 31.1358L4.22472 28.1252C4.26109 28.0527 4.31842 27.9927 4.38929 27.9531C4.46016 27.9135 4.54129 27.8961 4.62216 27.9032C4.70535 27.9111 4.78468 27.9421 4.85131 27.9926C4.91793 28.043 4.96921 28.111 4.99944 28.1889L6.88552 32.9908L9.41928 20.9665C9.43671 20.873 9.48892 20.7896 9.56539 20.733C9.64185 20.6764 9.73691 20.6509 9.83144 20.6616C9.93008 20.6744 10.0218 20.7192 10.0924 20.7892C10.1631 20.8593 10.2088 20.9506 10.2225 21.0491L12.5678 37.0782L15.2007 29.6334C15.2261 29.557 15.2755 29.4908 15.3415 29.4447C15.4075 29.3986 15.4866 29.375 15.5671 29.3774C15.6496 29.3828 15.7285 29.4128 15.7936 29.4636C15.8588 29.5144 15.9072 29.5836 15.9326 29.6622L17.145 33.1905L18.6049 29.5819C18.631 29.5129 18.6775 29.4535 18.7382 29.4116C18.7989 29.3696 18.8709 29.3472 18.9447 29.3473C19.0198 29.3501 19.0925 29.3741 19.1544 29.4166C19.2163 29.4591 19.2649 29.5183 19.2945 29.5873L20.2458 31.6779L24.9335 31.8232L25.9895 29.2312C26.0144 29.1644 26.0596 29.1072 26.1187 29.0675C26.1779 29.0278 26.2479 29.0076 26.3191 29.0097C26.3923 29.0162 26.4621 29.0439 26.5198 29.0893C26.5775 29.1348 26.6208 29.1961 26.6442 29.2657L28.1844 33.371L30.1847 22.7771C30.2167 22.5985 30.3591 22.4798 30.522 22.4916H30.5274C30.6922 22.5067 30.8318 22.6516 30.8606 22.8369L33.075 37.2136L35.0615 30.4113C35.1047 30.2635 35.2215 30.1646 35.3588 30.1624C35.4961 30.1601 35.6209 30.2552 35.6759 30.4008L36.9476 33.7608L38.2049 30.4968C38.224 30.44 38.259 30.3899 38.3057 30.3524C38.3525 30.3149 38.409 30.2916 38.4686 30.2852C38.5287 30.2834 38.5882 30.2985 38.6402 30.3289C38.6921 30.3593 38.7345 30.4037 38.7623 30.4571L39.8145 32.2811L43.4561 32.3937L44.4695 30.1307C44.4917 30.0752 44.5304 30.0278 44.5805 29.9951C44.6305 29.9624 44.6894 29.9459 44.7492 29.948C44.8654 29.9582 44.9687 30.0475 45.0151 30.1777L46.3226 33.8392L48.0273 24.0385C48.0564 23.8712 48.1777 23.7537 48.3207 23.7739C48.4618 23.7876 48.5806 23.9224 48.6036 24.0939L50.378 37.2881L51.5066 32.8926C51.5441 32.7467 51.6538 32.65 51.7777 32.6539L58.1642 32.8516C58.3114 32.8561 58.4308 33.0116 58.4308 33.2036C58.4308 33.3956 58.3114 33.5432 58.1642 33.539L51.9854 33.3685L50.5649 38.916C50.5249 39.0728 50.4017 39.1758 50.2705 39.1633C50.1393 39.1509 50.0286 39.0289 50.0065 38.8661L48.281 26.0724L46.713 35.1089C46.6865 35.2625 46.5809 35.3764 46.4519 35.3902C46.323 35.404 46.1994 35.3147 46.1473 35.1691L44.7102 31.1563L43.9102 32.9502C43.857 33.0689 43.753 33.1422 43.6398 33.138L39.6471 33.028C39.5927 33.0246 39.5402 33.0073 39.4944 32.9778C39.4486 32.9483 39.4112 32.9075 39.3857 32.8593L38.5578 31.4305L37.2423 34.8545C37.1902 34.9899 37.074 35.076 36.9454 35.0734C36.8167 35.0708 36.6999 34.9809 36.6478 34.843L35.4167 31.5998L33.291 38.9006C33.2423 39.0677 33.1015 39.1761 32.947 39.1627C32.7924 39.1493 32.6663 39.0187 32.6394 38.8446L30.49 24.9304L28.6382 34.7678C28.6062 34.9352 28.4817 35.0584 28.3294 35.0725C28.177 35.0865 28.0321 34.9877 27.9719 34.828L26.3079 30.4027L25.4967 32.4004C25.472 32.4676 25.4272 32.5254 25.3683 32.5661C25.3095 32.6067 25.2396 32.6282 25.1681 32.6276L20.0119 32.4865C19.9394 32.4829 19.8694 32.4589 19.8099 32.4174C19.7504 32.3758 19.7037 32.3184 19.6753 32.2516L18.9806 30.7307L17.4727 34.4705C17.4453 34.544 17.3955 34.607 17.3303 34.6505C17.2651 34.694 17.1879 34.7159 17.1095 34.7131C17.03 34.7078 16.9539 34.6786 16.8911 34.6295C16.8283 34.5804 16.7818 34.5135 16.7575 34.4376L15.5684 30.986L12.7822 38.8901C12.7557 38.9688 12.7055 39.0375 12.6384 39.0864C12.5712 39.1354 12.4905 39.1623 12.4074 39.1633Z" fill="url(#paint0_linear)"/>
<path d="M15.3927 23.8994C15.3927 23.8994 17.6276 21.3666 17.7767 14.6623C17.9258 7.95796 16.7329 7.06388 18.6695 6.46804C20.6061 5.8722 22.2452 5.87188 22.6922 7.3618C23.1393 8.85172 22.8413 16.301 24.778 19.7279C26.7146 23.1548 15.3927 23.8994 15.3927 23.8994Z" fill="url(#paint1_linear)"/>
<path d="M31.0356 25.0914C31.0356 25.0914 26.2676 22.8565 24.033 20.0258C21.7985 17.1951 21.0535 6.76595 28.8007 4.82899C36.5479 2.89203 38.0378 10.4908 38.187 12.5765C38.3361 14.6623 34.9092 15.556 34.9092 15.556L38.4849 17.3442C38.4849 17.3442 43.9975 19.4306 42.6567 28.0706C41.3159 36.7106 31.0356 25.0914 31.0356 25.0914Z" fill="url(#paint2_linear)"/>
<path style="mix-blend-mode:multiply" opacity="0.3" d="M39.677 20.6214C38.7067 20.1155 38.2328 20.5209 36.6971 19.8765C34.0731 18.7757 33.5723 16.8013 30.7377 13.1721C27.6097 9.16735 26.1848 8.96639 26.268 7.51071C26.3176 6.64319 26.8741 5.86655 27.6993 5.18335C21.1329 7.79391 21.9105 17.3369 24.0331 20.0256C26.268 22.8563 31.0357 25.0912 31.0357 25.0912C31.0357 25.0912 40.2434 35.4982 42.3662 29.2857C42.4418 23.4979 41.1147 21.3715 39.677 20.6214Z" fill="url(#paint3_linear)"/>
<path d="M25.3741 22.5585C25.3741 22.5585 26.8637 12.5764 35.505 10.7885C44.1463 9.0007 43.8484 10.1924 44.145 11.5335C44.4417 12.8746 43.1047 13.6193 39.9748 14.2145C36.8449 14.8097 31.9293 18.833 36.25 27.3255L25.3741 22.5585Z" fill="url(#paint4_linear)"/>
<path style="mix-blend-mode:multiply" opacity="0.3" d="M43.2718 10.0864C42.8498 10.7338 42.3421 11.3211 41.7627 11.8323C38.8023 14.4295 35.6705 13.4243 32.9723 15.1101C31.266 16.176 29.4331 18.5069 28.9323 24.1194L36.25 27.3271C31.93 18.8346 36.8462 14.8122 39.9748 14.216C43.1035 13.6199 44.4446 12.8752 44.1464 11.5344C44.0145 10.9392 43.9988 10.3744 43.2718 10.0864Z" fill="url(#paint5_linear)"/>
<path d="M19.8616 18.6849C15.5348 20.3079 13.3976 25.5009 13.1572 29.4119C12.7368 36.2625 18.0059 41.2417 20.3086 43.4167C23.3371 46.2775 26.6913 47.9038 27.907 48.4823C30.4324 49.6849 30.7185 49.3994 35.5051 51.313C40.2363 53.2042 40.7713 53.809 42.0606 53.5479C45.3784 52.8759 46.946 47.8452 47.7224 45.3537C49.3406 40.1585 50.4558 30.6238 45.3384 26.5812C44.0804 25.5873 42.6824 25.1118 40.8689 24.4955C36.2792 22.9348 35.2846 24.234 32.0785 22.8564C28.4945 21.3172 28.5243 19.1735 25.076 18.387C24.5086 18.2574 22.2308 17.7959 19.8616 18.6849Z" fill="url(#paint6_linear)"/>
<path style="mix-blend-mode:multiply" opacity="0.3" d="M35.6542 44.7574C33.0033 41.5203 33.1739 39.6256 29.9928 37.159C24.5912 32.9712 19.7176 35.0365 17.4779 31.1997C16.0497 28.7536 16.3076 24.9638 18.0737 23.1542C19.5204 21.672 21.3313 22.1833 22.2452 20.7705C22.7099 20.0525 22.7483 19.1385 22.5403 18.1597C21.7294 18.1917 20.8027 18.3315 19.8616 18.6848C15.5348 20.3078 13.3976 25.5008 13.1572 29.4118C12.7368 36.2624 18.0059 41.2416 20.3086 43.4166C23.3371 46.2774 26.6913 47.9037 27.907 48.4822C30.4324 49.6848 30.7185 49.3993 35.5051 51.3129C40.2363 53.2041 40.7713 53.8089 42.0606 53.5478C43.2811 53.3011 44.2641 52.4633 45.0587 51.3795C40.3412 49.4784 37.4804 46.9875 35.6542 44.7574Z" fill="url(#paint7_linear)"/>
<g style="mix-blend-mode:soft-light">
<path d="M44.6609 44.8774C45.5953 42.3715 45.8405 39.5708 45.275 36.9056C44.9896 35.5817 44.5662 34.2835 43.963 33.0617L43.7345 32.6048C43.659 32.4521 43.5681 32.3072 43.4853 32.1568C43.4024 32.0064 43.3176 31.8598 43.2293 31.7136L42.9477 31.2848C42.8516 31.1436 42.7646 30.9968 42.6568 30.862L42.3432 30.4547C42.1425 30.1763 41.9025 29.9292 41.676 29.6716C41.4558 29.4073 41.1924 29.1836 40.947 28.9427C40.7064 28.696 40.4244 28.4947 40.1595 28.2761C39.8931 28.0574 39.6127 27.8564 39.3201 27.6742C39.0321 27.4857 38.7316 27.3161 38.4289 27.1536C37.8237 26.8341 37.1951 26.561 36.5486 26.3366C35.9086 26.1126 35.2596 25.9276 34.6231 25.7488C33.9867 25.5699 33.3559 25.4044 32.7767 25.167C32.1975 24.9296 31.6731 24.623 31.3083 24.1574C30.9435 23.6918 30.7163 23.1014 30.6523 22.486C30.6366 22.3552 30.6289 22.2227 30.6257 22.0892C30.4715 21.9907 30.3262 21.8905 30.1879 21.79C30.1544 22.0318 30.1402 22.2759 30.1454 22.52C30.1665 23.2208 30.3531 23.9427 30.779 24.5491C30.991 24.85 31.2493 25.1154 31.5444 25.3353C31.8312 25.5482 32.1402 25.7293 32.466 25.8755C33.1019 26.1673 33.746 26.3718 34.378 26.5724L34.4081 26.582H34.3886C34.4305 27.9388 34.7233 29.3049 35.3192 30.5315C35.6166 31.1434 35.9853 31.7179 36.4177 32.2432C36.8462 32.768 37.3374 33.2201 37.7976 33.6656C38.2577 34.111 38.6804 34.5654 38.9537 35.1129C39.2373 35.664 39.3906 36.2728 39.4017 36.8924C39.4086 37.2069 39.3895 37.5213 39.3448 37.8326C39.2962 38.147 39.227 38.4579 39.1374 38.7632C38.9549 39.3797 38.7147 39.9776 38.42 40.5491L38.5508 40.6201C38.8844 40.0553 39.1639 39.4602 39.3857 38.8428C39.4969 38.5309 39.5873 38.2119 39.6564 37.888C39.7229 37.5599 39.7622 37.227 39.7739 36.8924C39.7993 36.209 39.6679 35.5288 39.3899 34.904C39.116 34.2678 38.666 33.7331 38.2248 33.2508C37.7835 32.7686 37.3387 32.3116 36.9742 31.8073C36.609 31.3077 36.3039 30.7668 36.0654 30.1958C35.6328 29.1561 35.4369 28.0339 35.4292 26.9094C36.3185 27.2092 37.1768 27.5472 37.9844 27.984C38.5448 28.2847 39.077 28.635 39.5748 29.0307C39.8203 29.232 40.083 29.4147 40.3064 29.6412C40.5342 29.863 40.7803 30.0665 40.9857 30.3116C41.1976 30.5497 41.4228 30.776 41.611 31.0352L41.906 31.4128C42.0081 31.5356 42.0878 31.6755 42.1816 31.8051L42.4539 32.2009C42.5393 32.3363 42.6193 32.4755 42.7025 32.6128C42.7857 32.75 42.8721 32.8854 42.9461 33.0288L43.1701 33.456L43.2824 33.6694L43.3835 33.8889L43.5857 34.3276C43.6497 34.4752 43.708 34.6262 43.7697 34.7756C43.8315 34.9251 43.8949 35.0732 43.947 35.2259C44.1755 35.831 44.3679 36.4492 44.523 37.0771C45.156 39.5782 45.067 42.2547 44.3774 44.7862L44.6609 44.8774Z" fill="white"/>
</g>
<g style="mix-blend-mode:soft-light">
<path d="M28.594 22.6981C28.758 22.347 28.8601 21.9703 28.8961 21.5845C28.9254 21.2843 28.9223 20.9819 28.8868 20.6824C28.7268 20.5304 28.5707 20.3803 28.4145 20.2344C28.4119 20.3211 28.4107 20.4088 28.4068 20.4949C28.3908 20.8313 28.3519 21.1663 28.2903 21.4974C28.1643 22.1403 27.9086 22.74 27.4455 23.1515C26.9911 23.5675 26.3476 23.7425 25.6743 23.8273C24.9979 23.9182 24.2846 23.9368 23.5623 24.0389C22.8401 24.1409 22.099 24.3377 21.4551 24.7429C21.1346 24.9432 20.8437 25.1875 20.5911 25.4686C20.3436 25.748 20.1315 26.0569 19.9598 26.3883C19.7885 26.7128 19.6506 27.0539 19.5482 27.4062C19.4451 27.7526 19.3647 28.1054 19.3076 28.4622C19.2044 29.1702 19.1655 29.8861 19.1914 30.6011L19.3402 30.6034C19.3873 29.8994 19.4708 29.2014 19.6228 28.5234C19.6985 28.1858 19.7962 27.8536 19.9153 27.5288C20.0301 27.2075 20.1748 26.8977 20.3473 26.6033C20.6881 26.02 21.1598 25.5291 21.7313 25.2005C22.3028 24.8718 22.9623 24.7157 23.6404 24.6325C23.7754 24.6161 23.9124 24.6046 24.0497 24.5934C24.2436 25.1011 24.3175 25.6467 24.2657 26.1877C24.2315 26.5067 24.1562 26.82 24.0417 27.1198C23.9281 27.4283 23.777 27.7326 23.6324 28.059C23.4894 28.379 23.3505 28.7515 23.3636 29.1541C23.3687 29.556 23.561 29.9301 23.8116 30.2024C24.0622 30.4747 24.3662 30.6824 24.6775 30.8517C24.9894 31.0147 25.3132 31.1538 25.6462 31.2677L25.7006 31.1288C25.3874 30.992 25.0851 30.8315 24.7962 30.6488C24.5134 30.4654 24.25 30.251 24.0551 29.997C23.8602 29.7429 23.7438 29.4475 23.7655 29.1509C23.7799 28.8552 23.9076 28.564 24.0698 28.2686C24.2321 27.9733 24.4135 27.6693 24.5671 27.3384C24.7276 27.0016 24.8441 26.6457 24.9137 26.2792C25.0174 25.7004 24.9987 25.1063 24.859 24.5352C25.154 24.5173 25.4526 24.4974 25.755 24.4632C26.1188 24.4171 26.491 24.3534 26.8571 24.2264C27.2231 24.0993 27.5835 23.9112 27.8811 23.6424C28.1796 23.3786 28.4221 23.0574 28.594 22.6981V22.6981Z" fill="white"/>
</g>
<path d="M33.7659 56.8259C31.4568 56.8259 28.7339 56.447 26.1288 55.6819C22.5653 54.6349 20.1301 52.7353 17.9816 51.0592C15.8875 49.4272 14.0792 48.015 11.7675 47.8294L11.8245 47.1206C14.3483 47.3235 16.2347 48.7949 18.419 50.4989C20.5173 52.1357 22.8958 53.991 26.3291 54.9997C31.8418 56.6192 37.3723 56.3334 38.635 54.9961C38.8539 54.7645 38.9093 54.5257 38.8088 54.2454C38.3208 52.88 35.3925 52.9033 32.5602 52.9254C31.1778 52.9363 29.7477 52.9475 28.4818 52.8112C27.2747 52.6809 26.4338 52.2121 25.9822 51.4176C25.1035 49.8723 26.0821 47.695 26.1243 47.6032L26.7704 47.8992L26.4472 47.751L26.7707 47.8988C26.7621 47.918 25.9013 49.8403 26.6011 51.0669C26.9339 51.6505 27.5931 51.999 28.5579 52.1033C29.7829 52.2355 31.1918 52.2243 32.5547 52.2134C35.7774 52.1881 38.8206 52.1641 39.4786 54.0054C39.6706 54.5427 39.5576 55.0541 39.1518 55.4835C38.3109 56.375 36.2846 56.8256 33.7659 56.8259Z" fill="url(#paint8_linear)"/>
<path d="M5.34026 46.7681C4.67274 50.3726 7.06314 53.6385 10.755 54.0683C14.531 54.5096 18.2209 51.8302 18.9172 48.075C19.6135 44.3198 17.0292 41.035 13.2247 40.747C9.50474 40.4654 6.00874 43.1633 5.34026 46.7681Z" fill="url(#paint9_linear)"/>
<path d="M5.28061 46.8391C4.62717 50.4138 6.96509 53.6513 10.5747 54.0788C14.2669 54.5159 17.8742 51.8593 18.5552 48.1351C19.2361 44.4109 16.7097 41.1552 12.9897 40.8704C9.35325 40.5888 5.93437 43.2644 5.28061 46.8391Z" fill="url(#paint10_linear)"/>
<path d="M5.85441 46.8951C5.25857 50.1543 7.39361 53.1031 10.6835 53.4871C14.0419 53.8785 17.3171 51.4593 17.9357 48.0762C18.5543 44.6932 16.2624 41.7303 12.8816 41.4637C9.56866 41.201 6.45025 43.6356 5.85441 46.8951Z" fill="url(#paint11_linear)"/>
<g style="mix-blend-mode:soft-light" opacity="0.4">
<path d="M7.29661 47.036C6.84573 49.5022 8.46813 51.7243 10.9545 52.0024C13.48 52.2849 15.9321 50.4609 16.3945 47.9243C16.8569 45.3876 15.1465 43.1563 12.6089 42.9454C10.1126 42.7367 7.74749 44.5694 7.29661 47.036Z" fill="white"/>
</g>
<g style="mix-blend-mode:soft-light" opacity="0.5">
<path d="M9.72877 47.2732C9.52237 48.4019 10.2699 49.4121 11.4052 49.5302C12.5489 49.6495 13.6513 48.8198 13.8603 47.6767C14.0692 46.5337 13.3035 45.5216 12.1572 45.4172C11.0203 45.3132 9.93613 46.1446 9.72877 47.2732Z" fill="#F4F7FA"/>
</g>
<g style="mix-blend-mode:soft-light" opacity="0.3">
<path d="M8.44462 51.8302C9.91182 50.147 8.90606 48.5194 10.3054 46.8951C12.0856 44.8282 14.9806 45.9908 16.2113 44.1038C16.3876 43.8303 16.5117 43.5265 16.5771 43.2078C17.7224 44.4378 18.2798 46.1905 17.9358 48.0737C17.3173 51.4567 14.0421 53.8759 10.6837 53.4846C9.6075 53.3591 8.65518 52.9591 7.8811 52.3646C8.08521 52.2044 8.27387 52.0255 8.44462 51.8302V51.8302Z" fill="#F4F7FA"/>
</g>
<path d="M36.0103 21.5545L36.4387 21.5264C37.0426 21.5158 37.6016 21.0512 37.6867 20.4886L37.7165 20.288C37.8 19.7254 37.3751 19.2825 36.7706 19.2985L36.0522 19.3411C35.4583 19.3571 34.033 19.8188 33.9507 20.3728L33.9216 20.5705C33.8378 21.1244 35.417 21.5648 36.0103 21.5545Z" fill="url(#paint12_linear)"/>
<path d="M27.8499 46.2146L33.7485 42.9022C35.2259 42.0739 36.5054 40.934 37.4983 39.5617C38.4778 38.1966 39.1223 36.636 39.3565 35.0545L40.9927 24.0235C41.3127 21.8692 39.7495 20.1422 37.5047 20.044C37.4184 20.0406 37.334 20.0693 37.2677 20.1245C37.2013 20.1797 37.1577 20.2574 37.1453 20.3428L37.1252 20.4801C37.1184 20.5277 37.1214 20.5761 37.134 20.6225C37.1466 20.6688 37.1686 20.7121 37.1986 20.7496C37.2285 20.7871 37.2659 20.8181 37.3083 20.8407C37.3507 20.8632 37.3973 20.8769 37.4452 20.8808C39.1524 21.0228 40.3194 22.3681 40.073 24.0302L38.4436 35.0206C38.0087 37.9525 36.0797 40.6462 33.3287 42.2005L27.4515 45.5214L27.8499 46.2146Z" fill="white"/>
<path d="M27.5463 46.5716C27.7033 46.5848 27.8606 46.5505 27.9978 46.473L33.9047 43.1639C35.4301 42.3101 36.7513 41.1345 37.7767 39.7188C38.7885 38.3107 39.4541 36.6992 39.6967 35.0672C39.7568 34.6618 39.4477 34.321 39.0077 34.3059C38.5677 34.2909 38.1668 34.6055 38.1069 35.0099C37.6874 37.8391 35.8272 40.44 33.1735 41.9431L27.304 45.2669C26.9469 45.4695 26.8119 45.9021 27.0023 46.2349C27.059 46.3309 27.1381 46.4116 27.2328 46.4703C27.3276 46.5289 27.4351 46.5637 27.5463 46.5716V46.5716Z" fill="url(#paint13_linear)"/>
<path d="M25.4052 46.0056L25.9889 45.3999L21.4913 41.4024C19.5162 39.6469 18.5943 37.0021 18.9953 34.3006L20.4967 24.1736C20.7402 22.5317 22.2926 21.1682 23.9787 21.1336L24.0951 20.3496C21.9732 20.3995 20.0266 22.1173 19.721 24.1791L18.2247 34.2715C18.0103 35.7183 18.1399 37.1835 18.6017 38.5109C19.0688 39.8535 19.8696 41.0553 20.9287 42.0034L25.4052 46.0056Z" fill="white"/>
<path d="M25.5928 46.4008C25.7075 46.4101 25.8229 46.3939 25.9306 46.3532C26.0383 46.3125 26.1356 46.2484 26.2155 46.1656C26.4974 45.8741 26.4926 45.4296 26.2053 45.1736L21.6997 41.1781C19.787 39.4821 18.8933 36.9221 19.2808 34.3096C19.3361 33.9374 19.0792 33.6254 18.7083 33.6129C18.3374 33.6005 17.9953 33.8901 17.9403 34.26C17.7195 35.7493 17.8523 37.2565 18.3272 38.6248C18.8078 40.0077 19.6317 41.2458 20.7217 42.2232L25.1899 46.2273C25.3018 46.3274 25.4432 46.3883 25.5928 46.4008Z" fill="url(#paint14_linear)"/>
<path d="M25.1283 21.7133L24.3654 21.7393C23.8214 21.7489 23.4474 21.3268 23.5261 20.7965L23.5539 20.6074C23.6326 20.0772 24.1354 19.6356 24.6794 19.6212L25.3306 19.5822C25.8838 19.5674 27.0819 19.9914 27.0022 20.5297L26.9738 20.7217C26.9488 21.5444 25.681 21.7025 25.1283 21.7133Z" fill="url(#paint15_linear)"/>
<path d="M26.5092 46.9095C27.4277 46.9872 28.346 46.7578 29.1201 46.2573L30.2635 45.5245C30.7588 45.2074 30.9105 44.5831 30.6014 44.1325C30.2923 43.682 29.6462 43.5792 29.1556 43.8977L28.0235 44.6337C27.2721 45.1217 26.3025 45.0458 25.7166 44.4583L24.827 43.5664C24.4548 43.193 23.8222 43.2045 23.4145 43.5898C23.0068 43.9751 22.9761 44.5866 23.3438 44.9604L24.2219 45.8535C24.8328 46.4749 25.6478 46.8324 26.5092 46.9095Z" fill="url(#paint16_linear)"/>
<path d="M26.0903 49.6903C26.6497 49.7473 27.1703 49.3524 27.2509 48.8084L27.6669 46.0148C27.7476 45.4708 27.3562 44.993 26.7953 44.9476C26.2343 44.9022 25.7213 45.3031 25.6413 45.8436L25.2308 48.6132C25.1492 49.1514 25.5335 49.634 26.0903 49.6903Z" fill="url(#paint17_linear)"/>
<path d="M25.9869 20.6099C25.9229 20.9146 26.0509 21.1971 26.2666 21.2416C26.4823 21.2861 26.7092 21.0749 26.7716 20.7703C26.834 20.4656 26.7076 20.1831 26.4919 20.1389C26.2762 20.0947 26.0487 20.3056 25.9869 20.6099Z" fill="url(#paint18_linear)"/>
<defs>
<linearGradient id="paint0_linear" x1="0.059277" y1="29.9121" x2="58.4308" y2="29.9121" gradientUnits="userSpaceOnUse">
<stop stop-color="#E4D6CA"/>
<stop offset="1" stop-color="#D4BDAC"/>
</linearGradient>
<linearGradient id="paint1_linear" x1="15.3917" y1="14.9976" x2="25.001" y2="14.9976" gradientUnits="userSpaceOnUse">
<stop stop-color="#830707"/>
<stop offset="1" stop-color="#F89F8A"/>
</linearGradient>
<linearGradient id="paint2_linear" x1="45.5105" y1="4.59699" x2="33.9889" y2="18.006" gradientUnits="userSpaceOnUse">
<stop stop-color="#830707"/>
<stop offset="1" stop-color="#E68273"/>
</linearGradient>
<linearGradient id="paint3_linear" x1="34911.4" y1="12587.1" x2="25481.9" y2="20941.7" gradientUnits="userSpaceOnUse">
<stop stop-color="#830707"/>
<stop offset="1" stop-color="#E68273"/>
</linearGradient>
<linearGradient id="paint4_linear" x1="28055.5" y1="10914.3" x2="24152.8" y2="26384.5" gradientUnits="userSpaceOnUse">
<stop stop-color="#830707"/>
<stop offset="1" stop-color="#F89F8A"/>
</linearGradient>
<linearGradient id="paint5_linear" x1="23572.7" y1="11038.9" x2="19002.9" y2="25899.2" gradientUnits="userSpaceOnUse">
<stop stop-color="#F6AF9A"/>
<stop offset="1" stop-color="#F89F8A"/>
</linearGradient>
<linearGradient id="paint6_linear" x1="46393.3" y1="34435.8" x2="48129.9" y2="77245.7" gradientUnits="userSpaceOnUse">
<stop stop-color="#830707"/>
<stop offset="1" stop-color="#F89F8A"/>
</linearGradient>
<linearGradient id="paint7_linear" x1="38890.3" y1="34533.6" x2="40843.9" y2="77314.8" gradientUnits="userSpaceOnUse">
<stop stop-color="#830707"/>
<stop offset="1" stop-color="#C13535"/>
</linearGradient>
<linearGradient id="paint8_linear" x1="11.7675" y1="51.9734" x2="39.5694" y2="51.9734" gradientUnits="userSpaceOnUse">
<stop stop-color="#D3C5CB"/>
<stop offset="1" stop-color="#ADA0A6"/>
</linearGradient>
<linearGradient id="paint9_linear" x1="18.0155" y1="48.7812" x2="5.75338" y2="45.9483" gradientUnits="userSpaceOnUse">
<stop stop-color="#5D535A"/>
<stop offset="1" stop-color="#464143"/>
</linearGradient>
<linearGradient id="paint10_linear" x1="17.6765" y1="48.817" x2="5.68221" y2="46.0461" gradientUnits="userSpaceOnUse">
<stop stop-color="#96888E"/>
<stop offset="1" stop-color="#706369"/>
</linearGradient>
<linearGradient id="paint11_linear" x1="7755.35" y1="19602.4" x2="9257.99" y2="23712.4" gradientUnits="userSpaceOnUse">
<stop stop-color="#D3C5CB"/>
<stop offset="1" stop-color="#ADA0A6"/>
</linearGradient>
<linearGradient id="paint12_linear" x1="-2071.37" y1="2224.29" x2="-2508.21" y2="2158.76" gradientUnits="userSpaceOnUse">
<stop stop-color="#5D535A"/>
<stop offset="1" stop-color="#464143"/>
</linearGradient>
<linearGradient id="paint13_linear" x1="-9368.02" y1="17068.9" x2="-8456.81" y2="23903.8" gradientUnits="userSpaceOnUse">
<stop stop-color="#96888E"/>
<stop offset="1" stop-color="#706369"/>
</linearGradient>
<linearGradient id="paint14_linear" x1="-10240.8" y1="18080.7" x2="-8755.5" y2="25336.3" gradientUnits="userSpaceOnUse">
<stop stop-color="#96888E"/>
<stop offset="1" stop-color="#706369"/>
</linearGradient>
<linearGradient id="paint15_linear" x1="5630.18" y1="2195.45" x2="6001.44" y2="1900.59" gradientUnits="userSpaceOnUse">
<stop stop-color="#5D535A"/>
<stop offset="1" stop-color="#464143"/>
</linearGradient>
<linearGradient id="paint16_linear" x1="6352.78" y1="5367.83" x2="9364.52" y2="10194.5" gradientUnits="userSpaceOnUse">
<stop stop-color="#5D535A"/>
<stop offset="1" stop-color="#464143"/>
</linearGradient>
<linearGradient id="paint17_linear" x1="2779.18" y1="7990.03" x2="2961.96" y2="8326.11" gradientUnits="userSpaceOnUse">
<stop stop-color="#5D535A"/>
<stop offset="1" stop-color="#464143"/>
</linearGradient>
<linearGradient id="paint18_linear" x1="26.7818" y1="20.7865" x2="25.9971" y2="20.6264" gradientUnits="userSpaceOnUse">
<stop stop-color="#3B3138"/>
<stop offset="1" stop-color="#241F21"/>
</linearGradient>
</defs>
</svg>
