<svg width="51" height="65" viewBox="0 0 51 65" fill="none" xmlns="http://www.w3.org/2000/svg">
<path d="M18.253 5.07139C18.3712 5.86039 18.5362 6.64165 18.7472 7.41104C18.9063 8.00852 19.0431 8.62554 19.2525 9.20905C19.4113 9.75563 19.7447 10.2352 20.2018 10.5743C20.7098 10.8415 21.2899 10.9394 21.8574 10.8535C22.5694 10.7893 23.2785 10.6776 23.9849 10.5743C24.3618 10.5213 24.7387 10.4738 25.1017 10.4012C25.3473 10.3253 25.6043 10.2932 25.8611 10.3063C25.9384 10.323 26.019 10.3142 26.0909 10.2812C26.1628 10.2483 26.2221 10.1929 26.2598 10.1233C26.2976 10.0538 26.3118 9.97395 26.3003 9.89569C26.2888 9.81743 26.2522 9.745 26.1961 9.68927C26.2268 8.57249 25.7857 7.55902 25.4897 6.51762C25.2357 5.62699 25.1072 4.70286 24.7555 3.84294C24.1301 2.29062 22.1589 0.989571 20.9221 0.626618C19.9031 0.347424 18.8645 0.464686 18.4401 1.50608C17.999 2.59215 18.0967 3.94345 18.253 5.07139Z" fill="#FEB69F"/>
<path d="M1.20822 27.5216C0.662215 25.8374 0.288049 24.1022 0.0914434 22.3426C-0.0676974 20.9466 -0.18775 19.2044 1.25848 18.4338C2.45343 17.7833 3.97783 17.9843 5.09461 18.713C6.34819 19.5199 7.18298 20.9159 7.66599 22.3119V22.3454V22.3761V22.3956C7.85304 23.5236 8.67946 24.4644 9.37186 25.3272C10.1843 26.3462 10.9465 27.4044 11.759 28.4262C13.4816 30.5844 15.3159 32.6895 17.0665 34.803C18.817 36.9165 20.5424 39.0412 22.2176 41.2245C23.0691 42.3441 23.9067 43.4776 24.7164 44.6307C25.5218 45.723 26.2675 46.8582 26.9499 48.0312C28.1588 50.2397 28.7479 52.6826 29.3343 55.1144C29.5185 55.1395 29.7056 55.1675 29.8926 55.201C30.5376 55.3182 31.1714 55.4606 31.8023 55.6393C32.9799 55.9661 34.1134 56.4348 35.1778 57.0353C35.1359 57.0967 35.094 57.1609 35.0577 57.2251C34.6054 57.9817 33.8042 60.1427 33.6366 60.5559C32.9973 62.1361 32.4026 64.1045 32.3356 64.3334L5.80097 60.944C5.88752 59.9919 5.97127 59.0427 6.03828 58.0906C4.97652 57.0895 4.09282 55.915 3.42502 54.6174C2.9871 53.8398 2.64225 53.0132 2.39759 52.1549C2.16918 51.2536 2.01695 50.3346 1.9425 49.4077C1.74427 47.3751 1.61864 45.3258 1.54325 43.2821C1.48742 42.2247 1.48742 41.1651 1.54325 40.1077C1.61026 39.0635 1.74427 38.0277 1.83641 36.9863C1.93971 35.8109 2.01788 34.6243 2.09047 33.4489C2.11281 32.8542 2.09327 32.2568 2.11281 31.6621C2.13515 31.006 1.74986 29.1828 1.20822 27.5216Z" fill="#FEB69F"/>
<path d="M4.05044 25.7207C3.98251 28.9325 4.43797 32.1339 5.39895 35.1993C6.71395 39.3649 10.4049 43.1452 14.7129 44.1336C16.1422 44.4347 17.6031 44.5584 19.0627 44.5021C20.6178 44.4714 22.1646 44.3597 23.7085 44.1838C26.5312 43.86 29.3482 43.3462 31.9419 42.1569C33.1397 41.5986 34.2876 40.9392 35.3733 40.1858C36.4733 39.4263 37.4979 38.5692 38.5616 37.7624C40.597 36.2212 42.7216 34.6912 44.1176 32.5107C44.1363 32.4822 44.1487 32.45 44.154 32.4163C44.1593 32.3826 44.1574 32.3482 44.1483 32.3153C44.313 32.0919 44.4778 31.8658 44.6313 31.634C45.8877 29.7523 46.4991 27.5327 46.8649 25.3187C47.2341 22.9496 47.0816 20.5284 46.4182 18.2243C45.906 16.1049 44.8712 14.1475 43.4081 12.5308C41.945 10.9141 40.1003 9.68957 38.0423 8.96905C36.9535 8.55025 35.8395 8.20964 34.7367 7.83552C33.6339 7.46139 32.5618 6.95885 31.4785 6.50376C30.4504 6.04088 29.3554 5.74403 28.2342 5.6243C27.1163 5.55391 25.9949 5.68924 24.9258 6.02354C23.7726 6.39126 22.6394 6.81901 21.5308 7.30505C20.3805 7.77968 19.2358 8.26548 18.0995 8.77082C15.785 9.79546 13.4956 10.8899 11.2592 12.0765C9.52544 12.9978 7.83911 14.0085 6.48502 15.4547C5.25985 16.736 4.53815 18.4164 4.45248 20.1871C4.41227 20.2153 4.3811 20.2546 4.36277 20.3002C4.34443 20.3458 4.33971 20.3957 4.34918 20.4439C4.39158 20.8646 4.36232 21.2894 4.26263 21.7003C4.19792 22.1054 4.15412 22.5136 4.13141 22.9232C4.07836 23.8613 4.06161 24.791 4.05044 25.7207Z" fill="#E72D3C"/>
<g style="mix-blend-mode:multiply">
<path d="M30.7778 19.6707C31.2435 19.816 31.6657 20.0751 32.0062 20.4245C32.358 20.7623 32.6651 21.1364 33.0309 21.4575C33.137 21.5496 33.0309 21.7367 32.9024 21.6362C32.5422 21.3314 32.2062 20.9991 31.8973 20.6423C31.5725 20.2868 31.1592 20.0238 30.6996 19.8801C30.5628 19.8382 30.641 19.6316 30.7778 19.6707Z" fill="#BF3445"/>
</g>
<path d="M19.6574 51.0827C19.6584 51.1231 19.67 51.1626 19.6909 51.1972C19.8022 52.9858 20.4601 54.6972 21.5755 56.0998C22.6954 57.4586 24.1674 58.4834 25.8304 59.0621C27.5905 59.6782 29.4713 59.8696 31.3194 59.6205C33.2074 59.3659 35.0174 58.7038 36.6241 57.6801C39.9241 55.6754 42.6714 52.7997 44.8017 49.5834C45.36 48.7179 45.8905 47.8161 46.4349 46.9311C46.9794 46.046 47.655 45.161 48.3 44.2899C49.4726 42.7041 50.6089 40.8921 50.5894 38.8512C50.5503 35.0402 47.1329 32.4046 44.5671 30.1264C43.9082 29.5401 41.7752 27.9515 41.7752 27.9515C40.7319 27.1086 39.6382 26.3301 38.5002 25.6202C38.2657 25.4694 38.0284 25.3214 37.7911 25.1763C36.6096 24.4041 35.3827 23.704 34.1169 23.0795C33.6516 22.8635 33.1733 22.677 32.6846 22.5211C32.5394 22.4737 32.4054 22.4318 32.2491 22.3927C31.7765 22.2373 31.2655 22.2442 30.7973 22.4122C29.9597 22.7584 29.5074 23.6156 29.2673 24.4476C28.9574 25.5336 29.1779 26.709 29.5241 27.7644C30.3617 30.3162 32.2938 32.1589 34.1253 34.0295C34.8456 34.7666 35.5827 35.4841 36.3588 36.157C35.5966 36.3022 34.8344 36.4557 34.0806 36.626C32.1876 37.007 30.3558 37.6458 28.6363 38.5245C27.021 39.384 25.5534 40.4962 24.2893 41.819C21.8938 44.3318 19.4731 47.4225 19.6574 51.0827Z" fill="#FEB69F"/>
<path d="M32.2435 26.1311C33.8684 27.8928 36.7385 27.5745 38.3578 25.9775C38.3578 25.9775 38.3578 25.9552 38.3774 25.9496C38.4234 25.912 38.4592 25.8634 38.4811 25.8081C38.5031 25.7529 38.5107 25.693 38.503 25.6341C38.2685 25.4833 38.0312 25.3354 37.7939 25.1902C36.6124 24.418 35.3854 23.7179 34.1197 23.0934C33.6544 22.8774 33.176 22.691 32.6874 22.535C32.488 22.516 32.2873 22.5545 32.1092 22.646C31.931 22.7376 31.7829 22.8783 31.6823 23.0515C31.0094 24.065 31.4869 25.3074 32.2435 26.1311Z" fill="#FFE4DB"/>
<path d="M30.8838 11.9062C30.8897 12.6889 30.9363 13.4708 31.0234 14.2486C31.0513 14.4887 31.1937 15.7563 31.2579 16.1527C31.3668 16.8116 31.4757 17.4705 31.6153 18.1238C31.8058 19.2308 32.1665 20.3016 32.6846 21.2983C33.1257 22.0633 33.86 22.8031 34.7702 22.9232C34.9654 22.9347 35.1612 22.9347 35.3565 22.9232C36.705 22.8339 37.59 21.9237 38.1205 20.7343C38.5769 19.5812 38.8519 18.3644 38.9357 17.1271C39.0893 15.6334 39.187 14.123 39.2149 12.6237C39.2149 11.5069 39.1982 10.3902 39.2149 9.27339C39.2317 8.15661 39.3378 7.05379 39.3322 5.92305C39.3596 4.91773 39.2382 3.91389 38.972 2.94405C38.7529 2.31318 38.4103 1.73231 37.9641 1.23538C37.4755 0.67926 36.8319 0.281655 36.1159 0.093477C35.2615 -0.157798 34.2872 0.124188 33.5696 0.621154C32.8521 1.11812 32.612 1.66255 32.1876 2.40521C31.6823 3.29584 31.0708 6.19667 30.8922 9.49674C30.8503 10.2422 30.8698 11.1496 30.8838 11.9062Z" fill="#FEB69F"/>
<path d="M33.1453 19.1177V19.154C33.1378 19.375 33.1472 19.5962 33.1732 19.8157C33.1712 20.2106 33.2305 20.6033 33.3491 20.98C33.5066 21.388 33.8033 21.7272 34.1867 21.9376C34.5253 22.1236 34.9072 22.2161 35.2933 22.2058C35.6794 22.1955 36.0558 22.0827 36.384 21.879C36.9697 21.4356 37.384 20.8033 37.5566 20.0893C37.7604 19.3746 37.7241 18.135 37.7018 17.7553C37.6911 17.4595 37.6056 17.1714 37.4533 16.9177C37.3159 16.6934 37.1412 16.4942 36.9368 16.3286C36.6163 16.0826 36.224 15.9483 35.82 15.9461C35.8108 15.9445 35.8013 15.9445 35.7921 15.9461C35.6274 15.9316 35.4615 15.9439 35.3007 15.9824C35.1297 16.0049 34.9614 16.0441 34.7982 16.0996C34.4779 16.2155 34.1864 16.3994 33.9438 16.6385C33.5803 17.0135 33.3406 17.491 33.257 18.0065C33.257 18.0205 33.257 18.0372 33.257 18.054C33.1751 18.4024 33.1376 18.7599 33.1453 19.1177V19.1177Z" fill="#FFE4DB"/>
<g style="mix-blend-mode:multiply">
<path d="M34.1197 1.7045C35.1583 1.14611 36.4957 1.14611 37.2719 2.13167C37.35 2.22939 37.2132 2.36619 37.135 2.26847C36.9705 2.05396 36.7627 1.87648 36.5251 1.74757C36.2874 1.61865 36.0253 1.5412 35.7558 1.52023C35.2173 1.49134 34.6813 1.61111 34.2063 1.86643C34.1086 1.92227 34.0136 1.76313 34.1197 1.7045Z" fill="#E09DA5"/>
</g>
<g style="mix-blend-mode:multiply">
<path d="M33.9773 14.5808C34.9545 13.9275 36.2276 13.7432 37.2104 14.4858C37.3164 14.564 37.2104 14.7455 37.1043 14.6645C36.6699 14.3342 36.1296 14.1743 35.5854 14.215C35.0479 14.2734 34.532 14.459 34.0806 14.7567C33.9689 14.8237 33.8712 14.6506 33.9773 14.5808Z" fill="#E09DA5"/>
</g>
<g style="mix-blend-mode:multiply">
<path d="M13.0209 24.7211C13.8581 25.3385 14.8058 25.7897 15.8129 26.0501C16.7817 26.3042 17.8873 26.3879 18.8114 25.9328C19.3323 25.6642 19.7675 25.2551 20.0678 24.7518C20.0833 24.7256 20.1087 24.7065 20.1383 24.6989C20.1679 24.6913 20.1993 24.6958 20.2255 24.7114C20.2518 24.7269 20.2709 24.7523 20.2785 24.7818C20.286 24.8114 20.2816 24.8428 20.266 24.8691C19.1493 27.0496 16.3573 26.6671 14.4923 25.8184C13.9405 25.5692 13.4173 25.2612 12.9316 24.8998C12.8143 24.8133 12.9148 24.6346 13.0209 24.7211Z" fill="#BF3445"/>
</g>
<g style="mix-blend-mode:multiply">
<path d="M9.51148 30.5229C10.9242 29.8249 11.5719 28.401 11.8958 26.9324C11.9237 26.804 12.1164 26.8598 12.094 26.9883C11.8148 28.5266 11.1001 30.0175 9.63712 30.7351C9.51148 30.8049 9.37467 30.5843 9.51148 30.5229Z" fill="#BF3445"/>
</g>
<g style="mix-blend-mode:multiply">
<path d="M23.8341 23.4284C24.3227 23.1325 24.5907 22.5908 25.0737 22.2921C25.6178 21.9737 26.221 21.7694 26.8466 21.6918C26.975 21.6723 27.0337 21.8621 26.8997 21.8901C26.2858 21.9971 25.6964 22.2147 25.1603 22.5322C24.6996 22.8337 24.4344 23.3502 23.9541 23.649C23.9249 23.6649 23.8905 23.6686 23.8586 23.6591C23.8266 23.6497 23.7998 23.628 23.7838 23.5987C23.7679 23.5695 23.7643 23.5351 23.7737 23.5032C23.7831 23.4712 23.8048 23.4443 23.8341 23.4284V23.4284Z" fill="#BF3445"/>
</g>
<g style="mix-blend-mode:multiply">
<path d="M35.806 22.8199C36.6297 22.8534 37.1853 21.9823 37.8162 21.5943C38.5027 21.1539 39.2985 20.9141 40.114 20.9019C40.262 20.9019 40.2452 21.114 40.114 21.1252C39.2645 21.1767 38.4455 21.4606 37.7464 21.946C37.1462 22.3844 36.6771 23.0824 35.8535 23.0489C35.6944 23.0461 35.6553 22.8143 35.806 22.8199Z" fill="#BF3445"/>
</g>
<g style="mix-blend-mode:multiply">
<path d="M27.7402 24.6458C28.5973 25.4247 29.0691 26.6002 29.474 27.6443C29.9637 28.8082 30.3115 30.0268 30.5098 31.2739C30.6024 32.0239 30.6406 32.7797 30.6242 33.5353C30.6242 33.5694 30.6107 33.6021 30.5866 33.6262C30.5625 33.6502 30.5299 33.6638 30.4958 33.6638C30.4617 33.6638 30.4291 33.6502 30.405 33.6262C30.3809 33.6021 30.3674 33.5694 30.3674 33.5353C30.3999 32.251 30.2485 30.9686 29.9179 29.7271C29.7532 29.1492 29.5298 28.588 29.3204 28.0268C29.1232 27.488 28.8987 26.9597 28.6475 26.4438C28.3558 25.8612 27.9939 25.3165 27.5699 24.8217C27.5465 24.7991 27.5331 24.7682 27.5326 24.7357C27.5321 24.7033 27.5445 24.6719 27.5671 24.6486C27.5896 24.6253 27.6206 24.6119 27.653 24.6113C27.6855 24.6108 27.7168 24.6232 27.7402 24.6458Z" fill="#BF3445"/>
</g>
<g style="mix-blend-mode:multiply">
<path d="M39.631 28.8114C39.9622 28.3889 40.3753 28.0376 40.8455 27.7784C40.9683 27.7197 41.0744 27.8956 40.9543 27.9626C40.513 28.2319 40.1242 28.5791 39.8069 28.9873C39.7827 29.0054 39.7527 29.0142 39.7226 29.0121C39.6924 29.01 39.664 28.997 39.6426 28.9756C39.6212 28.9542 39.6083 28.9259 39.6062 28.8957C39.604 28.8655 39.6128 28.8356 39.631 28.8114V28.8114Z" fill="#E09DA5"/>
</g>
<g style="mix-blend-mode:multiply">
<path d="M40.3792 30.1346C40.8594 29.3948 41.7082 28.9844 42.5514 28.8001C42.677 28.7722 42.7328 28.9676 42.6044 28.9955C41.8338 29.1798 41.027 29.5679 40.583 30.2547C40.5021 30.3803 40.2955 30.2631 40.3792 30.1346Z" fill="#E09DA5"/>
</g>
<g style="mix-blend-mode:multiply">
<path d="M32.3077 36.9554C34.6027 35.9308 37.1378 36.0145 39.5947 35.9475C39.6202 35.9516 39.6435 35.9647 39.6602 35.9844C39.677 36.0041 39.6862 36.0291 39.6862 36.055C39.6862 36.0809 39.677 36.1059 39.6602 36.1256C39.6435 36.1453 39.6202 36.1584 39.5947 36.1625C37.1545 36.2295 34.6474 36.1625 32.3552 37.1397C32.2491 37.1899 32.1961 37.0057 32.3077 36.9554Z" fill="#E09DA5"/>
</g>
<g style="mix-blend-mode:multiply">
<path d="M21.7597 44.3933C22.03 43.936 22.391 43.5388 22.8206 43.2263C22.9267 43.1565 23.0524 43.3212 22.9546 43.4022C22.0305 44.1616 21.4693 45.3342 21.0003 46.4175C20.4695 47.7309 20.1373 49.116 20.0147 50.5272C20.0147 50.6724 19.7718 50.6724 19.7858 50.5272C20.0064 48.3774 20.5787 46.2193 21.7597 44.3933Z" fill="#E09DA5"/>
</g>
<g style="mix-blend-mode:multiply">
<path d="M8.85262 58.7216C9.61482 58.5457 10.3882 58.4228 11.142 58.2246C11.909 58.0258 12.6381 57.7023 13.3002 57.267C13.4091 57.1944 13.5124 57.3703 13.4035 57.4429C12.742 57.8779 12.014 58.2023 11.2481 58.4033C10.4747 58.6099 9.68183 58.7299 8.90288 58.9058C8.78282 58.9337 8.73257 58.7495 8.85262 58.7216Z" fill="#E09DA5"/>
</g>
<g style="mix-blend-mode:multiply">
<path d="M24.0016 57.6662C26.0471 58.7878 28.3263 59.4159 30.6576 59.5005C30.7916 59.5005 30.7916 59.7127 30.6576 59.7071C28.3263 59.6066 25.9113 59.051 23.8983 57.8449C23.8759 57.8305 23.8599 57.8081 23.8536 57.7823C23.8473 57.7564 23.8512 57.7292 23.8645 57.7061C23.8778 57.6831 23.8995 57.6661 23.925 57.6587C23.9506 57.6512 23.978 57.6539 24.0016 57.6662V57.6662Z" fill="#E09DA5"/>
</g>
<g style="mix-blend-mode:multiply">
<path d="M21.0673 57.1078C21.084 57.0913 21.1066 57.082 21.1301 57.082C21.1537 57.082 21.1762 57.0913 21.193 57.1078L21.4721 57.3871C21.4819 57.3949 21.4899 57.4048 21.4956 57.4159C21.5013 57.4271 21.5046 57.4393 21.5052 57.4518C21.5059 57.4643 21.5039 57.4769 21.4994 57.4886C21.495 57.5003 21.4881 57.5109 21.4792 57.5197C21.4703 57.5286 21.4597 57.5355 21.448 57.54C21.4363 57.5445 21.4238 57.5465 21.4113 57.5458C21.3988 57.5451 21.3865 57.5418 21.3754 57.5361C21.3642 57.5304 21.3544 57.5224 21.3465 57.5127C21.2488 57.415 21.1539 57.3173 21.0673 57.2335C21.0508 57.2168 21.0415 57.1942 21.0415 57.1707C21.0415 57.1471 21.0508 57.1246 21.0673 57.1078Z" fill="#E09DA5"/>
</g>
<path d="M8.75207 6.76905C8.83582 5.49033 9.1541 4.2563 10.1983 3.44384C11.329 2.55321 12.8032 2.30473 14.107 3.0083C14.7099 3.35419 15.2461 3.80522 15.69 4.34005C15.7575 3.86301 15.8773 3.39485 16.0474 2.94408C16.5276 1.60395 17.4769 0.467628 18.9482 0.328031C19.663 0.261024 21.461 0.54022 22.441 1.52019C23.2255 2.30752 23.5242 3.57227 23.8369 4.65834C23.8645 4.62768 23.9006 4.60596 23.9406 4.59598C23.9805 4.586 24.0226 4.5882 24.0613 4.60231C24.1001 4.61642 24.1337 4.64179 24.1579 4.67516C24.1821 4.70853 24.1957 4.74837 24.1971 4.78956C24.1802 5.28078 24.1998 5.77259 24.2557 6.26091C24.4492 7.0749 24.5984 7.89881 24.7024 8.72899C24.7387 8.88255 24.775 9.0389 24.8141 9.19524C25.137 10.5925 25.3627 12.0105 25.4898 13.439C25.6098 14.6926 25.7075 15.9517 25.8136 17.2053C25.9193 18.2392 25.9062 19.2818 25.7745 20.3128C25.6377 21.2425 25.3306 22.1917 24.6578 22.8758C24.302 23.2259 23.8541 23.4677 23.3662 23.573C22.8783 23.6783 22.3706 23.6427 21.9021 23.4705C21.145 23.2239 20.4732 22.768 19.9645 22.1554C20.0523 22.9284 19.9984 23.7108 19.8054 24.4644C19.4843 25.5812 18.616 26.4662 17.3847 26.3434C16.1032 26.2177 14.872 25.4164 14.0344 24.4867C13.5378 23.9233 13.0974 23.3127 12.7194 22.6636C12.3317 22.0519 11.9803 21.4179 11.6669 20.7651C11.008 19.3328 10.6394 17.7916 10.2178 16.2812C9.76554 14.6702 9.23228 13.0733 8.95309 11.4288C8.71462 9.8877 8.64721 8.32496 8.75207 6.76905V6.76905Z" fill="#FEB69F"/>
<path d="M0.239494 21.9459C0.566151 23.4954 1.29206 22.3033 1.96771 23.7021C2.39767 24.5955 3.51444 26.8542 4.04771 27.4488C4.45533 27.9039 4.95509 28.7638 5.42693 29.1631C6.42086 30.1542 6.97925 30.6009 8.16862 30.869C9.6288 31.1956 10.6283 30.3106 10.9913 29.1938C11.4408 27.7978 10.8963 26.2539 10.2319 24.4308C9.8019 23.2414 8.44223 20.3768 7.67723 19.2908C6.81731 18.0735 5.70333 16.7389 4.18451 16.457C3.56193 16.3163 2.91167 16.363 2.31552 16.591C1.71938 16.819 1.20398 17.2182 0.834177 17.7385C-0.0787887 18.8999 -0.0508685 20.5583 0.239494 21.9459Z" fill="#FEB69F"/>
<path d="M20.2074 19.224C20.2722 19.8275 20.41 20.421 20.6179 20.9913C20.6709 21.1309 20.7267 21.2705 20.7854 21.4128C20.8945 21.762 21.0647 22.0891 21.2879 22.3789C21.5031 22.6235 21.774 22.8129 22.0776 22.931C22.3813 23.049 22.7089 23.0924 23.0329 23.0573C23.3577 23.042 23.6719 22.9366 23.9403 22.753C24.0832 22.6438 24.2028 22.5071 24.2921 22.3509C24.3675 22.2445 24.4277 22.1279 24.4707 22.0047C24.6689 21.5806 24.7646 21.1158 24.7499 20.6479C24.7685 20.5146 24.7787 20.3803 24.7806 20.2458C24.7818 19.8305 24.7349 19.4164 24.641 19.0118C24.4911 18.341 24.186 17.7147 23.7504 17.1831C23.5422 16.9456 23.284 16.7571 22.9944 16.6311C22.7048 16.5051 22.3909 16.4448 22.0753 16.4544C21.7957 16.4744 21.5233 16.5523 21.2753 16.683C21.0273 16.8137 20.8092 16.9944 20.6346 17.2138C20.2493 17.7107 20.1209 18.6125 20.2074 19.224Z" fill="#FFE4DB"/>
<path d="M5.91546 26.1815C5.96382 26.8284 6.13435 27.4603 6.418 28.0437C6.63394 28.559 6.88294 29.0598 7.16345 29.543C7.15784 29.5573 7.15784 29.5733 7.16345 29.5876C7.2925 29.803 7.47313 29.9829 7.68905 30.1111C7.90496 30.2393 8.14939 30.3117 8.40028 30.3219C9.41934 30.3526 10.4328 29.6323 10.5808 28.5993C10.621 27.8285 10.4654 27.0601 10.1285 26.3657C9.95441 25.9899 9.75381 25.627 9.52823 25.2797C9.35776 24.9986 9.12807 24.7581 8.85516 24.5748C8.58224 24.3916 8.27267 24.2701 7.94799 24.2187C7.68597 24.1958 7.42208 24.2288 7.17375 24.3154C6.92541 24.4021 6.69828 24.5404 6.50735 24.7213C6.30902 24.9074 6.1534 25.1344 6.05122 25.3864C5.94904 25.6385 5.90272 25.9098 5.91546 26.1815V26.1815Z" fill="#FFE4DB"/>
<path d="M15.3746 19.2433C15.9023 19.0981 16.4272 18.9417 17.3932 19.6034C17.9205 19.9965 18.33 20.5266 18.577 21.1362C18.7187 21.4606 18.8372 21.7946 18.9315 22.1357C19.0553 22.5844 19.1034 23.0505 19.0739 23.5149C19.0337 24.0955 18.7766 24.6397 18.3536 25.0394C17.9097 25.4526 17.2117 25.514 16.6282 25.3967C15.9972 25.2683 15.4835 24.7713 15.0898 24.2799C14.6709 23.7498 14.3555 23.1455 14.1601 22.4987C14.0547 22.1397 13.992 21.7695 13.973 21.3959C13.9446 21.098 13.9624 20.7976 14.0261 20.5052C14.1189 20.1943 14.2927 19.9136 14.5296 19.6918C14.7666 19.4701 15.0582 19.3153 15.3746 19.2433V19.2433Z" fill="#FFE4DB"/>
<g style="mix-blend-mode:multiply">
<path d="M24.2027 4.70029C24.3423 5.39548 24.4316 6.09626 24.5126 6.79983C24.5126 6.90872 24.3367 6.93384 24.3199 6.82775C24.2194 6.13814 24.1245 5.43178 23.9849 4.76171C23.9542 4.61932 24.172 4.5579 24.2027 4.70029Z" fill="#E09DA5"/>
</g>
<g style="mix-blend-mode:multiply">
<path d="M18.4457 2.99163C19.4006 2.54771 20.562 2.35785 21.5364 2.84645C21.6593 2.90508 21.5532 3.08935 21.4303 3.02792C20.5285 2.57563 19.4313 2.76827 18.5434 3.15914C18.415 3.22336 18.3173 3.04467 18.4457 2.99163Z" fill="#E09DA5"/>
</g>
<g style="mix-blend-mode:multiply">
<path d="M21.0757 13.9248C21.8638 13.7844 22.6745 13.8419 23.4349 14.0923C23.5773 14.1426 23.5159 14.3715 23.3707 14.3212C22.639 14.0879 21.8644 14.0211 21.1036 14.1258C20.9864 14.1398 20.9584 13.9443 21.0757 13.9248Z" fill="#E09DA5"/>
</g>
<g style="mix-blend-mode:multiply">
<path d="M13.5989 17.2501C14.0251 16.9847 14.4892 16.7861 14.9754 16.661C15.4488 16.5122 15.9522 16.4863 16.4384 16.5856C16.4665 16.5934 16.4904 16.612 16.5048 16.6374C16.5192 16.6628 16.5229 16.6929 16.5151 16.721C16.5074 16.7491 16.4887 16.773 16.4633 16.7874C16.4379 16.8018 16.4079 16.8056 16.3797 16.7978C15.9147 16.7061 15.4339 16.7359 14.9838 16.8843C14.5315 17.0077 14.097 17.1888 13.6911 17.4232C13.6691 17.4292 13.6457 17.4276 13.6247 17.4185C13.6038 17.4095 13.5865 17.3936 13.5758 17.3735C13.5651 17.3533 13.5615 17.3301 13.5657 17.3077C13.57 17.2853 13.5817 17.265 13.5989 17.2501V17.2501Z" fill="#E09DA5"/>
</g>
<g style="mix-blend-mode:multiply">
<path d="M15.8716 4.94315C16.0223 6.89751 16.4607 9.33208 16.8096 11.5238C16.9855 12.6405 17.2899 13.7573 17.5579 14.8573C17.8259 15.9574 18.1163 17.0909 18.4569 18.2077C18.9021 19.5076 19.4127 20.7843 19.9869 22.0326C20.0427 22.1611 19.892 22.1834 19.8333 22.055C19.3232 21.007 18.8721 19.9314 18.482 18.8331C18.0995 17.7303 17.7422 16.5213 17.4685 15.3878C16.8835 13.1159 16.4175 10.815 16.0726 8.4945C15.8967 7.18228 15.6426 5.63834 15.6454 4.30658C15.6538 4.18094 15.8548 4.71142 15.8716 4.94315Z" fill="#E09DA5"/>
</g>
<g style="mix-blend-mode:multiply">
<path d="M1.47348 22.3174C1.84908 23.2956 2.30576 24.2407 2.83874 25.1429C3.35246 25.9554 3.95551 26.8655 4.42177 27.5914C4.48319 27.6892 4.30172 27.7673 4.23192 27.6724C3.58698 26.7985 3.11514 26.0475 2.60142 25.2043C2.09131 24.3084 1.64985 23.3751 1.28083 22.4124C1.23616 22.2895 1.41485 22.2086 1.47348 22.3174Z" fill="#E09DA5"/>
</g>
<g style="mix-blend-mode:multiply">
<path d="M5.22592 24.3332C5.37779 23.9848 5.62186 23.6845 5.93181 23.4646C6.24176 23.2447 6.60584 23.1135 6.98483 23.0852C7.10489 23.0852 7.10209 23.2639 6.98483 23.2695C6.63955 23.3045 6.31007 23.4318 6.03103 23.6382C5.75198 23.8445 5.53366 24.1222 5.39901 24.4421C5.34318 24.551 5.17008 24.4421 5.22592 24.3332Z" fill="#E09DA5"/>
</g>
<g style="mix-blend-mode:multiply">
<path d="M1.91186 18.9027C2.01127 18.6514 2.17058 18.4283 2.37592 18.2526C2.58127 18.0769 2.82642 17.9541 3.09006 17.8948C3.60291 17.7233 4.15673 17.7174 4.67309 17.8781C4.79315 17.9199 4.74289 18.1098 4.62005 18.0707C4.16068 17.9489 3.67591 17.9625 3.22408 18.1098C2.99391 18.1598 2.77883 18.2635 2.59639 18.4124C2.41394 18.5614 2.26932 18.7514 2.17431 18.9669C2.10172 19.1177 1.8644 19.0535 1.91186 18.9027Z" fill="#E09DA5"/>
</g>
</svg>
