<svg width="62" height="56" viewBox="0 0 62 56" fill="none" xmlns="http://www.w3.org/2000/svg">
<path d="M56.5354 18.3781C54.8418 22.4391 49.1054 23.9142 43.7241 21.6651C38.3428 19.4161 35.3471 14.3171 37.0407 10.2561C38.7343 6.19505 44.4707 4.72908 49.852 6.96901C55.2333 9.20894 58.2199 14.3171 56.5354 18.3781Z" fill="#B51F18"/>
<path d="M53.13 13.5251C52.946 13.9483 52.6578 14.3179 52.2923 14.5996C51.0266 15.5921 48.7685 15.7286 46.5832 14.8181C44.3979 13.9076 42.9411 12.2049 42.7134 10.6023C42.6567 10.1457 42.7162 9.68217 42.8864 9.25471C43.6786 7.36078 46.6105 6.78715 49.4332 7.96174C52.2559 9.13634 53.9131 11.6403 53.13 13.5251Z" fill="#C52E25"/>
<path d="M51.7005 13.6797C51.577 13.9645 51.3708 14.2056 51.1086 14.3717C50.1981 15 48.5136 15.0182 46.8291 14.3171C45.1446 13.616 43.9791 12.4141 43.7788 11.3214C43.7181 11.0163 43.7466 10.7002 43.8607 10.4109C44.3888 9.15434 46.5923 8.86297 48.7321 9.76441C50.8719 10.6658 52.1739 12.4141 51.7005 13.6797Z" fill="#A5100E"/>
<path d="M40.9379 25.7263C36.194 30.4793 27.2252 29.2228 20.906 22.9218C14.5869 16.6209 13.3486 7.66117 18.1016 2.88994C22.8546 -1.88129 31.8143 -0.606535 38.1335 5.6944C44.4526 11.9953 45.691 20.9733 40.9379 25.7263Z" fill="#C52E25"/>
<path d="M38.9529 16.885C38.4463 17.3814 37.8184 17.7362 37.1318 17.9139C34.7644 18.5786 31.4955 17.4678 28.9369 14.9C26.3783 12.3323 25.2947 9.07258 25.9139 6.70517C26.0926 6.01695 26.4508 5.38851 26.9519 4.88409C29.1646 2.67148 33.6444 3.5638 36.9679 6.86906C40.2914 10.1743 41.1746 14.6633 38.9529 16.885Z" fill="#D53D33"/>
<path d="M36.7857 16.2385C36.4463 16.5723 36.0152 16.7974 35.5474 16.885C33.8811 17.2401 31.4955 16.2841 29.5287 14.3173C27.5619 12.3505 26.615 9.96492 26.961 8.30774C27.0507 7.8406 27.2755 7.41005 27.6075 7.0694C29.0825 5.59433 32.3332 6.45934 34.8918 8.99064C37.4504 11.5219 38.2608 14.7726 36.7857 16.2385Z" fill="#B51F18"/>
<path d="M39.1077 42.5986C40.7831 46.6687 37.7692 51.7586 32.3788 53.9804C26.9884 56.2021 21.2611 54.7088 19.5857 50.6387C17.9103 46.5686 20.9242 41.4786 26.3146 39.2569C31.705 37.0352 37.4323 38.5194 39.1077 42.5986Z" fill="#C52E25"/>
<path d="M33.2621 41.5606C33.4427 41.9885 33.5025 42.4578 33.4351 42.9173C33.2348 44.5108 31.7415 46.2044 29.5471 47.1058C27.3527 48.0072 25.1036 47.8615 23.838 46.8691C23.4704 46.5879 23.1844 46.2139 23.0094 45.7855C22.2263 43.8916 23.9199 41.4058 26.7244 40.2403C29.5289 39.0748 32.4881 39.6667 33.2621 41.5606Z" fill="#D53D33"/>
<path d="M32.3333 42.717C32.4492 43.0062 32.4746 43.3237 32.4061 43.6276C32.2058 44.7202 31.0221 45.9222 29.3467 46.6142C27.6713 47.3062 25.9777 47.2789 25.0672 46.6142C24.807 46.4443 24.6039 46.1999 24.4844 45.913C23.9654 44.6474 25.2948 42.9083 27.471 42.0159C29.6472 41.1236 31.8143 41.4514 32.3333 42.717Z" fill="#B51F18"/>
<path d="M32.2695 28.5762C32.2695 35.296 25.0399 40.7501 16.1348 40.7501C7.22969 40.7501 0 35.2869 0 28.5762C0 21.8655 7.22058 16.4114 16.1348 16.4114C25.049 16.4114 32.2695 21.8564 32.2695 28.5762Z" fill="#D53D33"/>
<path d="M24.6117 23.723C24.6082 24.4299 24.4199 25.1236 24.0653 25.7353C22.8543 27.875 19.7585 29.3774 16.1345 29.3774C12.5106 29.3774 9.41474 27.8568 8.20373 25.7353C7.84919 25.1236 7.66085 24.4299 7.65741 23.723C7.65741 20.5907 11.4544 18.0503 16.1345 18.0503C20.8147 18.0503 24.6117 20.5907 24.6117 23.723Z" fill="#E54D42"/>
<path d="M22.6179 24.8067C22.6133 25.2844 22.4676 25.7501 22.199 26.1452C21.2885 27.5657 18.912 28.5764 16.1348 28.5764C13.3577 28.5764 10.9903 27.5657 10.0706 26.1452C9.80207 25.7501 9.65635 25.2844 9.65179 24.8067C9.65179 22.7307 12.5564 21.0371 16.1348 21.0371C19.7133 21.0371 22.6179 22.7307 22.6179 24.8067Z" fill="#C52E25"/>
<path d="M58.7845 22.1204C63.5375 26.8735 62.281 35.8332 55.9801 42.1523C49.6791 48.4715 40.7194 49.7098 35.9482 44.9568C31.1769 40.2038 32.4517 31.2441 38.7526 24.9249C45.0536 18.6058 54.0315 17.3674 58.7845 22.1204Z" fill="#D53D33"/>
<path d="M49.9432 24.1057C50.441 24.6112 50.796 25.2395 50.9721 25.9268C51.6368 28.3033 50.5259 31.563 47.9582 34.1216C45.3905 36.6803 42.1307 37.7638 39.7633 37.1355C39.0774 36.9563 38.4498 36.6017 37.9423 36.1066C35.7296 33.8849 36.622 29.405 39.9272 26.0907C43.2325 22.7763 47.7215 21.8931 49.9432 24.1057Z" fill="#E54D42"/>
<path d="M49.2967 26.2816C49.6337 26.6186 49.8594 27.0508 49.9432 27.5199C50.2983 29.1771 49.3422 31.5718 47.3755 33.5295C45.4087 35.4872 43.0231 36.4523 41.3659 36.0972C40.8975 36.0112 40.4659 35.7859 40.1276 35.4507C38.6525 33.9757 39.5175 30.7341 42.0488 28.1664C44.5801 25.5987 47.8307 24.8065 49.2967 26.2816Z" fill="#C52E25"/>
<path d="M57.4005 30.0971C57.4005 30.5509 57.2659 30.9945 57.0138 31.3719C56.7616 31.7492 56.4033 32.0433 55.984 32.217C55.5647 32.3906 55.1034 32.4361 54.6583 32.3475C54.2132 32.259 53.8043 32.0405 53.4834 31.7196C53.1625 31.3987 52.944 30.9898 52.8554 30.5447C52.7669 30.0996 52.8123 29.6382 52.986 29.219C53.1597 28.7997 53.4538 28.4413 53.8311 28.1892C54.2085 27.9371 54.6521 27.8025 55.1059 27.8025C55.7145 27.8025 56.2981 28.0442 56.7284 28.4746C57.1587 28.9049 57.4005 29.4885 57.4005 30.0971V30.0971Z" fill="white"/>
<path d="M28.0262 29.3958C28.0298 29.8512 27.8979 30.2973 27.6471 30.6774C27.3964 31.0575 27.0382 31.3544 26.6182 31.5304C26.1982 31.7063 25.7353 31.7532 25.2886 31.6653C24.8418 31.5773 24.4312 31.3584 24.1093 31.0364C23.7873 30.7145 23.5684 30.3039 23.4804 29.8571C23.3925 29.4104 23.4394 28.9475 23.6153 28.5275C23.7913 28.1075 24.0882 27.7493 24.4683 27.4986C24.8484 27.2478 25.2945 27.1159 25.7499 27.1195C26.3521 27.1242 26.9284 27.3656 27.3543 27.7914C27.7801 28.2173 28.0215 28.7936 28.0262 29.3958V29.3958Z" fill="white"/>
</svg>
