<svg width="200" height="200" viewBox="0 0 200 200" fill="none" xmlns="http://www.w3.org/2000/svg">
<path d="M79.548 157.04C78.904 145.08 65.216 141.44 61.036 140.62C60.9876 140.611 60.944 140.585 60.9126 140.547C60.8812 140.509 60.864 140.461 60.864 140.412V30.34C60.8645 30.3121 60.8705 30.2847 60.8816 30.2591C60.8928 30.2336 60.9088 30.2105 60.9289 30.1912C60.9489 30.1719 60.9726 30.1567 60.9985 30.1466C61.0245 30.1364 61.0521 30.1314 61.08 30.132H76V28.036H61.08C61.0521 28.0365 61.0245 28.0315 60.9985 28.0214C60.9726 28.0112 60.9489 27.996 60.9289 27.9767C60.9088 27.9574 60.8928 27.9343 60.8816 27.9088C60.8705 27.8833 60.8645 27.8558 60.864 27.828V19.796C60.8473 19.5245 60.7278 19.2697 60.5297 19.0833C60.3316 18.897 60.0699 18.7933 59.798 18.7933C59.526 18.7933 59.2643 18.897 59.0662 19.0833C58.8682 19.2697 58.7486 19.5245 58.732 19.796V27.828C58.732 27.8556 58.7265 27.883 58.7158 27.9085C58.7051 27.934 58.6894 27.9571 58.6696 27.9765C58.6499 27.9958 58.6265 28.0111 58.6008 28.0213C58.5751 28.0315 58.5476 28.0365 58.52 28.036H43.528C43.25 28.036 42.9835 28.1464 42.7869 28.3429C42.5904 28.5395 42.48 28.806 42.48 29.084C42.48 29.3619 42.5904 29.6285 42.7869 29.825C42.9835 30.0215 43.25 30.132 43.528 30.132H58.52C58.5476 30.1314 58.5751 30.1364 58.6008 30.1466C58.6265 30.1568 58.6499 30.1721 58.6696 30.1914C58.6894 30.2108 58.7051 30.2339 58.7158 30.2594C58.7265 30.2849 58.732 30.3123 58.732 30.34V140.472C58.7317 140.518 58.7162 140.562 58.688 140.598C58.6598 140.635 58.6204 140.66 58.576 140.672C40.9 145.504 40.4 157.004 40.4 157.492C40.3978 157.631 40.4231 157.768 40.4742 157.897C40.5253 158.026 40.6013 158.144 40.6979 158.243C40.7945 158.343 40.9097 158.422 41.037 158.477C41.1644 158.532 41.3013 158.562 41.44 158.564V158.564C41.7192 158.569 41.9895 158.465 42.1928 158.274C42.3962 158.082 42.5165 157.819 42.528 157.54C42.528 157.448 42.952 148.028 57.052 143.328C57.094 143.314 57.1391 143.314 57.1813 143.327C57.2234 143.34 57.2607 143.365 57.288 143.4C57.314 143.436 57.328 143.479 57.328 143.524C57.328 143.568 57.314 143.612 57.288 143.648C52.528 150.396 54.42 156.976 54.488 157.248C54.5738 157.514 54.759 157.736 55.005 157.869C55.2509 158.002 55.5386 158.034 55.808 157.96C55.9413 157.922 56.0659 157.858 56.1745 157.772C56.2832 157.686 56.3737 157.58 56.441 157.458C56.5083 157.337 56.5509 157.204 56.5666 157.066C56.5822 156.929 56.5704 156.789 56.532 156.656C56.508 156.584 54.448 149.396 60.688 142.804C60.7143 142.778 60.7468 142.759 60.7824 142.748C60.818 142.738 60.8557 142.736 60.892 142.744C64.624 143.544 76.844 146.984 77.392 157.144C77.4002 157.283 77.4359 157.419 77.4971 157.544C77.5582 157.669 77.6434 157.78 77.748 157.872C77.9596 158.056 78.2348 158.151 78.5151 158.135C78.7953 158.119 79.0583 157.995 79.248 157.788C79.3421 157.687 79.4148 157.568 79.4615 157.438C79.5083 157.308 79.5282 157.17 79.52 157.032" fill="#D2E1EB"/>
<path d="M61.292 140.244V30.552H76.212C76.2675 30.552 76.3208 30.5302 76.3605 30.4913C76.4001 30.4524 76.4229 30.3995 76.424 30.344V27.828C76.424 27.8003 76.4185 27.773 76.4078 27.7475C76.3971 27.722 76.3814 27.6988 76.3616 27.6795C76.3419 27.6601 76.3185 27.6449 76.2928 27.6347C76.2671 27.6244 76.2396 27.6195 76.212 27.62H61.292V19.796C61.292 19.4003 61.1348 19.0208 60.855 18.741C60.5752 18.4612 60.1957 18.304 59.8 18.304C59.4043 18.304 59.0248 18.4612 58.745 18.741C58.4652 19.0208 58.308 19.4003 58.308 19.796V27.62H43.508C43.309 27.6096 43.11 27.6398 42.9231 27.7088C42.7362 27.7778 42.5653 27.8841 42.4208 28.0212C42.2763 28.1584 42.1612 28.3235 42.0826 28.5066C42.0039 28.6896 41.9634 28.8868 41.9634 29.086C41.9634 29.2852 42.0039 29.4824 42.0826 29.6654C42.1612 29.8485 42.2763 30.0136 42.4208 30.1508C42.5653 30.2879 42.7362 30.3942 42.9231 30.4632C43.11 30.5322 43.309 30.5624 43.508 30.552H58.308V140.312C40.484 145.252 39.988 156.984 39.976 157.48C39.9712 157.676 40.0052 157.871 40.0758 158.054C40.1464 158.237 40.2523 158.404 40.3875 158.546C40.5227 158.687 40.6845 158.801 40.8637 158.881C41.043 158.96 41.236 159.003 41.432 159.008C41.6279 159.013 41.8229 158.979 42.0057 158.908C42.1885 158.838 42.3556 158.732 42.4975 158.596C42.6394 158.461 42.7533 158.299 42.8326 158.12C42.912 157.941 42.9552 157.748 42.96 157.552C42.96 157.46 43.4 148.584 56.592 143.932C52.192 150.66 54.02 157.096 54.104 157.372C54.2264 157.744 54.4876 158.055 54.8333 158.24C55.1789 158.424 55.5824 158.469 55.96 158.364C56.1462 158.312 56.3201 158.223 56.4718 158.103C56.6234 157.982 56.7498 157.833 56.8435 157.664C56.9372 157.495 56.9965 157.309 57.0179 157.117C57.0392 156.924 57.0223 156.73 56.968 156.544C56.968 156.472 54.992 149.552 60.968 143.18C64.76 144.02 76.488 147.412 77.016 157.18C77.026 157.374 77.0752 157.564 77.1604 157.739C77.2456 157.913 77.3652 158.069 77.512 158.196C77.8093 158.453 78.1949 158.585 78.5874 158.563C78.98 158.542 79.3488 158.368 79.616 158.08C79.7466 157.938 79.8475 157.772 79.9128 157.59C79.978 157.409 80.0063 157.216 79.996 157.024C79.34 144.92 65.756 141.152 61.312 140.248L61.292 140.244ZM77.796 157.884C77.6914 157.792 77.6062 157.681 77.5451 157.556C77.4839 157.431 77.4482 157.295 77.44 157.156C76.892 146.992 64.672 143.556 60.94 142.756C60.9037 142.748 60.866 142.75 60.8304 142.76C60.7948 142.771 60.7623 142.79 60.736 142.816C54.496 149.408 56.556 156.596 56.58 156.668C56.6185 156.801 56.6304 156.94 56.6151 157.078C56.5997 157.215 56.5574 157.348 56.4905 157.469C56.4236 157.59 56.3335 157.697 56.2253 157.783C56.1171 157.87 55.993 157.934 55.86 157.972C55.59 158.048 55.3014 158.016 55.0545 157.883C54.8076 157.75 54.6218 157.527 54.536 157.26C54.452 156.984 52.56 150.404 57.336 143.66C57.362 143.624 57.376 143.58 57.376 143.536C57.376 143.491 57.362 143.448 57.336 143.412C57.3087 143.377 57.2715 143.352 57.2293 143.339C57.1871 143.326 57.142 143.326 57.1 143.34C43 148.04 42.58 157.46 42.58 157.552C42.5675 157.831 42.4463 158.095 42.2423 158.286C42.0383 158.477 41.7676 158.581 41.488 158.576C41.3493 158.574 41.2124 158.545 41.0851 158.49C40.9577 158.435 40.8425 158.355 40.7459 158.255C40.6493 158.156 40.5733 158.038 40.5222 157.909C40.4711 157.78 40.4459 157.643 40.448 157.504C40.448 157.016 40.944 145.504 58.62 140.684C58.6648 140.673 58.7047 140.647 58.7336 140.611C58.7625 140.575 58.7788 140.53 58.78 140.484V30.344C58.78 30.3158 58.7744 30.2879 58.7635 30.2619C58.7526 30.2359 58.7366 30.2124 58.7165 30.1926C58.6964 30.1729 58.6725 30.1574 58.6463 30.147C58.6201 30.1365 58.5921 30.1315 58.564 30.132H43.528C43.3903 30.132 43.2541 30.1049 43.1269 30.0522C42.9998 29.9995 42.8842 29.9224 42.7869 29.825C42.6896 29.7277 42.6124 29.6122 42.5597 29.485C42.5071 29.3579 42.48 29.2216 42.48 29.084C42.48 28.9464 42.5071 28.8101 42.5597 28.6829C42.6124 28.5558 42.6896 28.4403 42.7869 28.3429C42.8842 28.2456 42.9998 28.1684 43.1269 28.1158C43.2541 28.0631 43.3903 28.036 43.528 28.036H58.52C58.5478 28.0365 58.5755 28.0316 58.6014 28.0214C58.6273 28.0112 58.651 27.996 58.6711 27.9767C58.6911 27.9574 58.7072 27.9343 58.7183 27.9088C58.7295 27.8833 58.7355 27.8558 58.736 27.828V19.796C58.736 19.5138 58.8481 19.2432 59.0476 19.0436C59.2471 18.8441 59.5178 18.732 59.8 18.732C60.0822 18.732 60.3528 18.8441 60.5523 19.0436C60.7519 19.2432 60.864 19.5138 60.864 19.796V27.828C60.8645 27.8558 60.8705 27.8833 60.8816 27.9088C60.8928 27.9343 60.9088 27.9574 60.9289 27.9767C60.9489 27.996 60.9726 28.0112 60.9985 28.0214C61.0245 28.0316 61.0521 28.0365 61.08 28.036H76V30.132H61.08C61.0518 30.1315 61.0238 30.1365 60.9976 30.147C60.9714 30.1574 60.9476 30.1729 60.9275 30.1926C60.9074 30.2124 60.8914 30.2359 60.8805 30.2619C60.8696 30.2879 60.864 30.3158 60.864 30.344V140.4C60.864 140.449 60.8812 140.497 60.9126 140.535C60.944 140.573 60.9876 140.599 61.036 140.608C65.216 141.436 78.904 145.068 79.548 157.028C79.5562 157.166 79.5363 157.304 79.4895 157.434C79.4428 157.564 79.3701 157.683 79.276 157.784C79.0863 157.991 78.8233 158.115 78.5431 158.131C78.2628 158.147 77.9876 158.052 77.776 157.868" fill="#141E2B"/>
<path d="M41.4519 153.816C40.8673 153.826 40.2986 154.009 39.8174 154.341C39.3362 154.674 38.9639 155.141 38.7472 155.684C38.5305 156.227 38.4791 156.822 38.5995 157.394C38.7198 157.966 39.0065 158.49 39.4236 158.9C39.8406 159.31 40.3695 159.588 40.9438 159.698C41.5181 159.809 42.1121 159.747 42.6514 159.521C43.1907 159.295 43.6512 158.914 43.9751 158.427C44.299 157.94 44.4719 157.369 44.4719 156.784C44.4646 155.99 44.1423 155.232 43.5761 154.675C43.0098 154.119 42.2459 153.81 41.4519 153.816" fill="#183F77"/>
<path d="M41.452 153.396C40.7844 153.407 40.1349 153.615 39.5852 153.994C39.0355 154.373 38.6099 154.906 38.3621 155.526C38.1142 156.146 38.0551 156.825 38.192 157.479C38.329 158.132 38.656 158.731 39.132 159.199C39.608 159.667 40.2117 159.984 40.8673 160.11C41.523 160.237 42.2013 160.166 42.8171 159.908C43.4329 159.65 43.9588 159.216 44.3286 158.66C44.6985 158.105 44.8959 157.452 44.896 156.784C44.8865 155.879 44.5188 155.014 43.8734 154.379C43.2279 153.744 42.3573 153.391 41.452 153.396ZM41.452 159.752C40.8673 159.742 40.2986 159.559 39.8174 159.227C39.3362 158.894 38.9639 158.427 38.7472 157.884C38.5306 157.341 38.4791 156.746 38.5995 156.174C38.7198 155.602 39.0065 155.078 39.4236 154.668C39.8407 154.258 40.3695 153.98 40.9438 153.87C41.5181 153.759 42.1122 153.821 42.6515 154.047C43.1908 154.273 43.6513 154.654 43.9752 155.141C44.299 155.628 44.4719 156.199 44.472 156.784C44.4646 157.578 44.1424 158.336 43.5761 158.893C43.0099 159.449 42.2459 159.758 41.452 159.752" fill="#141E2B"/>
<path d="M55.52 153.816C54.9353 153.826 54.3667 154.009 53.8855 154.341C53.4043 154.674 53.032 155.141 52.8153 155.684C52.5986 156.227 52.5472 156.822 52.6675 157.394C52.7878 157.966 53.0745 158.49 53.4916 158.9C53.9087 159.31 54.4376 159.588 55.0118 159.698C55.5861 159.809 56.1802 159.747 56.7195 159.521C57.2588 159.295 57.7193 158.914 58.0432 158.427C58.3671 157.94 58.5399 157.369 58.54 156.784C58.5326 155.99 58.2104 155.232 57.6441 154.675C57.0779 154.119 56.3139 153.81 55.52 153.816Z" fill="#183F77"/>
<path d="M55.52 153.396C54.8524 153.407 54.203 153.615 53.6532 153.994C53.1035 154.373 52.678 154.906 52.4301 155.526C52.1823 156.146 52.1231 156.825 52.2601 157.479C52.3971 158.132 52.7241 158.731 53.2001 159.199C53.676 159.667 54.2797 159.984 54.9354 160.11C55.591 160.237 56.2693 160.166 56.8852 159.908C57.501 159.65 58.0268 159.216 58.3967 158.66C58.7666 158.105 58.9639 157.452 58.964 156.784C58.9545 155.879 58.5868 155.014 57.9414 154.379C57.296 153.744 56.4254 153.391 55.52 153.396V153.396ZM55.52 159.752C54.9353 159.742 54.3667 159.559 53.8855 159.227C53.4043 158.894 53.032 158.427 52.8153 157.884C52.5986 157.341 52.5472 156.746 52.6675 156.174C52.7879 155.602 53.0745 155.078 53.4916 154.668C53.9087 154.258 54.4376 153.98 55.0118 153.87C55.5861 153.759 56.1802 153.821 56.7195 154.047C57.2588 154.273 57.7193 154.654 58.0432 155.141C58.3671 155.628 58.5399 156.199 58.54 156.784C58.5326 157.578 58.2104 158.336 57.6442 158.893C57.0779 159.449 56.3139 159.758 55.52 159.752" fill="#141E2B"/>
<path d="M82.0561 156.8C82.0664 156.201 81.8981 155.612 81.5726 155.108C81.2471 154.605 80.7791 154.21 80.2282 153.973C79.6774 153.736 79.0686 153.669 78.4794 153.78C77.8902 153.89 77.3472 154.174 76.9197 154.594C76.4921 155.014 76.1993 155.552 76.0785 156.139C75.9577 156.727 76.0143 157.336 76.2413 157.891C76.4683 158.446 76.8553 158.921 77.353 159.255C77.8507 159.589 78.4366 159.768 79.0361 159.768C79.8296 159.773 80.593 159.464 81.159 158.908C81.7251 158.351 82.0476 157.594 82.0561 156.8" fill="#183F77"/>
<path d="M79.036 153.396C78.3686 153.408 77.7195 153.616 77.1703 153.996C76.6211 154.375 76.1962 154.908 75.949 155.528C75.7017 156.148 75.6431 156.828 75.7806 157.481C75.918 158.134 76.2453 158.732 76.7214 159.2C77.1975 159.668 77.8013 159.985 78.4568 160.111C79.1123 160.237 79.7904 160.166 80.406 159.908C81.0216 159.65 81.5472 159.216 81.9169 158.66C82.2866 158.104 82.4839 157.451 82.484 156.784C82.4755 155.878 82.1076 155.012 81.4611 154.376C80.8146 153.741 79.9423 153.388 79.036 153.396V153.396ZM76 156.8C75.9897 156.201 76.158 155.612 76.4835 155.108C76.809 154.605 77.2769 154.21 77.8278 153.973C78.3786 153.736 78.9874 153.669 79.5766 153.78C80.1658 153.89 80.7088 154.174 81.1364 154.594C81.5639 155.014 81.8568 155.552 81.9776 156.139C82.0984 156.727 82.0417 157.336 81.8147 157.891C81.5878 158.446 81.2008 158.921 80.7031 159.255C80.2054 159.589 79.6195 159.768 79.02 159.768C78.2264 159.773 77.463 159.464 76.897 158.908C76.331 158.351 76.0084 157.594 76 156.8Z" fill="#141E2B"/>
<path d="M85.396 32.436H78.148C78.1204 32.4365 78.0929 32.4315 78.0672 32.4213C78.0415 32.4111 78.0181 32.3959 77.9984 32.3765C77.9786 32.3571 77.963 32.334 77.9522 32.3085C77.9415 32.283 77.936 32.2557 77.936 32.228V27.496C77.9318 27.1176 77.778 26.7563 77.5082 26.4909C77.2383 26.2256 76.8745 26.0779 76.496 26.08H74.096C73.8439 26.0789 73.6015 26.1775 73.4217 26.3543C73.2419 26.5311 73.1392 26.7718 73.136 27.024V32.224C73.136 32.2517 73.1305 32.279 73.1198 32.3045C73.1091 32.33 73.0934 32.3531 73.0737 32.3725C73.054 32.3919 73.0306 32.4071 73.0049 32.4173C72.9792 32.4275 72.9517 32.4325 72.924 32.432H66.824C66.0209 32.4267 65.2484 32.7398 64.6756 33.3028C64.1028 33.8658 63.7765 34.6329 63.768 35.436V63.684C63.768 66.672 67.268 68.044 68.34 68.392C68.3819 68.4062 68.4183 68.4331 68.4441 68.4689C68.4699 68.5048 68.4839 68.5478 68.484 68.592V70.496H70.332V69.056C70.3325 69.0264 70.3391 68.9973 70.3515 68.9704C70.3639 68.9435 70.3818 68.9195 70.404 68.9C70.4261 68.8801 70.4521 68.8652 70.4804 68.8563C70.5087 68.8473 70.5386 68.8445 70.568 68.848C71.7 68.972 73.144 69.06 74.744 69.092C74.7996 69.0931 74.8525 69.1158 74.8914 69.1555C74.9303 69.1951 74.9521 69.2485 74.952 69.304V71.2H77.936V69.32C77.9371 69.2652 77.9593 69.2128 77.9981 69.1741C78.0369 69.1353 78.0892 69.113 78.144 69.112C79.6796 69.0908 81.2127 68.9827 82.736 68.788C82.7661 68.7834 82.7968 68.7853 82.8261 68.7937C82.8553 68.802 82.8824 68.8165 82.9056 68.8362C82.9287 68.856 82.9474 68.8805 82.9602 68.908C82.9731 68.9356 82.9798 68.9656 82.98 68.996V70.52H84.828V68.376C84.8281 68.3339 84.8407 68.2928 84.8642 68.2579C84.8877 68.223 84.9211 68.1959 84.96 68.18C86.424 67.596 88.876 66.24 88.876 63.708V35.86C88.8676 34.9448 88.4964 34.0703 87.844 33.4284C87.1916 32.7865 86.3113 32.4296 85.396 32.436V32.436ZM76.444 30.952C76.4435 30.9798 76.4375 31.0073 76.4264 31.0328C76.4152 31.0583 76.3992 31.0814 76.3791 31.1007C76.3591 31.1201 76.3354 31.1352 76.3095 31.1454C76.2836 31.1556 76.2559 31.1605 76.228 31.16H74.228C74.2004 31.1605 74.1729 31.1555 74.1472 31.1453C74.1215 31.1351 74.0981 31.1199 74.0784 31.1005C74.0586 31.0811 74.0429 31.058 74.0322 31.0325C74.0215 31.007 74.016 30.9797 74.016 30.952V27.48C74.016 27.4238 74.0384 27.3698 74.0781 27.3301C74.1179 27.2903 74.1718 27.268 74.228 27.268H76.228C76.2846 27.268 76.339 27.2902 76.3794 27.3298C76.4198 27.3695 76.443 27.4234 76.444 27.48V30.952Z" fill="#FEFEFE"/>
<path d="M85.3961 32.0199H78.3601V27.4959C78.358 27.2533 78.3081 27.0134 78.2133 26.79C78.1185 26.5665 77.9806 26.364 77.8075 26.1939C77.6344 26.0238 77.4295 25.8894 77.2045 25.7985C76.9795 25.7076 76.7388 25.6618 76.4961 25.6639H74.0961C73.9159 25.6624 73.7372 25.6963 73.5701 25.7638C73.403 25.8313 73.2509 25.931 73.1224 26.0573C72.9939 26.1836 72.8915 26.334 72.8211 26.4998C72.7507 26.6657 72.7136 26.8438 72.7121 27.0239V32.0199H66.8321C65.9172 32.0125 65.0368 32.3685 64.3843 33.0098C63.7318 33.651 63.3605 34.5251 63.3521 35.4399V63.688C63.3521 66.828 66.7881 68.3039 68.0681 68.748V70.708C68.0681 70.7356 68.0736 70.763 68.0843 70.7885C68.095 70.814 68.1107 70.8371 68.1304 70.8565C68.1501 70.8758 68.1735 70.8911 68.1992 70.9013C68.2249 70.9115 68.2524 70.9165 68.2801 70.9159H70.5521C70.5799 70.9165 70.6076 70.9115 70.6335 70.9014C70.6594 70.8912 70.6831 70.876 70.7032 70.8567C70.7232 70.8374 70.7393 70.8143 70.7504 70.7888C70.7616 70.7633 70.7676 70.7358 70.7681 70.708V69.292C71.8201 69.4 73.1121 69.476 74.5321 69.512V71.388C74.5321 71.4442 74.5544 71.4981 74.5942 71.5379C74.6339 71.5776 74.6878 71.6 74.7441 71.6H78.1561C78.2123 71.6 78.2662 71.5776 78.306 71.5379C78.3457 71.4981 78.3681 71.4442 78.3681 71.388V69.5039C80.0201 69.4599 81.4561 69.3599 82.5601 69.2159V70.708C82.5606 70.7358 82.5666 70.7633 82.5777 70.7888C82.5889 70.8143 82.6049 70.8374 82.625 70.8567C82.645 70.876 82.6687 70.8912 82.6946 70.9014C82.7206 70.9115 82.7482 70.9165 82.7761 70.9159H85.0481C85.0757 70.9165 85.1032 70.9115 85.1289 70.9013C85.1546 70.8911 85.178 70.8758 85.1977 70.8565C85.2175 70.8371 85.2332 70.814 85.2439 70.7885C85.2546 70.763 85.2601 70.7356 85.2601 70.708V68.496C86.8321 67.844 89.3121 66.388 89.3121 63.696V35.8599C89.3026 34.8327 88.8856 33.8512 88.1528 33.1311C87.42 32.4111 86.4314 32.0114 85.4041 32.0199H85.3961ZM88.8841 63.688C88.8841 66.22 86.4321 67.5759 84.9681 68.1599C84.9291 68.1758 84.8957 68.203 84.8722 68.2379C84.8487 68.2728 84.8361 68.3139 84.8361 68.356V70.5H82.9881V68.976C82.9877 68.9454 82.9807 68.9153 82.9676 68.8876C82.9545 68.86 82.9355 68.8356 82.9121 68.8159C82.8886 68.7973 82.8617 68.7835 82.8329 68.7752C82.804 68.767 82.7739 68.7645 82.7441 68.768C81.2208 68.9626 79.6876 69.0708 78.1521 69.092C78.0972 69.093 78.0449 69.1152 78.0061 69.154C77.9673 69.1928 77.9451 69.2451 77.9441 69.3V71.2H74.9601V69.328C74.9601 69.2717 74.9377 69.2178 74.898 69.178C74.8582 69.1383 74.8043 69.1159 74.7481 69.1159C73.1481 69.0839 71.7081 68.9959 70.5761 68.8719C70.5466 68.8684 70.5167 68.8712 70.4884 68.8802C70.4602 68.8892 70.4341 68.9041 70.4121 68.924C70.3898 68.9435 70.372 68.9675 70.3596 68.9943C70.3472 69.0212 70.3405 69.0504 70.3401 69.08V70.52H68.4921V68.6159C68.4919 68.5718 68.4779 68.5287 68.4521 68.4929C68.4263 68.457 68.3899 68.4301 68.3481 68.4159C67.2761 68.0679 63.7801 66.696 63.7801 63.708V35.4399C63.7875 34.6372 64.1129 33.8701 64.6851 33.307C65.2572 32.7439 66.0293 32.4306 66.8321 32.4359H72.9241C72.9517 32.4365 72.9792 32.4315 73.0049 32.4213C73.0306 32.4111 73.054 32.3958 73.0737 32.3765C73.0935 32.3571 73.1092 32.334 73.1199 32.3085C73.1306 32.283 73.1361 32.2556 73.1361 32.2279V27.0279C73.1392 26.7758 73.2419 26.5351 73.4217 26.3583C73.6015 26.1815 73.8439 26.0829 74.0961 26.0839H76.4961C76.8745 26.0818 77.2384 26.2295 77.5082 26.4949C77.778 26.7602 77.9318 27.1215 77.9361 27.4999V32.2279C77.9361 32.2556 77.9416 32.283 77.9523 32.3085C77.963 32.334 77.9787 32.3571 77.9984 32.3765C78.0181 32.3958 78.0415 32.4111 78.0672 32.4213C78.0929 32.4315 78.1204 32.4365 78.1481 32.4359H85.3961C86.3113 32.4296 87.1917 32.7865 87.8441 33.4284C88.4965 34.0703 88.8676 34.9447 88.8761 35.8599L88.8841 63.688Z" fill="#3A0901"/>
<path d="M76.228 27.2681H74.228C74.1717 27.2681 74.1178 27.2904 74.0781 27.3301C74.0383 27.3699 74.016 27.4238 74.016 27.4801V30.952C74.0159 30.9797 74.0215 31.0071 74.0322 31.0326C74.0429 31.0581 74.0585 31.0812 74.0783 31.1006C74.098 31.1199 74.1214 31.1352 74.1471 31.1454C74.1728 31.1556 74.2003 31.1606 74.228 31.1601H76.228C76.2558 31.1606 76.2835 31.1556 76.3094 31.1455C76.3353 31.1353 76.359 31.1201 76.379 31.1008C76.3991 31.0815 76.4152 31.0584 76.4263 31.0329C76.4374 31.0074 76.4434 30.9799 76.444 30.952V27.4801C76.4429 27.4235 76.4197 27.3695 76.3793 27.3299C76.3389 27.2902 76.2846 27.268 76.228 27.2681V27.2681ZM76 30.7401H74.436V27.6881H76V30.7401Z" fill="#3A0901"/>
<path d="M83.8119 35.02H68.4839C67.8131 35.0347 67.1753 35.3143 66.7098 35.7977C66.2444 36.2811 65.9892 36.929 65.9999 37.6V62.224C65.9999 65.168 69.6639 66.408 70.9519 66.624C74.521 67.044 78.1269 67.044 81.6959 66.624C82.9799 66.42 86.6479 65.18 86.6479 62.224V37.976C86.6619 37.2085 86.3714 36.4667 85.84 35.9127C85.3085 35.3588 84.5794 35.0378 83.8119 35.02" fill="#FEFEFE"/>
<path d="M83.812 34.604H68.4841C67.7014 34.6177 66.956 34.9404 66.4104 35.5017C65.8649 36.063 65.5635 36.8173 65.572 37.6V62.224C65.572 65.112 68.8321 66.704 70.8841 67.024C72.6877 67.2578 74.5055 67.3648 76.324 67.344C78.1426 67.3646 79.9604 67.2577 81.764 67.024C83.816 66.704 87.076 65.112 87.076 62.224V37.976C87.0889 37.0964 86.7526 36.2477 86.1408 35.6156C85.529 34.9836 84.6916 34.6198 83.812 34.604V34.604ZM86.648 62.236C86.648 65.18 82.98 66.42 81.696 66.636C78.127 67.056 74.5211 67.056 70.9521 66.636C69.6641 66.432 66 65.192 66 62.236V37.6C65.9861 36.927 66.2399 36.276 66.7057 35.79C67.1714 35.3039 67.8111 35.0227 68.4841 35.008H83.812C84.5795 35.0258 85.3086 35.3468 85.8401 35.9008C86.3715 36.4547 86.662 37.1965 86.648 37.964V62.236Z" fill="#3A0901"/>
<path d="M66 50.904V62.236C66 65.18 69.664 66.42 70.952 66.636C74.521 67.056 78.127 67.056 81.696 66.636C82.98 66.432 86.648 65.192 86.648 62.236V50.4C84.78 50.484 82.624 50.644 80.228 50.872C75.4981 51.3544 70.732 51.3651 66 50.904" fill="#E62D3B"/>
<path d="M87.008 50.028C86.9876 50.0078 86.9632 49.992 86.9363 49.9816C86.9095 49.9713 86.8808 49.9667 86.852 49.968C84.928 50.052 82.684 50.216 80.188 50.456C75.407 50.9419 70.5891 50.9419 65.808 50.456C65.7786 50.4522 65.7486 50.4549 65.7203 50.4639C65.692 50.4728 65.6659 50.4879 65.644 50.508C65.6218 50.5275 65.6039 50.5515 65.5915 50.5784C65.5791 50.6052 65.5725 50.6344 65.572 50.664V62.228C65.572 65.116 68.832 66.708 70.884 67.028C72.6877 67.2618 74.5054 67.3687 76.324 67.348C78.1426 67.3686 79.9604 67.2617 81.764 67.028C83.816 66.708 87.076 65.116 87.076 62.228V50.18C87.0758 50.1513 87.0696 50.1231 87.0579 50.0969C87.0462 50.0707 87.0292 50.0473 87.008 50.028V50.028ZM86.648 62.236C86.648 65.18 82.98 66.42 81.696 66.636C78.127 67.056 74.5211 67.056 70.952 66.636C69.664 66.432 66 65.192 66 62.236V50.904C70.732 51.3651 75.4982 51.3544 80.228 50.872C82.628 50.644 84.78 50.472 86.648 50.4V62.236Z" fill="#3A0901"/>
<path d="M74.312 42.492H68.484V47.868H74.312V42.492Z" fill="#B20B1F"/>
<path d="M74.5241 42.076H68.2721C68.2444 42.0754 68.2169 42.0804 68.1912 42.0907C68.1655 42.1009 68.1421 42.1161 68.1224 42.1355C68.1026 42.1548 68.087 42.1779 68.0763 42.2034C68.0656 42.2289 68.06 42.2563 68.0601 42.284V48.08C68.0601 48.1362 68.0824 48.1901 68.1221 48.2299C68.1619 48.2696 68.2158 48.292 68.2721 48.292H74.5241C74.5803 48.292 74.6342 48.2696 74.674 48.2299C74.7137 48.1901 74.7361 48.1362 74.7361 48.08V42.284C74.7361 42.2563 74.7306 42.2289 74.7198 42.2034C74.7091 42.1779 74.6935 42.1548 74.6737 42.1355C74.654 42.1161 74.6306 42.1009 74.6049 42.0907C74.5792 42.0804 74.5517 42.0754 74.5241 42.076V42.076ZM74.3121 47.872H68.4841V42.492H74.3121V47.872Z" fill="#3A0901"/>
<path d="M73.956 54.452C73.8905 54.4528 73.8267 54.473 73.7726 54.5099C73.7186 54.5469 73.6766 54.599 73.6521 54.6597C73.6276 54.7205 73.6216 54.7871 73.6348 54.8512C73.6481 54.9154 73.68 54.9741 73.7266 55.0202C73.7732 55.0662 73.8324 55.0974 73.8967 55.1099C73.9609 55.1224 74.0275 55.1156 74.0879 55.0904C74.1484 55.0651 74.2 55.0226 74.2363 54.9681C74.2726 54.9136 74.292 54.8495 74.292 54.784C74.292 54.7401 74.2832 54.6966 74.2663 54.6561C74.2494 54.6155 74.2246 54.5787 74.1933 54.5478C74.1621 54.517 74.125 54.4926 74.0842 54.4762C74.0435 54.4597 73.9999 54.4515 73.956 54.452" fill="#FEFEFE"/>
<path d="M73.956 54.14C73.828 54.1416 73.7033 54.181 73.5978 54.2534C73.4922 54.3257 73.4104 54.4277 73.3627 54.5465C73.315 54.6652 73.3035 54.7955 73.3297 54.9207C73.356 55.046 73.4187 55.1607 73.51 55.2504C73.6014 55.34 73.7172 55.4006 73.8429 55.4246C73.9687 55.4485 74.0987 55.4346 74.2165 55.3847C74.3344 55.3348 74.4349 55.2512 74.5052 55.1443C74.5756 55.0374 74.6127 54.912 74.612 54.784C74.6114 54.6986 74.594 54.6141 74.5607 54.5354C74.5274 54.4567 74.4789 54.3854 74.4179 54.3256C74.357 54.2657 74.2848 54.2185 74.2055 54.1866C74.1262 54.1548 74.0414 54.139 73.956 54.14V54.14ZM73.956 55.116C73.8905 55.1152 73.8267 55.0951 73.7726 55.0581C73.7186 55.0212 73.6766 54.969 73.6521 54.9083C73.6276 54.8476 73.6216 54.781 73.6348 54.7168C73.6481 54.6527 73.68 54.5939 73.7266 54.5479C73.7732 54.5018 73.8324 54.4706 73.8967 54.4581C73.9609 54.4456 74.0275 54.4524 74.0879 54.4777C74.1484 54.5029 74.2 54.5455 74.2363 54.6C74.2726 54.6545 74.292 54.7185 74.292 54.784C74.292 54.828 74.2833 54.8715 74.2663 54.912C74.2494 54.9525 74.2246 54.9893 74.1933 55.0202C74.1621 55.0511 74.125 55.0755 74.0842 55.0919C74.0435 55.1084 73.9999 55.1165 73.956 55.116" fill="#3A0901"/>
<path d="M69.7639 58.084C69.6985 58.0848 69.6347 58.1049 69.5806 58.1419C69.5265 58.1788 69.4846 58.231 69.4601 58.2917C69.4356 58.3524 69.4296 58.419 69.4428 58.4832C69.4561 58.5473 69.488 58.6061 69.5346 58.6521C69.5812 58.6981 69.6403 58.7294 69.7046 58.7419C69.7689 58.7543 69.8355 58.7475 69.8959 58.7223C69.9563 58.6971 70.008 58.6545 70.0443 58.6C70.0806 58.5455 70.0999 58.4815 70.1 58.416C70.1 58.372 70.0912 58.3285 70.0743 58.288C70.0574 58.2475 70.0326 58.2107 70.0013 58.1798C69.97 58.1489 69.933 58.1245 69.8922 58.1081C69.8515 58.0917 69.8079 58.0835 69.7639 58.084" fill="#FEFEFE"/>
<path d="M69.764 57.772C69.636 57.7735 69.5114 57.813 69.4058 57.8853C69.3002 57.9577 69.2184 58.0596 69.1707 58.1784C69.123 58.2972 69.1115 58.4274 69.1377 58.5527C69.164 58.678 69.2267 58.7927 69.318 58.8823C69.4094 58.972 69.5252 59.0326 69.6509 59.0565C69.7767 59.0804 69.9067 59.0666 70.0246 59.0167C70.1424 58.9668 70.2429 58.8831 70.3133 58.7762C70.3836 58.6693 70.4208 58.5439 70.42 58.416C70.4195 58.3305 70.4021 58.246 70.3688 58.1674C70.3355 58.0887 70.2869 58.0174 70.226 57.9575C70.165 57.8976 70.0928 57.8504 70.0135 57.8186C69.9342 57.7868 69.8494 57.7709 69.764 57.772V57.772ZM69.764 58.748C69.6985 58.7472 69.6347 58.727 69.5806 58.6901C69.5266 58.6531 69.4846 58.601 69.4601 58.5403C69.4356 58.4795 69.4296 58.4129 69.4429 58.3488C69.4561 58.2846 69.488 58.2259 69.5346 58.1798C69.5812 58.1338 69.6404 58.1026 69.7047 58.0901C69.769 58.0776 69.8355 58.0844 69.8959 58.1096C69.9564 58.1349 70.008 58.1774 70.0443 58.2319C70.0806 58.2864 70.1 58.3505 70.1 58.416C70.1 58.4599 70.0913 58.5034 70.0743 58.5439C70.0574 58.5845 70.0326 58.6213 70.0013 58.6521C69.9701 58.683 69.933 58.7074 69.8923 58.7238C69.8515 58.7403 69.8079 58.7485 69.764 58.748" fill="#3A0901"/>
<path d="M73.672 60.948C73.6198 60.9488 73.569 60.9651 73.526 60.9948C73.4831 61.0244 73.4499 61.0662 73.4306 61.1147C73.4114 61.1632 73.407 61.2164 73.4179 61.2674C73.4289 61.3185 73.4547 61.3651 73.4922 61.4015C73.5297 61.4378 73.5771 61.4623 73.6285 61.4717C73.6798 61.4811 73.7328 61.4751 73.7807 61.4543C73.8287 61.4336 73.8694 61.3992 73.8977 61.3553C73.9261 61.3115 73.9408 61.2602 73.94 61.208C73.9395 61.1734 73.9322 61.1391 73.9184 61.1073C73.9046 61.0755 73.8848 61.0467 73.8599 61.0225C73.835 60.9984 73.8056 60.9794 73.7734 60.9666C73.7411 60.9538 73.7067 60.9475 73.672 60.948" fill="#FEFEFE"/>
<path d="M73.672 60.636C73.5584 60.6384 73.4481 60.6743 73.3549 60.7392C73.2617 60.804 73.1897 60.895 73.1481 61.0007C73.1065 61.1064 73.097 61.222 73.1209 61.333C73.1448 61.4441 73.201 61.5456 73.2824 61.6248C73.3638 61.704 73.4668 61.7573 73.5784 61.7781C73.6901 61.7989 73.8054 61.7863 73.9099 61.7418C74.0144 61.6972 74.1033 61.6228 74.1656 61.5278C74.2279 61.4328 74.2608 61.3216 74.26 61.208C74.2589 61.1318 74.2429 61.0566 74.2128 60.9867C74.1827 60.9167 74.1391 60.8533 74.0845 60.8002C74.0299 60.7471 73.9653 60.7053 73.8946 60.6771C73.8238 60.6489 73.7482 60.635 73.672 60.636V60.636ZM73.672 61.472C73.6199 61.4712 73.5693 61.4551 73.5264 61.4256C73.4835 61.3961 73.4503 61.3546 73.431 61.3063C73.4116 61.258 73.4069 61.205 73.4176 61.1541C73.4282 61.1032 73.4536 61.0565 73.4907 61.02C73.5278 60.9834 73.5748 60.9587 73.6259 60.9488C73.677 60.939 73.7299 60.9444 73.7779 60.9645C73.8259 60.9846 73.8669 61.0184 73.8958 61.0618C73.9246 61.1051 73.94 61.156 73.94 61.208C73.94 61.243 73.933 61.2777 73.9195 61.31C73.906 61.3423 73.8862 61.3716 73.8613 61.3961C73.8363 61.4207 73.8067 61.44 73.7742 61.4531C73.7418 61.4661 73.707 61.4725 73.672 61.472Z" fill="#3A0901"/>
<path d="M81.096 59.692C81.0102 59.6935 80.9267 59.7205 80.856 59.7693C80.7854 59.8182 80.7307 59.8868 80.699 59.9666C80.6672 60.0464 80.6597 60.1338 80.6774 60.2178C80.6951 60.3019 80.7373 60.3788 80.7985 60.439C80.8598 60.4992 80.9375 60.5399 81.0219 60.5561C81.1062 60.5723 81.1935 60.5632 81.2727 60.53C81.3519 60.4967 81.4195 60.4409 81.4671 60.3694C81.5146 60.2978 81.54 60.2139 81.54 60.128C81.5395 60.0702 81.5276 60.0131 81.505 59.9599C81.4824 59.9067 81.4496 59.8585 81.4083 59.818C81.3671 59.7775 81.3183 59.7456 81.2647 59.7239C81.2111 59.7023 81.1538 59.6914 81.096 59.692" fill="#FEFEFE"/>
<path d="M81.0961 59.376C80.9479 59.3784 80.8037 59.4245 80.6816 59.5085C80.5595 59.5926 80.465 59.7109 80.4099 59.8485C80.3548 59.9861 80.3416 60.1369 80.372 60.2819C80.4023 60.427 80.4749 60.5599 80.5805 60.6638C80.6862 60.7678 80.8202 60.8383 80.9657 60.8663C81.1112 60.8944 81.2618 60.8788 81.3985 60.8215C81.5352 60.7643 81.652 60.6679 81.7341 60.5445C81.8162 60.4211 81.86 60.2762 81.86 60.128C81.8579 59.9271 81.7764 59.7353 81.6332 59.5944C81.4901 59.4535 81.2969 59.3749 81.0961 59.376V59.376ZM81.0961 60.576C81.0102 60.5744 80.9267 60.5475 80.856 60.4987C80.7854 60.4498 80.7308 60.3812 80.699 60.3014C80.6672 60.2216 80.6597 60.1342 80.6774 60.0502C80.6951 59.9661 80.7373 59.8892 80.7986 59.829C80.8598 59.7688 80.9375 59.7281 81.0219 59.7119C81.1062 59.6957 81.1935 59.7048 81.2727 59.738C81.3519 59.7712 81.4195 59.8271 81.4671 59.8986C81.5147 59.9701 81.54 60.0541 81.5401 60.14C81.5395 60.1978 81.5276 60.2549 81.505 60.3081C81.4824 60.3613 81.4496 60.4095 81.4084 60.45C81.3671 60.4905 81.3183 60.5224 81.2647 60.5441C81.2111 60.5657 81.1538 60.5765 81.0961 60.576" fill="#3A0901"/>
<path d="M92.608 114.356C92.5514 114.356 92.4971 114.378 92.4567 114.418C92.4163 114.458 92.3931 114.511 92.392 114.568C92.392 131 87.592 133.108 83.44 133.108C80.016 133.108 76.512 131.652 76.512 120.852V67.044C76.512 67.0164 76.5065 66.989 76.4958 66.9635C76.4851 66.938 76.4694 66.9149 76.4497 66.8955C76.43 66.8762 76.4065 66.8609 76.3808 66.8507C76.3551 66.8405 76.3277 66.8355 76.3 66.836C76.2724 66.8355 76.2449 66.8405 76.2192 66.8507C76.1935 66.8609 76.1701 66.8762 76.1503 66.8955C76.1306 66.9149 76.1149 66.938 76.1042 66.9635C76.0935 66.989 76.088 67.0164 76.088 67.044V120.852C76.088 129.736 78.288 133.528 83.44 133.528C87.808 133.528 92.82 131.372 92.82 114.568C92.82 114.512 92.7977 114.458 92.7579 114.418C92.7182 114.378 92.6642 114.356 92.608 114.356" fill="#3A0901"/>
<path d="M84.736 20.7039C84.4562 20.7029 84.1874 20.8124 83.9881 21.0088C83.7888 21.2051 83.6751 21.4722 83.672 21.7519V24.9999C83.6635 25.8122 83.3333 26.588 82.7536 27.1572C82.174 27.7263 81.3923 28.0423 80.58 28.0359H76.424V30.1319H80.58C81.9515 30.1384 83.2701 29.6027 84.2486 28.6415C85.227 27.6803 85.786 26.3714 85.804 24.9999V21.7519C85.8008 21.4715 85.6866 21.2038 85.4864 21.0073C85.2863 20.8109 85.0164 20.7018 84.736 20.7039" fill="#183F77"/>
<path d="M84.736 20.284C84.3438 20.2818 83.9667 20.435 83.6871 20.7101C83.4075 20.9852 83.2482 21.3598 83.244 21.752V25C83.2377 25.7005 82.9536 26.3699 82.4541 26.8611C81.9546 27.3524 81.2806 27.6253 80.58 27.62H76.212C76.1843 27.6194 76.1569 27.6244 76.1312 27.6346C76.1055 27.6448 76.0821 27.6601 76.0623 27.6794C76.0426 27.6988 76.0269 27.7219 76.0162 27.7474C76.0055 27.7729 76 27.8003 76 27.828V30.34C76 30.3962 76.0223 30.4501 76.0621 30.4899C76.1018 30.5296 76.1558 30.552 76.212 30.552H80.58C81.3154 30.5583 82.0449 30.4197 82.7267 30.1441C83.4086 29.8685 84.0294 29.4613 84.5539 28.9458C85.0784 28.4302 85.4962 27.8164 85.7834 27.1394C86.0707 26.4623 86.2217 25.7354 86.228 25V21.752C86.2264 21.5576 86.1866 21.3655 86.1108 21.1865C86.0349 21.0075 85.9246 20.8453 85.786 20.7089C85.6475 20.5726 85.4835 20.4649 85.3033 20.392C85.1231 20.3191 84.9304 20.2824 84.736 20.284V20.284ZM85.804 25C85.7861 26.3714 85.227 27.6803 84.2486 28.6415C83.2702 29.6027 81.9516 30.1384 80.58 30.132H76.424V28.036H80.58C81.3923 28.0424 82.174 27.7263 82.7537 27.1572C83.3333 26.588 83.6636 25.8123 83.672 25V21.752C83.6886 21.4805 83.8082 21.2257 84.0063 21.0393C84.2044 20.853 84.4661 20.7493 84.738 20.7493C85.0099 20.7493 85.2716 20.853 85.4697 21.0393C85.6678 21.2257 85.7874 21.4805 85.804 21.752V25Z" fill="#141E2B"/>
<path d="M103.036 109.344C102.838 109.071 102.542 108.885 102.21 108.826C101.878 108.767 101.536 108.839 101.256 109.028C99.096 110.5 92.316 114.276 89.616 112.388C86.384 110.128 88.164 104.096 88.184 104.036C88.2311 103.877 88.2464 103.71 88.2289 103.545C88.2114 103.38 88.1614 103.22 88.0819 103.074C88.0023 102.928 87.8948 102.8 87.7654 102.696C87.636 102.592 87.4874 102.514 87.328 102.468C87.2073 102.432 87.082 102.413 86.956 102.412C86.7465 102.412 86.5404 102.465 86.356 102.564C86.2066 102.638 86.0743 102.743 85.9676 102.871C85.8608 102.999 85.7819 103.148 85.736 103.308C85.636 103.624 83.392 111.124 88.136 114.44C89.1511 115.105 90.347 115.441 91.56 115.4C96.264 115.4 102.068 111.536 102.716 111.096C102.853 111.003 102.97 110.883 103.06 110.744C103.15 110.605 103.212 110.45 103.242 110.287C103.272 110.124 103.269 109.957 103.233 109.795C103.198 109.633 103.131 109.48 103.036 109.344" fill="#B20B1F"/>
<path d="M103.388 109.108C103.125 108.742 102.73 108.493 102.286 108.414C101.842 108.335 101.385 108.432 101.012 108.684C98.48 110.408 92.156 113.648 89.864 112.048C86.876 109.96 88.572 104.212 88.592 104.156C88.6551 103.944 88.6756 103.722 88.6524 103.502C88.6292 103.282 88.5627 103.069 88.4567 102.875C88.3507 102.681 88.2074 102.509 88.035 102.371C87.8625 102.233 87.6644 102.13 87.452 102.068C87.0191 101.938 86.5524 101.982 86.152 102.192C85.956 102.295 85.7822 102.435 85.6408 102.606C85.4993 102.776 85.393 102.972 85.328 103.184C85.224 103.516 82.9 111.296 87.888 114.784C88.9743 115.504 90.2577 115.867 91.56 115.824C96.396 115.824 102.3 111.892 102.956 111.444C103.139 111.32 103.295 111.162 103.416 110.977C103.537 110.792 103.62 110.586 103.66 110.369C103.701 110.151 103.697 109.929 103.65 109.713C103.604 109.497 103.514 109.293 103.388 109.112V109.108ZM91.56 115.4C90.3467 115.443 89.1502 115.107 88.136 114.44C83.392 111.124 85.636 103.64 85.736 103.308C85.782 103.148 85.8609 102.999 85.9676 102.871C86.0744 102.743 86.2066 102.638 86.356 102.564C86.5404 102.465 86.7465 102.413 86.956 102.412C87.082 102.413 87.2073 102.432 87.328 102.468C87.4874 102.514 87.6361 102.592 87.7654 102.696C87.8948 102.8 88.0024 102.928 88.0819 103.074C88.1615 103.22 88.2114 103.38 88.2289 103.545C88.2465 103.71 88.2312 103.877 88.184 104.036C88.164 104.096 86.384 110.128 89.616 112.388C92.316 114.276 99.096 110.5 101.256 109.028C101.536 108.839 101.878 108.767 102.21 108.826C102.542 108.885 102.838 109.071 103.036 109.344C103.131 109.48 103.198 109.633 103.233 109.795C103.269 109.957 103.272 110.124 103.242 110.287C103.212 110.45 103.15 110.605 103.06 110.744C102.97 110.883 102.853 111.003 102.716 111.096C102.068 111.536 96.264 115.4 91.56 115.4" fill="#3A0901"/>
<path d="M155.9 49.368H155.708C136.248 49.368 109.708 72.76 102.296 96.816C98.7359 108.388 99.1399 117.184 103.496 122.956C107.852 128.728 116.208 131.6 128.4 131.6C141.684 131.6 149.312 129.296 153.128 124.132C157.824 117.776 157.084 106.764 150.648 87.332C144.704 69.368 146.808 59.884 149.62 55.092C151.708 51.532 154.42 49.996 155.92 49.376" fill="#B20B1F"/>
<path d="M144.884 54.544C145.883 52.7918 147.288 51.3049 148.98 50.208C130.58 54.608 108.872 75.436 102.296 96.816C101.174 100.328 100.42 103.948 100.044 107.616C100.404 110.908 101.444 113.7 103.16 115.972C107.084 121.172 114.66 123.804 125.68 123.804C137.704 123.804 144.608 121.72 148.06 117.044C152.312 111.292 151.66 101.324 145.816 83.72C140.436 67.464 142.34 58.88 144.884 54.544Z" fill="#E62D3B"/>
<path d="M157.096 48.988C147.496 48.428 135.636 53.668 124.596 63.368C113.748 72.9 105.472 85.0481 101.888 96.6961C98.304 108.344 98.716 117.32 103.16 123.2C107.604 129.08 116.064 132.02 128.38 132.02C141.816 132.02 149.548 129.664 153.452 124.384C158.252 117.904 157.516 106.784 151.032 87.1841C145.144 69.3801 147.2 60.016 149.96 55.296C152.856 50.348 157.088 49.4 157.128 49.392C157.169 49.3745 157.203 49.3446 157.225 49.3067C157.248 49.2688 157.259 49.2247 157.255 49.1806C157.252 49.1365 157.234 49.0946 157.206 49.0608C157.177 49.027 157.139 49.0029 157.096 48.992V48.988ZM150.628 87.3281C157.064 106.776 157.804 117.788 153.104 124.128C149.292 129.304 141.664 131.6 128.4 131.6C116.228 131.6 107.856 128.688 103.52 122.948C99.184 117.208 98.756 108.38 102.32 96.8081C109.72 72.752 136.272 49.36 155.732 49.36H155.924C154.4 50 151.684 51.524 149.6 55.084C146.8 59.884 144.684 69.36 150.628 87.324" fill="#3A0901"/>
<path d="M131.2 63.1481C131.263 63.108 131.317 63.056 131.36 62.9949C131.402 62.9338 131.432 62.8648 131.448 62.7921C131.471 62.6529 131.441 62.5101 131.364 62.3921C131.323 62.3282 131.269 62.2732 131.206 62.2303C131.144 62.1874 131.073 62.1574 130.998 62.1421C130.924 62.1269 130.847 62.1266 130.773 62.1414C130.698 62.1561 130.627 62.1856 130.564 62.2281C130.024 62.5801 129.46 62.9881 128.884 63.4281C128.824 63.474 128.775 63.5316 128.738 63.5974C128.701 63.6632 128.679 63.7358 128.671 63.8108C128.664 63.8857 128.672 63.9614 128.694 64.0331C128.717 64.1049 128.755 64.1712 128.804 64.2281C128.902 64.3405 129.04 64.4113 129.188 64.4261C129.337 64.441 129.485 64.3988 129.604 64.3081C130.117 63.8983 130.651 63.5151 131.204 63.1601" fill="#FEFEFE"/>
<path d="M131.732 62.14C131.584 61.9225 131.357 61.7714 131.099 61.7191C130.841 61.6668 130.573 61.7174 130.352 61.86C129.761 62.2439 129.189 62.6578 128.64 63.1C128.538 63.1797 128.454 63.2793 128.392 63.3928C128.33 63.5063 128.292 63.6313 128.28 63.76C128.266 63.8884 128.278 64.0183 128.315 64.142C128.352 64.2656 128.414 64.3806 128.496 64.48C128.666 64.6815 128.907 64.8089 129.17 64.8351C129.432 64.8612 129.694 64.7841 129.9 64.62C130.432 64.196 130.952 63.82 131.448 63.496C131.557 63.426 131.65 63.3352 131.724 63.2288C131.797 63.1224 131.849 63.0025 131.876 62.876C131.903 62.75 131.904 62.6198 131.879 62.4934C131.854 62.3669 131.804 62.2468 131.732 62.14ZM128.828 64.216C128.779 64.1592 128.741 64.0929 128.718 64.0211C128.696 63.9494 128.688 63.8737 128.695 63.7988C128.703 63.7238 128.725 63.6512 128.762 63.5854C128.799 63.5196 128.848 63.4619 128.908 63.416C129.484 62.96 130.048 62.552 130.588 62.216C130.651 62.1736 130.722 62.1441 130.797 62.1293C130.871 62.1146 130.948 62.1148 131.022 62.1301C131.097 62.1454 131.168 62.1753 131.23 62.2183C131.293 62.2612 131.347 62.3162 131.388 62.38C131.466 62.4979 131.496 62.6409 131.472 62.78C131.456 62.8528 131.426 62.9217 131.384 62.9828C131.341 63.0439 131.287 63.096 131.224 63.136C130.671 63.4911 130.137 63.8743 129.624 64.284C129.505 64.3748 129.357 64.417 129.208 64.4021C129.06 64.3873 128.922 64.3164 128.824 64.204" fill="#3A0901"/>
<path d="M127.784 65.9161C127.838 65.8642 127.88 65.8021 127.91 65.7333C127.939 65.6646 127.954 65.5907 127.954 65.5161C127.954 65.4414 127.939 65.3675 127.91 65.2988C127.88 65.2301 127.838 65.1679 127.784 65.1161C127.676 65.0133 127.533 64.9561 127.384 64.9561C127.235 64.9561 127.092 65.0133 126.984 65.1161C125.305 66.7281 123.753 68.4665 122.34 70.3161C122.293 70.3757 122.258 70.4444 122.239 70.5178C122.22 70.5913 122.216 70.668 122.227 70.7431C122.239 70.8182 122.266 70.8901 122.307 70.9543C122.347 71.0185 122.401 71.0735 122.464 71.1161C122.587 71.2022 122.739 71.2378 122.888 71.2155C123.037 71.1932 123.171 71.1146 123.264 70.9961C124.642 69.201 126.153 67.5122 127.784 65.9441" fill="#FEFEFE"/>
<path d="M126.692 64.7999C124.997 66.4301 123.428 68.1872 122 70.0559C121.923 70.1597 121.867 70.2779 121.836 70.4034C121.805 70.529 121.8 70.6595 121.82 70.7873C121.84 70.9151 121.885 71.0376 121.953 71.1476C122.021 71.2576 122.111 71.3529 122.216 71.4279C122.388 71.5446 122.592 71.6047 122.8 71.5999C122.955 71.5993 123.108 71.5629 123.247 71.4935C123.386 71.4241 123.506 71.3237 123.6 71.1999C124.961 69.424 126.455 67.7539 128.068 66.2039C128.163 66.1158 128.238 66.0093 128.291 65.8911C128.343 65.7728 128.37 65.6452 128.372 65.5159C128.374 65.3871 128.35 65.2592 128.302 65.1397C128.254 65.0202 128.183 64.9115 128.092 64.8199C127.906 64.6327 127.655 64.5254 127.391 64.5209C127.127 64.5164 126.872 64.6151 126.68 64.7959L126.692 64.7999ZM122.456 71.0759C122.393 71.0334 122.339 70.9783 122.299 70.9142C122.258 70.85 122.231 70.7781 122.219 70.703C122.208 70.6279 122.212 70.5512 122.231 70.4777C122.251 70.4042 122.285 70.3355 122.332 70.2759C123.745 68.4264 125.297 66.688 126.976 65.0759V65.0759C127.084 64.9732 127.227 64.9159 127.376 64.9159C127.525 64.9159 127.668 64.9732 127.776 65.0759C127.83 65.1278 127.872 65.1899 127.902 65.2586C127.931 65.3274 127.946 65.4013 127.946 65.4759C127.946 65.5506 127.931 65.6245 127.902 65.6932C127.872 65.7619 127.83 65.8241 127.776 65.8759C126.145 67.4441 124.634 69.1328 123.256 70.9279C123.163 71.0465 123.029 71.125 122.88 71.1474C122.731 71.1697 122.579 71.1341 122.456 71.0479" fill="#3A0901"/>
<path d="M128.528 100.316C128.296 100.64 128.027 100.936 127.728 101.2C127.361 101.527 126.958 101.813 126.528 102.052C125.499 102.587 124.375 102.913 123.22 103.012C122.02 103.124 120.82 103.108 119.888 102.736C119.534 102.596 119.215 102.38 118.953 102.103C118.691 101.827 118.493 101.497 118.372 101.136C118.246 100.737 118.178 100.322 118.168 99.9039C118.168 99.3439 118.148 99.2839 118.076 99.2679C118.004 99.2519 117.92 99.2959 117.836 99.8919C117.79 100.353 117.832 100.819 117.96 101.264C118.088 101.691 118.312 102.083 118.614 102.411C118.916 102.739 119.289 102.993 119.704 103.156C120.764 103.58 122.048 103.556 123.272 103.432C124.476 103.302 125.641 102.928 126.696 102.332C127.139 102.062 127.551 101.744 127.924 101.384C128.216 101.089 128.47 100.758 128.68 100.4C128.759 100.271 128.831 100.137 128.896 99.9999C128.944 99.8719 128.984 99.7639 129.012 99.6719C129.056 99.4839 129.072 99.3839 129.056 99.3799C128.897 99.7026 128.721 100.016 128.528 100.32" fill="#3A0901"/>
<path d="M111.788 94.088C111.704 93.992 111.012 94.46 110.616 94.804C110.22 95.148 110.264 95.248 110.352 95.344C110.44 95.44 110.528 95.496 110.924 95.148C111.32 94.8 111.876 94.18 111.788 94.088" fill="#B20B1F"/>
<path d="M112.052 94.964C111.652 95.308 111.704 95.404 111.788 95.5C111.872 95.596 111.968 95.652 112.364 95.308C112.76 94.964 113.316 94.34 113.228 94.244C113.14 94.148 112.448 94.616 112.052 94.964" fill="#B20B1F"/>
<path d="M139.072 94.1401C138.988 94.0441 138.296 94.5121 137.896 94.8561C137.496 95.2001 137.548 95.3001 137.632 95.3961C137.716 95.4921 137.812 95.5481 138.208 95.2041C138.604 94.8601 139.16 94.2321 139.072 94.1401Z" fill="#B20B1F"/>
<path d="M140.512 94.296C140.424 94.2 139.732 94.668 139.336 95.016C138.94 95.364 138.988 95.456 139.072 95.552C139.156 95.648 139.248 95.708 139.648 95.36C140.048 95.012 140.596 94.392 140.512 94.296" fill="#B20B1F"/>
<path d="M115.732 87.8C115.299 87.8078 114.877 87.9435 114.521 88.19C114.164 88.4365 113.889 88.7828 113.728 89.1854C113.568 89.588 113.53 90.0291 113.619 90.4532C113.709 90.8772 113.921 91.2655 114.23 91.5692C114.54 91.8729 114.932 92.0785 115.357 92.1602C115.783 92.2419 116.223 92.196 116.623 92.0284C117.023 91.8608 117.364 91.5788 117.604 91.218C117.844 90.8571 117.972 90.4334 117.972 90C117.97 89.7083 117.91 89.4199 117.796 89.1513C117.683 88.8827 117.517 88.6392 117.309 88.4348C117.101 88.2304 116.854 88.0691 116.584 87.9602C116.313 87.8512 116.024 87.7968 115.732 87.8" fill="#3A0901"/>
<path d="M134.276 87.8C133.843 87.8078 133.421 87.9435 133.065 88.19C132.708 88.4365 132.433 88.7828 132.272 89.1854C132.112 89.588 132.074 90.0291 132.163 90.4532C132.253 90.8772 132.465 91.2655 132.774 91.5692C133.084 91.8729 133.476 92.0785 133.901 92.1602C134.327 92.2419 134.767 92.196 135.167 92.0284C135.566 91.8608 135.908 91.5788 136.148 91.218C136.388 90.8571 136.516 90.4334 136.516 90C136.514 89.7083 136.454 89.4199 136.34 89.1513C136.227 88.8827 136.061 88.6392 135.853 88.4348C135.645 88.2304 135.398 88.0691 135.128 87.9602C134.857 87.8512 134.568 87.7968 134.276 87.8" fill="#3A0901"/>
<path d="M154.424 102.564C154.892 102.24 155.392 101.764 155.96 101.296C156.244 101.052 156.552 100.808 156.848 100.532L157.756 99.6559C159.022 98.4201 160.199 97.0954 161.276 95.6919C163.4 92.8672 165.172 89.7938 166.552 86.54C166.896 85.74 167.212 84.9173 167.5 84.0719C167.64 83.6719 167.78 83.24 167.9 82.82C167.962 82.6365 167.981 82.4413 167.956 82.2493C167.931 82.0573 167.863 81.8735 167.756 81.712C167.647 81.5514 167.503 81.4172 167.336 81.319C167.168 81.2208 166.981 81.1611 166.788 81.1442C166.594 81.1274 166.4 81.1538 166.218 81.2215C166.036 81.2893 165.871 81.3967 165.736 81.5359C165.6 81.674 165.5 81.8428 165.444 82.028L165.248 82.6599C165.107 83.0839 164.959 83.504 164.804 83.92C164.18 85.5872 163.445 87.2108 162.604 88.7799C161.777 90.3576 160.841 91.8759 159.804 93.3239C159.304 94.0679 158.72 94.7439 158.172 95.4479C157.888 95.7959 157.576 96.1199 157.28 96.4559C156.984 96.7919 156.696 97.1319 156.364 97.4359C155.316 98.4987 154.179 99.469 152.964 100.336C152.465 100.711 151.929 101.032 151.364 101.296L153.008 103.744C152.976 103.696 153.524 103.248 154.428 102.564" fill="#B20B1F"/>
<path d="M168.088 81.496C167.947 81.2843 167.761 81.1073 167.542 80.9784C167.323 80.8495 167.077 80.7721 166.824 80.752C166.57 80.7293 166.314 80.7639 166.075 80.8532C165.836 80.9425 165.621 81.0842 165.444 81.268C165.269 81.4485 165.139 81.6678 165.064 81.908L164.868 82.544C164.728 82.944 164.584 83.376 164.428 83.784C163.809 85.4308 163.081 87.0344 162.248 88.584C161.42 90.1473 160.485 91.6509 159.448 93.084C158.956 93.816 158.376 94.488 157.848 95.184C157.572 95.528 157.264 95.844 156.972 96.176C156.68 96.508 156.392 96.848 156.064 97.144C155.027 98.1913 153.93 99.1782 152.78 100.1C151.876 100.784 151.328 101.232 151.36 101.3C151.925 101.036 152.461 100.715 152.96 100.34C154.175 99.4731 155.312 98.5028 156.36 97.44C156.692 97.136 156.972 96.784 157.276 96.456C157.58 96.128 157.884 95.8 158.168 95.452C158.716 94.748 159.3 94.072 159.8 93.328C160.837 91.88 161.773 90.3617 162.6 88.784C163.441 87.2136 164.176 85.5886 164.8 83.92C164.956 83.52 165.104 83.084 165.244 82.664L165.44 82.028C165.496 81.8429 165.596 81.6741 165.732 81.536C165.867 81.3968 166.032 81.2894 166.214 81.2216C166.396 81.1538 166.59 81.1274 166.784 81.1443C166.977 81.1611 167.164 81.2208 167.332 81.319C167.499 81.4172 167.643 81.5515 167.752 81.712C167.859 81.8736 167.927 82.0573 167.952 82.2494C167.977 82.4414 167.958 82.6366 167.896 82.82C167.776 83.22 167.636 83.66 167.496 84.072C167.208 84.904 166.892 85.7267 166.548 86.54C165.168 89.7939 163.396 92.8673 161.272 95.692C160.195 97.0955 159.018 98.4202 157.752 99.656L156.848 100.532C156.548 100.808 156.24 101.052 155.956 101.296C155.388 101.784 154.888 102.24 154.42 102.564C153.516 103.248 152.968 103.696 153 103.744C153.565 103.481 154.101 103.161 154.6 102.788C155.157 102.42 155.691 102.019 156.2 101.588C156.492 101.348 156.808 101.104 157.116 100.832L158.036 99.952C159.317 98.7062 160.507 97.3693 161.596 95.952C163.74 93.1003 165.528 89.9973 166.92 86.712C167.269 85.8907 167.589 85.0614 167.88 84.224C168.024 83.8 168.16 83.38 168.28 82.948C168.357 82.7107 168.38 82.4588 168.346 82.2115C168.312 81.9642 168.222 81.7278 168.084 81.52" fill="#3A0901"/>
<path d="M91.912 114.54C92.4147 114.622 92.9297 114.509 93.352 114.224C93.3449 113.581 93.2286 112.944 93.008 112.34C92.7561 112.203 92.4692 112.145 92.1841 112.173C91.899 112.201 91.6287 112.313 91.408 112.496C91.7048 113.139 91.8759 113.833 91.912 114.54" fill="#FEFEFE"/>
<path d="M91.912 114.54C92.4147 114.622 92.9297 114.509 93.352 114.224C93.3449 113.581 93.2286 112.944 93.008 112.34C92.7561 112.203 92.4692 112.145 92.1841 112.173C91.899 112.201 91.6287 112.313 91.408 112.496C91.7048 113.139 91.8759 113.833 91.912 114.54V114.54Z" stroke="#231F20" stroke-linecap="round" stroke-linejoin="round"/>
<path d="M129.16 137.192H119.072V154.512H129.16V137.192Z" fill="#8BA7B2"/>
<path d="M129.16 139.976V137.176H119.072V141.764C122.48 141.463 125.856 140.865 129.16 139.976V139.976Z" fill="#708F99"/>
<path d="M152.716 130H97.724C97.1355 129.996 96.5694 130.225 96.1495 130.637C95.7297 131.05 95.4903 131.612 95.484 132.2V134.576C95.4903 135.165 95.7297 135.726 96.1495 136.139C96.5694 136.551 97.1355 136.78 97.724 136.776H152.716C153.304 136.779 153.869 136.55 154.288 136.137C154.707 135.725 154.946 135.164 154.952 134.576V132.2C154.946 131.612 154.707 131.051 154.288 130.639C153.869 130.226 153.304 129.997 152.716 130Z" fill="#122D56"/>
<path d="M152.716 132.368H97.724C96.488 132.368 95.484 133.012 95.484 133.8V135.344C95.484 136.144 96.488 136.776 97.724 136.776H152.716C153.948 136.776 154.952 136.132 154.952 135.344V133.8C154.952 133 153.948 132.368 152.716 132.368Z" fill="#183F77"/>
<path d="M139.772 154.932H108.4C107.748 154.932 107.2 155.624 107.2 156.476V158.208C107.2 159.06 107.732 159.752 108.4 159.752H139.78C140.432 159.752 140.98 159.06 140.98 158.208V156.476C140.98 155.624 140.448 154.932 139.78 154.932" fill="#D2E1EB"/>
<path d="M152.716 129.6H97.724C97.0231 129.595 96.3487 129.867 95.8486 130.359C95.3484 130.85 95.0634 131.519 95.056 132.22V134.596C95.0634 135.297 95.3486 135.965 95.8488 136.456C96.349 136.946 97.0235 137.218 97.724 137.212H118.648V154.532H108.4C107.512 154.532 106.8 155.416 106.8 156.496V158.228C106.8 159.308 107.524 160.188 108.4 160.188H139.78C140.668 160.188 141.38 159.308 141.38 158.228V156.496C141.38 155.416 140.656 154.532 139.78 154.532H129.6V137.2H152.728C153.428 137.205 154.101 136.933 154.601 136.443C155.1 135.952 155.385 135.284 155.392 134.584V132.2C155.385 131.5 155.1 130.831 154.601 130.34C154.102 129.849 153.428 129.576 152.728 129.58L152.716 129.6ZM139.784 154.932C140.436 154.932 140.984 155.624 140.984 156.476V158.208C140.984 159.06 140.452 159.752 139.784 159.752H108.4C107.748 159.752 107.2 159.06 107.2 158.208V156.476C107.2 155.624 107.732 154.932 108.4 154.932H139.784ZM129.172 154.512H119.072V137.2H129.16L129.172 154.512ZM154.964 134.576C154.958 135.164 154.719 135.725 154.3 136.137C153.881 136.55 153.316 136.779 152.728 136.776H97.724C97.1356 136.78 96.5694 136.551 96.1495 136.139C95.7297 135.726 95.4904 135.164 95.484 134.576V132.2C95.4904 131.612 95.7297 131.05 96.1495 130.637C96.5694 130.225 97.1356 129.996 97.724 130H152.716C153.304 129.997 153.869 130.226 154.288 130.639C154.707 131.051 154.946 131.612 154.952 132.2L154.964 134.576Z" fill="#3A0901"/>
<path d="M137.856 126.128C136.886 126.467 135.948 126.894 135.056 127.404C134.08 127.996 133.056 128.812 132.536 130.008C132.28 130.71 132.102 131.439 132.004 132.18C131.943 132.553 131.895 132.929 131.86 133.308C131.812 133.684 131.78 134.06 131.752 134.44C131.636 135.956 131.592 137.476 131.572 139C131.552 140.524 131.572 142.044 131.604 143.568L131.672 145.852L131.776 148.288L130.304 148.76L128.976 149.2C128.1 149.508 127.228 149.828 126.368 150.168C125.508 150.508 124.652 150.868 123.816 151.26C122.983 151.639 122.181 152.082 121.416 152.584V152.584C121.141 152.77 120.881 152.979 120.64 153.208C120.406 153.41 120.235 153.675 120.148 153.972C120.125 154.103 120.149 154.238 120.214 154.354C120.28 154.47 120.384 154.56 120.508 154.608C120.807 154.74 121.129 154.811 121.456 154.816L121.528 154.836C121.677 154.846 121.827 154.846 121.976 154.836L122.484 154.796C122.824 154.772 123.16 154.716 123.496 154.672C124.172 154.572 124.844 154.436 125.496 154.272C126.832 153.96 128.152 153.584 129.464 153.18C130.776 152.776 132.076 152.332 133.364 151.856C133.68 151.74 134.012 151.616 134.312 151.492H134.34C134.34 151.492 134.384 151.572 134.34 151.528V151.5L134.372 151.444C134.396 151.378 134.415 151.309 134.428 151.24C134.456 151.083 134.473 150.924 134.48 150.764C134.496 150.097 134.475 149.429 134.416 148.764C134.392 148.432 134.348 148.092 134.328 147.752L134.284 146.732L134.212 144.696C134.172 143.339 134.149 141.983 134.144 140.628C134.144 139.272 134.144 137.912 134.204 136.556C134.241 135.193 134.356 133.834 134.548 132.484C134.604 132.148 134.664 131.816 134.752 131.492C134.804 131.328 134.844 131.172 134.904 131.008C134.976 130.842 135.073 130.688 135.192 130.552C135.632 130.086 136.156 129.707 136.736 129.436C137.687 128.975 138.681 128.611 139.704 128.348C140.572 128.116 141.284 127.976 141.78 127.892C142.033 127.831 142.292 127.803 142.552 127.808L140.592 125.224C140.592 125.292 139.528 125.54 137.856 126.136" fill="#B20B1F"/>
<path d="M141.78 127.884C141.284 127.968 140.58 128.108 139.704 128.34C138.681 128.603 137.687 128.967 136.736 129.428C136.156 129.699 135.632 130.078 135.192 130.544C135.073 130.68 134.976 130.834 134.904 131C134.844 131.164 134.804 131.32 134.752 131.484C134.664 131.808 134.604 132.14 134.548 132.476C134.356 133.826 134.241 135.185 134.204 136.548C134.152 137.904 134.136 139.264 134.144 140.62C134.152 141.976 134.172 143.332 134.212 144.688L134.284 146.724L134.328 147.744C134.348 148.084 134.392 148.424 134.416 148.756C134.475 149.421 134.496 150.089 134.48 150.756C134.473 150.916 134.456 151.075 134.428 151.232C134.415 151.301 134.396 151.37 134.372 151.436L134.34 151.492V151.52C134.364 151.564 134.34 151.476 134.34 151.484H134.312C134.012 151.608 133.68 151.732 133.364 151.848C132.076 152.323 130.776 152.764 129.464 153.172C128.152 153.572 126.832 153.972 125.496 154.264C124.832 154.416 124.16 154.552 123.496 154.664C123.16 154.708 122.824 154.764 122.484 154.788L121.976 154.828C121.827 154.838 121.677 154.838 121.528 154.828L121.456 154.808C121.129 154.803 120.807 154.732 120.508 154.6C120.384 154.552 120.28 154.462 120.214 154.346C120.149 154.23 120.125 154.095 120.148 153.964C120.233 153.666 120.404 153.4 120.64 153.2C120.88 152.97 121.14 152.761 121.416 152.576V152.576C122.181 152.074 122.983 151.631 123.816 151.252C124.652 150.852 125.504 150.5 126.368 150.16C127.232 149.82 128.1 149.5 128.976 149.192L130.292 148.744L131.764 148.272L131.66 145.836L131.592 143.552C131.56 142.028 131.54 140.504 131.56 138.984C131.58 137.464 131.624 135.94 131.74 134.424C131.768 134.024 131.8 133.668 131.848 133.292C131.896 132.916 131.932 132.536 131.992 132.164C132.09 131.423 132.268 130.694 132.524 129.992C133.028 128.792 134.068 127.992 135.044 127.388C135.936 126.878 136.874 126.451 137.844 126.112C139.516 125.516 140.596 125.268 140.58 125.2C140.319 125.206 140.06 125.243 139.808 125.312C139.115 125.453 138.43 125.632 137.756 125.848C136.746 126.157 135.77 126.568 134.844 127.076C134.297 127.389 133.788 127.762 133.324 128.188C132.819 128.65 132.417 129.212 132.144 129.84C131.877 130.577 131.695 131.342 131.6 132.12C131.536 132.5 131.488 132.884 131.448 133.264C131.408 133.644 131.372 134.028 131.344 134.408C131.224 135.936 131.18 137.468 131.16 138.996C131.14 140.524 131.16 142.048 131.192 143.576L131.264 145.868L131.352 148.004L130.152 148.404L128.828 148.856C127.948 149.164 127.072 149.484 126.204 149.828C125.336 150.172 124.476 150.532 123.632 150.928C122.775 151.317 121.95 151.771 121.164 152.288V152.288C120.858 152.489 120.572 152.718 120.308 152.972C120.014 153.228 119.803 153.567 119.704 153.944C119.666 154.16 119.703 154.383 119.808 154.576C119.917 154.761 120.081 154.907 120.276 154.996C120.619 155.153 120.991 155.238 121.368 155.248C121.56 155.281 121.754 155.289 121.948 155.272L122.472 155.232C122.82 155.204 123.164 155.152 123.508 155.108C124.196 155 124.88 154.864 125.552 154.708C126.904 154.396 128.232 154.02 129.552 153.608C130.872 153.196 132.176 152.76 133.472 152.28C133.8 152.16 134.112 152.044 134.448 151.904C134.513 151.876 134.572 151.835 134.62 151.784C134.658 151.734 134.692 151.68 134.72 151.624C134.754 151.532 134.781 151.437 134.8 151.34C134.832 151.164 134.851 150.986 134.856 150.808C134.877 150.122 134.856 149.435 134.792 148.752C134.768 148.408 134.728 148.072 134.708 147.74L134.664 146.732L134.592 144.7C134.552 143.348 134.529 141.995 134.524 140.64C134.524 139.288 134.524 137.936 134.584 136.588C134.621 135.24 134.733 133.895 134.92 132.56C134.976 132.236 135.036 131.912 135.116 131.608C135.164 131.46 135.2 131.3 135.252 131.164C135.308 131.036 135.383 130.917 135.476 130.812C135.881 130.383 136.361 130.03 136.892 129.772C137.813 129.306 138.774 128.924 139.764 128.632C141.464 128.108 142.564 127.892 142.532 127.832C142.272 127.827 142.013 127.856 141.76 127.916" fill="#3A0901"/>
<path d="M102.1 129.648C100.556 132.956 99.9839 143.212 99.8119 147.472C99.8094 147.519 99.7916 147.563 99.7612 147.598C99.7308 147.634 99.6896 147.658 99.6439 147.668C98.3999 147.936 92.0439 149.372 89.0919 151.028L89.0039 151.08L88.9639 151.104C88.3039 151.504 87.5519 152.06 87.6959 152.592C87.7839 152.912 88.1959 153.132 88.8959 153.24C88.9224 153.244 88.9481 153.252 88.9719 153.264C89.4048 153.328 89.8437 153.343 90.2799 153.308C94.2799 153.22 101.444 151.264 102.048 151.036C102.076 151.012 102.392 150.672 102.356 147.436C102.492 144.236 103.04 133.628 104.408 130.708C104.964 129.508 107.308 128.792 109.396 128.376C108.372 127.847 107.395 127.231 106.476 126.536C104.172 127.304 102.692 128.352 102.076 129.656" fill="#B20B1F"/>
<path d="M110.156 128.272C108.925 127.678 107.757 126.959 106.672 126.128C106.644 126.106 106.611 126.092 106.576 126.087C106.541 126.081 106.505 126.084 106.472 126.096C103.988 126.896 102.384 128.04 101.716 129.476C100.156 132.808 99.576 142.92 99.392 147.292C97.828 147.64 91.768 149.044 88.9 150.656C88.8472 150.682 88.7964 150.711 88.748 150.744C87.588 151.424 87.108 152.064 87.284 152.7C87.42 153.192 87.94 153.5 88.824 153.648C89.1286 153.723 89.4425 153.754 89.756 153.74C89.972 153.74 90.176 153.74 90.312 153.74C94.428 153.652 101.584 151.684 102.22 151.444C102.424 151.368 102.848 151.208 102.8 147.444C103.08 140.924 103.756 133.152 104.8 130.888C105.22 129.992 107.1 129.204 110.088 128.676C110.132 128.669 110.173 128.648 110.205 128.617C110.236 128.585 110.257 128.544 110.264 128.5C110.27 128.456 110.261 128.411 110.24 128.372C110.218 128.333 110.184 128.302 110.144 128.284L110.156 128.272ZM104.416 130.712C103.048 133.632 102.5 144.244 102.364 147.44C102.4 150.684 102.084 151.04 102.056 151.04C101.452 151.268 94.276 153.224 90.288 153.312C89.8518 153.347 89.4129 153.332 88.98 153.268C88.9562 153.256 88.9305 153.248 88.904 153.244C88.184 153.136 87.772 152.916 87.704 152.596C87.56 152.064 88.312 151.492 88.972 151.108L89.012 151.084C89.041 151.064 89.0718 151.047 89.104 151.032C92.044 149.376 98.408 147.94 99.652 147.672C99.6977 147.662 99.7389 147.638 99.7693 147.603C99.7997 147.567 99.8175 147.523 99.82 147.476C99.992 143.216 100.564 132.96 102.108 129.652C102.72 128.348 104.2 127.3 106.508 126.532C107.425 127.228 108.401 127.844 109.424 128.372C107.336 128.772 104.992 129.508 104.436 130.704" fill="#3A0901"/>
</svg>
