<svg width="552" height="581" viewBox="0 0 552 581" fill="none" xmlns="http://www.w3.org/2000/svg">
<g clip-path="url(#clip0)">
<path d="M524.806 258.917C519.978 256.955 512.151 257.197 502.835 259.921C502.482 263.419 501.066 266.724 498.778 269.394C498.226 266.898 497.459 264.456 496.485 262.093C480.346 268.346 461.02 281.358 445.068 302.322C425.677 326.383 410.232 364.241 402.074 395.515C393.519 426.877 392.241 451.667 391.932 451.634C398.635 455.045 405.209 458.581 411.654 462.242C411.654 462.11 413.065 452.968 421.774 431.365C430.924 410.005 447.406 376.228 487.919 331.71C496.921 322.696 505.433 313.206 513.418 303.281C507.995 300.05 501.137 299.399 495.46 296.962C503.654 295.331 511.961 294.336 520.309 293.985C533.813 274.389 534.53 262.777 524.806 258.917Z" fill="#97B9E8"/>
<path d="M502.626 278.513C502.626 278.513 419.041 330.122 403.706 455.173" stroke="#E9F2F9" stroke-width="1.5" stroke-linecap="round" stroke-linejoin="round"/>
<path d="M471.306 305.784C477.502 304.99 486.685 307.196 486.685 307.196" stroke="#E9F2F9" stroke-width="1.5" stroke-linecap="round" stroke-linejoin="round"/>
<path d="M474.944 288.03C476.528 292.18 476.782 296.72 475.672 301.02" stroke="#E9F2F9" stroke-width="1.5" stroke-linecap="round" stroke-linejoin="round"/>
<path d="M454.99 325.05C464.692 321.266 478.141 324.697 478.141 324.697" stroke="#E9F2F9" stroke-width="1.5" stroke-linecap="round" stroke-linejoin="round"/>
<path d="M451.077 309.964C453.423 316.056 453.809 322.73 452.179 329.052" stroke="#E9F2F9" stroke-width="1.5" stroke-linecap="round" stroke-linejoin="round"/>
<path d="M440.493 346.024C450.713 342.053 464.879 345.66 464.879 345.66" stroke="#E9F2F9" stroke-width="1.5" stroke-linecap="round" stroke-linejoin="round"/>
<path d="M434.838 333.408C437.282 339.828 437.668 346.851 435.941 353.5" stroke="#E9F2F9" stroke-width="1.5" stroke-linecap="round" stroke-linejoin="round"/>
<path d="M122.324 367.042C117.485 335.062 106.097 295.815 89.3291 269.846C80.7424 255.48 69.4329 242.931 56.036 232.904C54.0702 236.498 51.7073 239.86 48.9916 242.928C50.4247 237.91 49.9948 233.356 49.8184 228.669C35.3547 219.516 22.0044 216.175 14.6182 218.314C4.34363 221.214 4.10109 233.234 16.1175 254.948C24.7334 259.891 34.734 261.867 44.5819 260.572C37.2849 262.877 29.7524 264.357 22.1256 264.983C27.6377 273.639 34.7924 283.509 43.6228 294.635C79.264 343.156 92.1292 378.444 98.9753 400.676C105.369 423.05 105.788 432.28 105.799 432.413C112.59 429.472 119.499 426.645 126.525 423.933C126.205 423.91 127.572 399.132 122.324 367.042Z" fill="#97B9E8"/>
<path d="M34.627 240.138C34.627 240.138 112.325 300.27 114.464 426.193" stroke="#E9F2F9" stroke-width="1.5" stroke-linecap="round" stroke-linejoin="round"/>
<path d="M62.9151 270.497C56.8407 269.062 47.4812 270.288 47.4812 270.288" stroke="#E9F2F9" stroke-width="1.5" stroke-linecap="round" stroke-linejoin="round"/>
<path d="M61.1512 252.51C59.1356 256.467 58.4071 260.955 59.0676 265.346" stroke="#E9F2F9" stroke-width="1.5" stroke-linecap="round" stroke-linejoin="round"/>
<path d="M77.1473 291.448C67.887 286.663 54.1509 288.67 54.1509 288.67" stroke="#E9F2F9" stroke-width="1.5" stroke-linecap="round" stroke-linejoin="round"/>
<path d="M82.5822 276.826C79.6262 282.644 78.555 289.239 79.5174 295.694" stroke="#E9F2F9" stroke-width="1.5" stroke-linecap="round" stroke-linejoin="round"/>
<path d="M89.3291 313.801C79.5838 308.773 65.0759 310.879 65.0759 310.879" stroke="#E9F2F9" stroke-width="1.5" stroke-linecap="round" stroke-linejoin="round"/>
<path d="M96.2743 301.836C93.1683 307.958 92.0433 314.896 93.0552 321.686" stroke="#E9F2F9" stroke-width="1.5" stroke-linecap="round" stroke-linejoin="round"/>
<path d="M160.336 386.483C133.15 377.716 126.745 416.699 152.31 444.124C133.569 432.126 71.6793 389.141 49.9175 408.571C29.9086 426.458 57.899 454.424 123.625 462.694C118.852 464.602 74.2148 488.465 83.8279 503.915C98.898 528.12 170.919 484.948 170.919 484.948L190.674 471.88C190.674 471.88 187.775 395.338 160.336 386.483Z" fill="#97B9E8"/>
<path d="M186.11 475.762C186.11 475.762 140.503 446.66 97.8066 431.894" stroke="#E9F2F9" stroke-width="1.5" stroke-linecap="round" stroke-linejoin="round"/>
<path d="M156.169 407.391C156.169 407.391 177.412 446.186 179.077 471.439" stroke="#E9F2F9" stroke-width="1.5" stroke-linecap="round" stroke-linejoin="round"/>
<path d="M99.3059 489.866C99.3059 489.866 139.456 470.259 166.818 464.282" stroke="#E9F2F9" stroke-width="1.5" stroke-linecap="round" stroke-linejoin="round"/>
<path d="M432.071 382.591C450.548 402.44 390.554 441.257 388.536 446.55C409.681 432.126 468.506 385.568 494.17 407.182C517.784 427.031 456.754 456.916 421.179 452.902C431.233 454.004 493.211 456.905 488.504 485.311C482.992 518.394 401.799 472.078 401.799 472.078C401.799 472.078 425.027 491.851 421.896 499.647C414.179 518.78 363.908 474.813 363.908 474.813C363.908 474.813 409.471 358.297 432.071 382.591Z" fill="#97B9E8"/>
<path d="M379.794 465.969C385.011 472.044 390.711 477.687 396.838 482.841" stroke="#E9F2F9" stroke-width="1.5" stroke-linecap="round" stroke-linejoin="round"/>
<path d="M370.732 471.891C370.732 471.891 422.193 436.901 470.799 418.474" stroke="#E9F2F9" stroke-width="1.5" stroke-linecap="round" stroke-linejoin="round"/>
<path d="M416.979 400.433C416.979 400.433 379.739 437.585 378.67 466.686" stroke="#E9F2F9" stroke-width="1.5" stroke-linecap="round" stroke-linejoin="round"/>
<path d="M471.02 485.19C471.02 485.19 424.2 463.995 392.527 458.052" stroke="#E9F2F9" stroke-width="1.5" stroke-linecap="round" stroke-linejoin="round"/>
<path d="M273.091 499.625C382.909 499.625 471.935 410.573 471.935 300.723C471.935 190.872 382.909 101.82 273.091 101.82C163.273 101.82 74.2479 190.872 74.2479 300.723C74.2479 410.573 163.273 499.625 273.091 499.625Z" fill="#F0F6FF"/>
<path d="M153.721 332.25C185.075 348.154 217.735 361.339 251.34 371.662C227.96 357.065 205.746 340.677 184.898 322.645C155.809 297.554 130.585 268.302 110.043 235.837C104.899 227.75 100.078 219.468 95.5797 210.992C74.9185 251.834 68.9712 298.555 78.7411 343.273C88.511 387.991 113.4 427.97 149.21 456.467C185.021 484.965 229.56 500.235 275.317 499.704C321.074 499.173 365.248 482.873 400.388 453.552C309.008 436.008 216.592 401.723 153.721 332.25Z" fill="#BAD7FF"/>
<path d="M400.387 453.552C417.471 439.297 432.058 422.291 443.547 403.234C343.227 399.573 243.282 377.871 153.721 332.283C216.592 401.723 309.008 436.008 400.387 453.552Z" fill="#F0F6FF"/>
<path d="M144.637 305.685H128.377V314.661H144.637V305.685Z" fill="#97B9E8"/>
<path d="M148.507 300.723H124.507V307.041H148.507V300.723Z" fill="#97B9E8"/>
<path opacity="0.67" d="M136.513 387.795C133.37 387.795 130.355 386.547 128.133 384.323C125.91 382.1 124.662 379.085 124.662 375.941V309.964H148.353V375.941C148.353 379.083 147.106 382.097 144.885 384.319C142.665 386.542 139.654 387.793 136.513 387.795Z" fill="#FEFEFE"/>
<path d="M142.422 328.776C137.24 328.655 132.048 328.6 126.866 328.556V375.974C126.823 377.268 127.04 378.557 127.505 379.766C127.969 380.974 128.672 382.076 129.572 383.007C130.471 383.938 131.549 384.678 132.741 385.183C133.932 385.689 135.213 385.949 136.507 385.949C137.801 385.949 139.082 385.689 140.274 385.183C141.465 384.678 142.543 383.938 143.442 383.007C144.342 382.076 145.045 380.974 145.51 379.766C145.975 378.557 146.192 377.268 146.148 375.974V328.942C144.891 328.865 143.645 328.798 142.422 328.776Z" fill="#E72D3B"/>
<path d="M143.711 337.654C143.711 338.042 143.596 338.421 143.381 338.744C143.165 339.067 142.859 339.318 142.5 339.467C142.141 339.616 141.747 339.654 141.366 339.579C140.986 339.503 140.636 339.316 140.361 339.042C140.087 338.767 139.9 338.417 139.824 338.036C139.749 337.656 139.788 337.261 139.936 336.902C140.085 336.544 140.336 336.237 140.659 336.021C140.982 335.806 141.361 335.691 141.749 335.691C142.007 335.689 142.263 335.739 142.502 335.837C142.74 335.935 142.957 336.08 143.14 336.262C143.322 336.445 143.467 336.662 143.565 336.901C143.663 337.139 143.713 337.395 143.711 337.654Z" fill="#FF7580"/>
<path d="M131.155 376.713C132.239 376.713 133.117 375.834 133.117 374.75C133.117 373.666 132.239 372.787 131.155 372.787C130.071 372.787 129.193 373.666 129.193 374.75C129.193 375.834 130.071 376.713 131.155 376.713Z" fill="#FF7580"/>
<path d="M137.494 349.509C137.496 349.786 137.416 350.058 137.263 350.29C137.111 350.522 136.893 350.703 136.637 350.811C136.381 350.919 136.1 350.948 135.827 350.895C135.555 350.842 135.305 350.71 135.108 350.514C134.911 350.319 134.776 350.069 134.721 349.797C134.666 349.525 134.693 349.243 134.799 348.986C134.905 348.729 135.084 348.51 135.315 348.356C135.545 348.201 135.816 348.119 136.094 348.119C136.277 348.117 136.459 348.152 136.629 348.221C136.798 348.291 136.953 348.393 137.083 348.522C137.213 348.651 137.316 348.805 137.387 348.974C137.457 349.144 137.494 349.325 137.494 349.509Z" fill="#FF7580"/>
<path d="M133.415 339.033C133.415 339.307 133.333 339.576 133.181 339.805C133.028 340.033 132.811 340.211 132.557 340.317C132.304 340.422 132.024 340.449 131.755 340.396C131.485 340.342 131.238 340.21 131.044 340.015C130.849 339.821 130.717 339.573 130.663 339.304C130.61 339.034 130.637 338.755 130.742 338.501C130.848 338.247 131.026 338.03 131.254 337.877C131.482 337.724 131.751 337.643 132.026 337.643C132.209 337.641 132.39 337.676 132.559 337.745C132.728 337.815 132.882 337.917 133.011 338.046C133.141 338.176 133.243 338.33 133.312 338.499C133.381 338.668 133.416 338.85 133.415 339.033Z" fill="#FF7580"/>
<path d="M143.215 357.978C143.215 358.346 143.069 358.7 142.808 358.961C142.548 359.221 142.195 359.368 141.826 359.368C141.458 359.368 141.104 359.221 140.844 358.961C140.583 358.7 140.437 358.346 140.437 357.978C140.437 357.609 140.583 357.256 140.844 356.995C141.104 356.734 141.458 356.588 141.826 356.588C142.195 356.588 142.548 356.734 142.808 356.995C143.069 357.256 143.215 357.609 143.215 357.978Z" fill="#FF7580"/>
<path d="M146.148 328.942C146.148 329.736 141.837 330.375 136.513 330.375C131.188 330.375 126.866 329.736 126.866 328.942C126.866 328.148 131.177 327.508 136.513 327.508C141.848 327.508 146.148 328.159 146.148 328.942Z" fill="#B10A1E"/>
<path d="M182.109 305.685H165.848V314.661H182.109V305.685Z" fill="#97B9E8"/>
<path d="M185.978 300.723H161.979V307.041H185.978V300.723Z" fill="#97B9E8"/>
<path opacity="0.67" d="M173.984 387.795C170.841 387.795 167.826 386.547 165.604 384.323C163.381 382.1 162.133 379.085 162.133 375.941V309.964H185.835V375.941C185.835 379.085 184.586 382.1 182.364 384.323C180.141 386.547 177.127 387.795 173.984 387.795Z" fill="#FEFEFE"/>
<path d="M179.904 328.776C174.711 328.655 169.53 328.6 164.338 328.556V375.974C164.338 378.533 165.354 380.987 167.163 382.797C168.972 384.606 171.425 385.623 173.984 385.623C176.542 385.623 178.996 384.606 180.805 382.797C182.614 380.987 183.63 378.533 183.63 375.974V328.942C182.362 328.865 181.116 328.798 179.904 328.776Z" fill="#E72D3B"/>
<path d="M181.194 337.654C181.196 338.045 181.082 338.428 180.866 338.754C180.65 339.081 180.342 339.335 179.981 339.486C179.62 339.637 179.222 339.677 178.838 339.601C178.454 339.525 178.102 339.337 177.825 339.06C177.548 338.784 177.36 338.431 177.284 338.047C177.209 337.663 177.249 337.265 177.399 336.904C177.55 336.543 177.805 336.235 178.131 336.019C178.457 335.803 178.84 335.688 179.231 335.691C179.752 335.691 180.251 335.897 180.619 336.266C180.987 336.634 181.194 337.133 181.194 337.654Z" fill="#FF7580"/>
<path d="M168.637 376.713C169.721 376.713 170.599 375.834 170.599 374.75C170.599 373.666 169.721 372.787 168.637 372.787C167.553 372.787 166.675 373.666 166.675 374.75C166.675 375.834 167.553 376.713 168.637 376.713Z" fill="#FF7580"/>
<path d="M174.976 349.509C174.976 349.784 174.895 350.052 174.742 350.281C174.589 350.509 174.372 350.688 174.118 350.793C173.865 350.898 173.585 350.926 173.316 350.872C173.046 350.818 172.799 350.686 172.605 350.492C172.41 350.297 172.278 350.049 172.225 349.78C172.171 349.51 172.198 349.231 172.304 348.977C172.409 348.723 172.587 348.506 172.815 348.353C173.044 348.2 173.312 348.119 173.587 348.119C173.77 348.117 173.951 348.152 174.12 348.221C174.289 348.291 174.443 348.393 174.572 348.523C174.702 348.652 174.804 348.806 174.873 348.975C174.943 349.144 174.977 349.326 174.976 349.509Z" fill="#FF7580"/>
<path d="M170.897 339.033C170.899 339.31 170.819 339.582 170.666 339.814C170.514 340.046 170.296 340.227 170.04 340.335C169.785 340.442 169.503 340.472 169.231 340.419C168.958 340.366 168.708 340.234 168.511 340.038C168.314 339.843 168.18 339.593 168.125 339.321C168.07 339.049 168.097 338.767 168.202 338.51C168.308 338.253 168.488 338.034 168.718 337.879C168.948 337.725 169.22 337.643 169.497 337.643C169.68 337.641 169.862 337.676 170.032 337.745C170.202 337.814 170.356 337.917 170.486 338.046C170.616 338.175 170.72 338.329 170.79 338.498C170.861 338.667 170.897 338.849 170.897 339.033Z" fill="#FF7580"/>
<path d="M180.698 357.978C180.698 358.253 180.616 358.521 180.463 358.75C180.311 358.979 180.094 359.157 179.84 359.262C179.586 359.367 179.307 359.395 179.037 359.341C178.768 359.287 178.521 359.155 178.326 358.961C178.132 358.766 178 358.519 177.946 358.249C177.893 357.979 177.92 357.7 178.025 357.446C178.13 357.192 178.308 356.975 178.537 356.822C178.765 356.669 179.034 356.588 179.308 356.588C179.677 356.588 180.03 356.734 180.291 356.995C180.551 357.256 180.698 357.609 180.698 357.978Z" fill="#FF7580"/>
<path d="M183.63 328.942C183.63 329.736 179.308 330.375 173.984 330.375C168.659 330.375 164.338 329.736 164.338 328.942C164.338 328.148 168.659 327.508 173.984 327.508C179.308 327.508 183.63 328.159 183.63 328.942Z" fill="#B10A1E"/>
<path opacity="0.49" d="M169.894 363.469C169.632 363.469 169.372 363.417 169.13 363.317C168.888 363.217 168.668 363.07 168.483 362.884C168.298 362.699 168.151 362.479 168.05 362.237C167.95 361.995 167.898 361.735 167.898 361.473V320.12C167.898 319.858 167.95 319.598 168.05 319.356C168.151 319.114 168.298 318.894 168.483 318.709C168.668 318.523 168.888 318.376 169.13 318.276C169.372 318.176 169.632 318.124 169.894 318.124C170.157 318.122 170.417 318.173 170.661 318.273C170.904 318.372 171.125 318.519 171.312 318.705C171.498 318.89 171.646 319.111 171.747 319.354C171.848 319.596 171.9 319.857 171.9 320.12V361.473C171.9 361.736 171.848 361.996 171.747 362.239C171.646 362.482 171.498 362.703 171.312 362.888C171.125 363.074 170.904 363.22 170.661 363.32C170.417 363.42 170.157 363.47 169.894 363.469Z" fill="#FEFEFE"/>
<path d="M103.517 366.843H199.152C200.187 366.843 201.18 367.255 201.912 367.987C202.643 368.719 203.055 369.712 203.055 370.747V412.541H99.6146V370.747C99.6146 369.712 100.026 368.719 100.758 367.987C101.49 367.255 102.482 366.843 103.517 366.843V366.843Z" stroke="#97B9E8" stroke-width="3" stroke-linecap="round" stroke-linejoin="round"/>
<path opacity="0.49" d="M132.654 363.469C132.124 363.469 131.615 363.259 131.239 362.885C130.863 362.511 130.651 362.003 130.648 361.473V320.12C130.651 319.59 130.863 319.082 131.239 318.708C131.615 318.334 132.124 318.124 132.654 318.124C133.184 318.124 133.693 318.334 134.069 318.708C134.445 319.082 134.658 319.59 134.661 320.12V361.473C134.658 362.003 134.445 362.511 134.069 362.885C133.693 363.259 133.184 363.469 132.654 363.469Z" fill="#FEFEFE"/>
<path d="M160.359 516.225C196.139 480.485 196.139 422.539 160.359 386.799C124.578 351.059 66.5666 351.059 30.7862 386.799C-4.99424 422.539 -4.99425 480.485 30.7862 516.225C66.5666 551.964 124.578 551.964 160.359 516.225Z" fill="white"/>
<path d="M521.708 496.852C557.463 461.087 557.463 403.099 521.708 367.334C485.953 331.568 427.983 331.568 392.229 367.334C356.474 403.099 356.474 461.087 392.229 496.852C427.983 532.618 485.953 532.618 521.708 496.852Z" fill="white"/>
<path d="M232.502 501.753C257.417 476.831 257.417 436.425 232.502 411.503C207.588 386.582 167.194 386.582 142.28 411.503C117.365 436.425 117.365 476.831 142.28 501.753C167.194 526.674 207.588 526.674 232.502 501.753Z" fill="white"/>
<path d="M424.317 470.367C431.925 435.953 410.204 401.887 375.801 394.276C341.398 386.666 307.341 408.394 299.733 442.807C292.125 477.22 313.847 511.287 348.25 518.897C382.652 526.508 416.709 504.78 424.317 470.367Z" fill="white"/>
<path d="M269.806 540.57C311.129 540.57 344.627 506.193 344.627 463.786C344.627 421.379 311.129 387.002 269.806 387.002C228.483 387.002 194.985 421.379 194.985 463.786C194.985 506.193 228.483 540.57 269.806 540.57Z" fill="white"/>
<path d="M380.312 426.392C366.334 435.919 353.094 440.849 350.746 437.419C348.397 433.99 357.823 423.436 371.802 413.909C385.78 404.381 397.4 398.47 399.748 401.944C402.096 405.417 394.357 416.864 380.312 426.392Z" fill="#F7AC99"/>
<path d="M392.869 408.097C394.88 406.647 396.813 405.09 398.657 403.432C399.472 402.672 400.255 401.999 401.137 401.084C401.975 400.205 402.756 399.273 403.474 398.294C404.888 396.342 406.027 394.204 406.859 391.942C407.659 389.734 408.192 387.439 408.446 385.105C408.716 382.754 408.683 380.378 408.347 378.036C408.126 376.581 407.928 374.651 406.418 374.728C405.6 374.846 404.826 375.168 404.167 375.666C403.508 376.163 402.985 376.819 402.647 377.573C401.887 379.371 402.372 381.741 402.008 383.66C401.641 385.573 401.018 387.428 400.156 389.174C399.394 390.713 398.426 392.141 397.279 393.42C396.069 394.715 394.719 395.872 393.255 396.871C390.641 398.78 387.88 400.48 384.998 401.955C387.469 404.19 390.1 406.243 392.869 408.097Z" fill="#E39784"/>
<path d="M424.63 376.283C420.223 387.52 413.499 397.703 404.896 406.167C397.984 412.938 390.94 420.161 380.015 425.212L385.913 406.818C385.913 406.818 408.347 389.383 415.557 379.723C422.767 370.063 424.63 376.283 424.63 376.283Z" fill="#F7AC99"/>
<path d="M370.986 407.976C370.986 407.976 302.857 428.509 250.47 421.319L199.968 414.019C199.968 414.019 103.583 368.442 80.6751 351.074C70.1139 375.742 91.5229 429.777 91.5229 429.777C113.825 448.16 148.518 458.537 148.518 458.537C148.518 458.537 174.855 472.685 245.531 470.568C263.004 470.038 332.864 461.525 368.495 432.622L370.986 407.976Z" fill="#F7AC99"/>
<path d="M416.902 375.401C416.902 375.401 404.929 407.248 372.364 424.451L379.849 407.91C379.849 407.91 401.336 389.306 408.027 379.238C414.719 369.17 416.902 375.401 416.902 375.401Z" fill="#F7AC99"/>
<path d="M389.275 392.747C389.275 392.747 393.178 384.598 389.352 382.017C385.527 379.437 383.84 386.99 379.828 391.942C375.815 396.893 361.594 397.974 359.51 411.637H377.656C377.656 411.637 389.452 409.972 389.275 392.747Z" fill="#E39784"/>
<path d="M345.752 431.497C345.752 431.497 348.364 407.314 367.602 403.455C370.788 402.815 375.561 402.043 378.174 400.565C387.136 395.493 390.091 393.265 392.141 386.704C395.449 376.195 403.904 382.888 396.298 394.423C388.691 405.958 381.702 418.683 381.702 418.683L369.465 428.321L345.752 431.497Z" fill="#F7AC99"/>
<path d="M408.623 393.739C398.831 408.809 383.569 419.485 366.058 423.513C350.977 433.438 335.874 443.198 322.7 446.969C290.366 456.254 256.015 458.879 222.512 457.224C188.448 455.548 143.403 433.681 104.245 409.145C91.2693 401.017 81.9539 398.845 84.9304 410.06C88.2376 421.54 91.5449 429.733 91.5449 429.733C113.847 448.116 148.54 458.493 148.54 458.493C148.54 458.493 174.877 472.641 245.553 470.524C262.563 470.005 329.204 461.933 365.595 434.839C370.713 432.407 375.628 429.568 380.29 426.348C382.467 424.87 384.568 423.284 386.585 421.595C393.96 416.996 399.462 411.427 404.874 406.156C413.477 397.692 420.201 387.509 424.608 376.272C424.422 375.737 424.108 375.256 423.693 374.871C423.373 377.441 419.603 379.536 417.508 381.819C414.194 385.517 411.22 389.506 408.623 393.739Z" fill="#E39784"/>
<path d="M397.113 300.833L410.96 322.436C412.574 324.955 413.48 327.862 413.584 330.853C413.688 333.844 412.986 336.807 411.551 339.432C410.115 342.058 408 344.248 405.427 345.775C402.854 347.301 399.917 348.106 396.926 348.106C393.934 348.106 390.998 347.301 388.425 345.775C385.852 344.248 383.737 342.058 382.301 339.432C380.866 336.807 380.163 333.844 380.267 330.853C380.371 327.862 381.278 324.955 382.892 322.436L396.727 300.833C396.743 300.806 396.764 300.783 396.789 300.766C396.814 300.748 396.843 300.735 396.873 300.729C396.903 300.723 396.934 300.723 396.964 300.729C396.994 300.736 397.022 300.749 397.047 300.767C397.077 300.78 397.1 300.804 397.113 300.833Z" fill="#E72D3B"/>
<path d="M410.96 322.436L406.693 315.819C416.262 333.221 402.35 353.202 383.984 341.987C386.666 345.301 390.516 347.461 394.742 348.022C398.968 348.584 403.248 347.504 406.703 345.006C410.157 342.508 412.524 338.781 413.316 334.591C414.107 330.401 413.264 326.067 410.96 322.48V322.436Z" fill="#B10A1E"/>
<path d="M383.013 329.35C383.013 329.766 383.137 330.174 383.368 330.52C383.6 330.866 383.929 331.136 384.313 331.296C384.698 331.455 385.121 331.497 385.53 331.416C385.938 331.334 386.313 331.134 386.608 330.839C386.902 330.545 387.103 330.169 387.184 329.761C387.265 329.352 387.224 328.929 387.064 328.544C386.905 328.159 386.635 327.83 386.289 327.599C385.943 327.367 385.535 327.244 385.119 327.244C384.561 327.247 384.028 327.469 383.633 327.864C383.239 328.258 383.016 328.792 383.013 329.35Z" fill="#FF7580"/>
<path d="M386.177 335.371C386.753 337.541 388.004 339.472 389.749 340.885" stroke="#FF7580" stroke-width="4" stroke-linecap="round" stroke-linejoin="round"/>
<path d="M275.483 390.696H270.71C269.38 390.696 268.098 390.205 267.107 389.318C266.116 388.431 265.488 387.21 265.341 385.888L263.423 368.398H282.759L280.808 385.932C280.655 387.239 280.029 388.445 279.048 389.323C278.067 390.2 276.799 390.689 275.483 390.696Z" fill="#FEFEFE"/>
<path d="M173.333 437.805C201.18 443.583 218.301 434.839 227.429 429.546C254.504 413.831 274.833 419.621 288.227 428.377C341.066 462.893 372.011 454.203 369.564 430.582C365.43 391.633 269.85 434.398 273.091 379.613" stroke="#FEFEFE" stroke-width="4" stroke-miterlimit="10" stroke-linecap="round"/>
<path d="M170.423 422.807L148.525 417.93C146.593 417.5 144.679 418.718 144.249 420.65L139.782 440.725C139.352 442.657 140.569 444.572 142.5 445.002L164.399 449.878C166.33 450.308 168.244 449.091 168.674 447.159L173.142 427.084C173.572 425.152 172.355 423.237 170.423 422.807Z" fill="#E9F2F9"/>
<path d="M148.649 426.241L146.136 437.533C145.828 438.918 146.7 440.291 148.085 440.599L161.202 443.52C162.587 443.829 163.96 442.956 164.268 441.57L166.781 430.279C167.089 428.894 166.216 427.521 164.832 427.213L151.714 424.292C150.329 423.983 148.957 424.856 148.649 426.241Z" fill="white"/>
<path d="M180.213 436.179L168.01 433.462L166.731 439.21L178.934 441.927L180.213 436.179Z" fill="#E9F2F9"/>
<path d="M173.333 437.805C201.18 443.583 218.301 434.839 227.429 429.546C254.504 413.831 274.833 419.621 288.227 428.377C341.066 462.893 372.011 454.203 369.564 430.582C365.43 391.633 269.85 434.398 273.091 379.613" stroke="#E72D3B" stroke-width="2" stroke-miterlimit="10"/>
<path d="M318.081 196.502C301.357 196.502 283.277 205.247 273.091 220.365C262.905 205.247 244.825 196.502 228.101 196.502C198.083 196.502 173.124 218.27 177.104 255.322C183.597 315.643 268.439 372.214 273.091 375.213C277.743 372.159 362.585 315.665 369.079 255.322C373.058 218.27 348.056 196.502 318.081 196.502Z" fill="#FEFEFE"/>
<path d="M277.832 97.1333H267.072V219.56H277.832V97.1333Z" fill="#FEFEFE"/>
<path d="M288.867 170.808H256.037V179.343H288.867V170.808Z" fill="#97B9E8"/>
<path d="M308.126 223.365H238.056L253.534 190.801H292.648L308.126 223.365Z" fill="#FEFEFE"/>
<path d="M273.091 368.442C256.335 356.753 240.635 343.617 226.172 329.185C199.769 302.531 185.14 277.477 182.682 254.716C181.028 239.333 184.688 226.144 193.276 216.583C201.655 207.254 214.024 202.115 228.102 202.115C236.041 202.211 243.843 204.201 250.859 207.92C257.875 211.639 263.902 216.979 268.439 223.497C268.951 224.261 269.643 224.888 270.455 225.321C271.266 225.754 272.172 225.98 273.091 225.98C274.011 225.98 274.917 225.754 275.728 225.321C276.539 224.888 277.232 224.261 277.744 223.497C282.282 216.981 288.309 211.643 295.325 207.926C302.341 204.209 310.142 202.22 318.081 202.126C332.159 202.126 344.539 207.265 352.906 216.594C361.494 226.155 365.154 239.344 363.501 254.727C361.042 277.488 346.413 302.542 320.01 329.196C305.551 343.628 289.85 356.761 273.091 368.442Z" fill="#BAD7FF"/>
<path d="M273.091 361.572C257.803 350.664 243.441 338.51 230.152 325.237C204.675 299.499 190.575 275.613 188.26 254.12C186.772 240.358 189.947 228.68 197.443 220.332C204.741 212.205 215.622 207.728 228.091 207.728C235.115 207.809 242.018 209.568 248.225 212.857C254.432 216.147 259.764 220.872 263.776 226.64C264.803 228.164 266.189 229.412 267.811 230.275C269.434 231.138 271.243 231.589 273.08 231.589C274.918 231.589 276.727 231.138 278.349 230.275C279.972 229.412 281.357 228.164 282.385 226.64C286.397 220.872 291.729 216.147 297.936 212.857C304.143 209.568 311.046 207.809 318.07 207.728C330.538 207.728 341.419 212.205 348.717 220.332C356.214 228.68 359.389 240.358 357.911 254.12C355.596 275.58 341.496 299.51 316.02 325.237C302.737 338.513 288.379 350.667 273.091 361.572Z" fill="#BAD7FF"/>
<path d="M254.216 230.908C223.349 221.049 193.903 213.264 188.6 239.244C179.406 245.177 177.951 247.537 178.072 248.662C180.663 272.702 196.45 299.499 224.991 328.324C239.878 343.195 255.965 356.812 273.09 369.038C290.214 356.813 306.302 343.195 321.188 328.324C349.73 299.51 365.516 272.702 368.107 248.662C368.647 243.655 369.011 242.773 368.46 238.307C327.935 219.219 299.79 245.464 254.216 230.908Z" fill="#B10A1E"/>
<path d="M271.14 247.272C208.048 267.784 188.337 241.825 182.693 230.5C180.841 232.308 177.985 248.144 178.041 248.662C180.631 272.702 196.418 299.499 224.96 328.324C239.857 343.196 255.955 356.813 273.091 369.038C290.216 356.813 306.303 343.195 321.19 328.324C349.731 299.51 365.518 272.702 368.109 248.662C368.649 243.655 368.902 241.759 368.351 237.293C340.504 212.106 291.38 240.722 271.14 247.272Z" fill="#E72D3B"/>
<path d="M307.696 260.075C310.941 260.075 313.572 257.444 313.572 254.198C313.572 250.952 310.941 248.32 307.696 248.32C304.451 248.32 301.82 250.952 301.82 254.198C301.82 257.444 304.451 260.075 307.696 260.075Z" fill="#FF7580"/>
<path d="M237.34 270.496C237.342 271.517 237.041 272.516 236.476 273.366C235.91 274.217 235.105 274.88 234.163 275.272C233.22 275.664 232.182 275.768 231.181 275.57C230.179 275.372 229.259 274.882 228.536 274.16C227.814 273.439 227.321 272.52 227.121 271.518C226.921 270.517 227.023 269.479 227.413 268.535C227.803 267.591 228.464 266.785 229.313 266.217C230.162 265.649 231.16 265.346 232.181 265.346C233.546 265.349 234.855 265.892 235.822 266.857C236.788 267.822 237.334 269.13 237.34 270.496Z" fill="#FF7580"/>
<path d="M212.579 289.419C214.327 289.419 215.743 288.002 215.743 286.255C215.743 284.507 214.327 283.09 212.579 283.09C210.832 283.09 209.416 284.507 209.416 286.255C209.416 288.002 210.832 289.419 212.579 289.419Z" fill="#FF7580"/>
<path d="M298.337 318.444C300.084 318.444 301.501 317.027 301.501 315.279C301.501 313.531 300.084 312.114 298.337 312.114C296.589 312.114 295.173 313.531 295.173 315.279C295.173 317.027 296.589 318.444 298.337 318.444Z" fill="#FF7580"/>
<path d="M250.238 308.232C250.24 309.229 249.947 310.205 249.395 311.035C248.842 311.865 248.056 312.513 247.136 312.896C246.215 313.279 245.202 313.381 244.224 313.187C243.246 312.994 242.347 312.515 241.642 311.811C240.936 311.106 240.455 310.208 240.26 309.231C240.064 308.253 240.164 307.239 240.545 306.317C240.926 305.396 241.571 304.608 242.4 304.054C243.229 303.5 244.203 303.204 245.2 303.204C246.534 303.204 247.814 303.733 248.759 304.676C249.703 305.619 250.235 306.898 250.238 308.232Z" fill="#FF7580"/>
<path d="M265.485 339.495C267.232 339.495 268.648 338.078 268.648 336.33C268.648 334.582 267.232 333.165 265.485 333.165C263.737 333.165 262.321 334.582 262.321 336.33C262.321 338.078 263.737 339.495 265.485 339.495Z" fill="#FF7580"/>
<path d="M331.872 286.596C328.83 291.985 325.4 297.145 321.609 302.035" stroke="#FF7580" stroke-width="10" stroke-linecap="round" stroke-linejoin="round"/>
<path d="M346.27 243.931C346.27 243.931 345.443 256.271 338.476 273.044" stroke="#FF7580" stroke-width="10" stroke-linecap="round" stroke-linejoin="round"/>
<path d="M276.454 256.988H269.431C268.128 256.988 267.072 258.044 267.072 259.348V309.964C267.072 311.267 268.128 312.323 269.431 312.323H276.454C277.757 312.323 278.813 311.267 278.813 309.964V259.348C278.813 258.044 277.757 256.988 276.454 256.988Z" fill="white"/>
<path d="M300.597 288.162V281.138C300.597 279.834 299.54 278.778 298.237 278.778H247.636C246.334 278.778 245.277 279.834 245.277 281.138V288.162C245.277 289.466 246.334 290.522 247.636 290.522H298.237C299.54 290.522 300.597 289.466 300.597 288.162Z" fill="white"/>
<path d="M274.579 383.318H271.603L269.85 349.133H276.332L274.579 383.318Z" fill="#E72D3B"/>
<path d="M421.896 139.589H410.144V127.834H400.377V139.589H388.625V149.359H400.377V161.115H410.144V149.359H421.896V139.589Z" stroke="#97B9E8" stroke-width="1.5" stroke-miterlimit="10" stroke-linecap="round"/>
<path d="M118.201 212.348H106.45V200.593H96.6822V212.348H84.9304V222.119H96.6822V233.863H106.45V222.119H118.201V212.348Z" stroke="#97B9E8" stroke-width="1.5" stroke-miterlimit="10" stroke-linecap="round"/>
<path d="M446.865 51.7553H435.114V40H425.346V51.7553H413.594V61.5256H425.346V73.2809H435.114V61.5256H446.865V51.7553Z" stroke="#97B9E8" stroke-width="1.5" stroke-miterlimit="10" stroke-linecap="round"/>
<path d="M149.146 139.369H140.217V130.436H132.797V139.369H123.868V146.79H132.797V155.711H140.217V146.79H149.146V139.369Z" stroke="#97B9E8" stroke-width="1.5" stroke-miterlimit="10" stroke-linecap="round"/>
<path d="M474.305 222.152H465.375V213.231H457.956V222.152H449.037V229.573H457.956V238.506H465.375V229.573H474.305V222.152Z" stroke="#97B9E8" stroke-width="1.5" stroke-miterlimit="10" stroke-linecap="round"/>
<path d="M129.733 56.9272H120.803V47.9949H113.384V56.9272H104.454V64.3487H113.384V73.2809H120.803V64.3487H129.733V56.9272Z" stroke="#97B9E8" stroke-width="1.5" stroke-miterlimit="10" stroke-linecap="round"/>
</g>
<defs>
<clipPath id="clip0">
<rect width="552" height="581" fill="white"/>
</clipPath>
</defs>
</svg>
